<mxfile host="Electron" modified="2024-05-15T08:02:40.234Z" agent="Mozilla/5.0 (Windows NT 10.0; Win64; x64) AppleWebKit/537.36 (KHTML, like Gecko) draw.io/24.2.5 Chrome/120.0.6099.109 Electron/28.1.0 Safari/537.36" etag="Xk0vtMwV7KOhsehHqOjR" version="24.2.5" type="device">
  <diagram name="第 1 页" id="lDjjMKB6D9uMCR6HJlm5">
    <mxGraphModel dx="3033" dy="1286" grid="1" gridSize="10" guides="1" tooltips="1" connect="1" arrows="1" fold="1" page="1" pageScale="1" pageWidth="827" pageHeight="1169" math="0" shadow="0">
      <root>
        <mxCell id="0" />
        <mxCell id="1" parent="0" />
        <mxCell id="wv0-XXs7hmUBtiv9ncpi-6" value="" style="group" vertex="1" connectable="0" parent="1">
          <mxGeometry x="-250" y="920" width="540" height="509.73" as="geometry" />
        </mxCell>
        <mxCell id="wv0-XXs7hmUBtiv9ncpi-2" value="" style="shape=image;verticalLabelPosition=bottom;labelBackgroundColor=default;verticalAlign=top;aspect=fixed;imageAspect=0;image=data:image/png,iVBORw0KGgoAAAANSUhEUgAAAv8AAALUCAYAAACckF3XAAAgAElEQVR4Aey9adKtOA+tmT/viGo89esOqMb1zSkrRO7FK4Rs3DewiNjhTu1jMOKcbP75lxcJkAAJkAAJkAAJkAAJkMAnCPzziSyZJAmQAAmQAAmQAAmQAAmQwL8s/nkTkAAJFBH4v//3//6LX5EBKpEACZAACZAACQwnwOJ/OHI6JIG9CKDAt63Owq7psZZjnwRIgARIgARIYC4BFv9z+dM7CSxDQBfsul8bIGzV2qE+CZAACZAACZBAPQEW//UMaYEEtiWAwlza3hd89fZD+yRAAiRAAiRAAmECLP7DbLhCAq8kgCJ8RMHvAYR/b41zJEACJEACJEACfQmw+O/Ll9ZJYAkCKLhnFfweBMTkrXGOBEiABEiABEigDwEW/3240ioJTCeA4nqlgt+Dgji9Nc6RAAmQAAmQAAm0JcDivy1PWiOB6QR2LaZX/0iZvrEMgARIgARIgAQaEGDx3wAiTZDACgR2Lfo1uzfkoPNhnwRIgARIgARWI8Dif7UdYTwkkEngjQXzG3PK3FaKkwAJkAAJkEAXAiz+u2ClURLoT+ALBfIXcux/p9ADCZAACZAACfwRYPH/x4I9EtiCwBcL4i/mvMXNyCBJgARIgAS2I8Dif7stY8BfJIDiV9ovX1/P/8t7z9xJgARIgATaEGDx34YjrZBAcwIs+H2k4OKvcpYESIAESIAESCBGgMV/jA7XSGACARa3adDJKY0TpUiABEiABEhAE2Dxr2mwTwKTCKCQlZZXHgGwy9OiNAmQAAmQAAl8kwCL/2/uO7NehAAL13YbQZbtWNISCZAACZDAewmw+H/v3jKzhQmwUO23OWTbjy0tkwAJkAAJ7E+Axf/+e8gMNiLAwnTcZglrXiRAAiRAAiRAAlcCLP6vPDgigS4EWPR3wfpolNwfEVGABEiABEjgYwRY/H9sw5nuOAIoPPkn0OOYhzxxD0JkOE8CJEACJPA1Aiz+v7bjzLc7ART93R3RQRYB7ksWLgqTAAmQAAm8lACL/5duLNMaT4DF5XjmJR65TyXUqEMCJEACJPAWAiz+37KTzGMqASkoee1FgHu2134xWhIgARIggTYEWPy34UgrHyXAP0Xee+O5f3vvH6MnARIgARLIJ8DiP58ZNUjgIMA/OX7HjcB9fMc+MgsSIAESIIE0Aiz+0zhRigQuBFgwXnBsP+B+br+FTIAESIAESCCRAIv/RFAUIwEhIEUiC8V33gvc13fuK7MiARIgARK4EmDxf+XBEQkECbA4DKJ5zQL3+DVbyURIgARIgAQCBFj8B8BwmgQ0ARaFmsa7+9zrd+8vsyMBEiCBrxNg8f/1O4D5PxJgMfiI6HUC3PPXbSkTIgESIAES+BFg8c9bgQQCBKQAZBEYgPPyae77yzeY6ZEACZDAhwmw+P/w5jP1MAEWf2E2X1nhPfCVnWaeJEACJPAtAiz+v7XfzDaBAIu+BEgfEeG98JGNZpokQAIk8CECLP4/tNlM9ZkAi71nRl+T4D3xtR1nviRAAiTwbgIs/t+9v8wugwCLvAxYHxPlvfGxDWe6JEACJPBiAiz+X7y5TC2dAIu7dFZfleQ98tWdZ94kQAIk8C4CLP7ftZ/MpoDArkXd//P//n8F2VKlhsCu90pNztQlARIgARJ4FwEW/+/aT2aTSWDnYo7Ff+ZmNxLf+Z5phIBmSIAESIAENibA4n/jzWPodQR2L+JY/Nftf4223Du73z81+VOXBEiABEhgXwIs/vfdO0ZeSWD34o3Ff+UN0EB993uoAQKaIAESIAES2IwAi//NNozhtiHwhqKNxX+be6HWyhvupVoG1CcBEiABEtiHAIv/ffaKkTYi8KZijR8AjW6KCjNvup8qMFCVBEiABEhgEwIs/jfZKIbZhsDbCjUW/23ui1orb7uvanlQnwRIgARIYF0CLP7X3RtG1pjAGws0Fv+Nb5IKc2+8vypwUJUESIAESGBRAiz+F90YhtWWwFsLMxb/be+TGmtvvcdqmFCXBEiABEhgPQIs/tfbE0bUmMCbizIW/41vlkJzco+9+T4rxEI1EiABEiCBBQmw+F9wUxhSOwJvL8hY/Le7V0ossegvoUYdEiABEiCBmQRY/M+kT99dCby98Bd4LP673kJJxr9wnyWBoBAJkAAJkMAWBFj8b7FNDDKXwFcKMhb/uXdGH/mv3G996NEqCZAACZDASAIs/kfSpq8hBL5UiLH4H3JLPTr50j33CIMCJEACJEACSxNg8b/09jC4XAJfLML4AZB7l/SR/+K914ckrZIACZAACfQkwOK/J13aHkrgq8UXi/+ht1nQ2VfvvyAQLpAACZAACSxJgMX/ktvCoHIJfLnwYvGfe7f0k//yfdiPKi2TAAmQAAm0JMDivyVN2ppC4OsFF4v/Kbdd0OnX78cgGC6QAAmQAAksQYDF/xLbwCBKCEiRxUKL/7nPknunpw7vyZ50aZsESIAESKCWAIv/WoLUn0KABdYfdv7J/x+LVXq8P1fZCcZBAiRAAiRgCbD4t0Q4Xp4AC6vrFknxzw+AK5MVRrxPV9gFxkACJEACJGAJsPi3RDhemgALKn97WPz7XGbP8n6dvQP0TwIkQAIkYAmw+LdEOF6WAAup8Naw+A+zmb3C+3b2DtA/CZAACZCAJsDiX9Ngf1kCLKDiW8PiP85n9irv39k7QP8kQAIkQAIgwOIfJNguS4CF0/PWSPHPD4BnTjMleB/PpE/fJEACJEACIMDiHyTYLkmABVP6trD4T2c1S5L38yzy9EsCJEACJAACLP5Bgu1yBFgo5W0Ji/88XrOk5b7mvT2LPv2SAAmQAAmw+Oc9sCQBFkdl28IPgDJuM7TwEcB7fQZ9+iQBEiCB7xJg8f/dvV82cxZDdVvDD4A6fjO0+SEwgzp9kgAJkMA3CbD4/+a+L5k1CqAlg9soKBb/G22WEyqfAwcKp0iABEiABJoRYPHfDCUN1RDgn/bX0Lvr8gPgzmS3GX4E7LZjjJcESIAE9iDA4n+PfXp1lCz8+2wvPwD6cB1tlR8Bo4nTHwmQAAm8mwCL/3fv7xbZobhBu0XQmwTJD4BNNiohTDwfaBNUKEICJEACJEACNwIs/m9IODGbAIobr50d227+pfjnB8Buu5YWr/d8eHNp1ihFAiRAAiTwFQIs/r+y0y/J0xY3L0mraxos/rviXd44n5nlt4gBkgAJkMBQAiz+h+Kms9YEUNi0tvs2e/wAeNuOlueDZybWllunJgmQAAmQwOoEWPyvvkOML4mAFDK84gT4ARDnw9U/Avgw+JthjwRIgARI4C0EWPy/ZSeZx7/8AHi+CfgB8MyIEn8E+Ez9sWCPBEiABN5CgMX/W3aSeRwEWKw83wj8AHhmRIk/AvxbgD8W7JEACZDAGwiw+H/DLjKHCwF+AFxw3AYs/m9IOJFAgM9VAiSKkAAJkMAGBFj8b7BJDDGfAAuVODN+AMT5cNUnwL8F8LlwlgRIgAR2IsDif6fdYqxZBPgBEMfFD4A4H66GCfAjIMyGKyRAAiSwOgEW/6vvEOOrIsAPgDg+fgDE+XA1TgAfAWjj0lwlARIgARJYgQCL/xV2gTF0JcAPgDhefgDE+XA1nQA+AvjMpTOjJAmQAAmMJsDifzRx+ptCgMVIHDs/AOJ8uJpPAB8C+ZrUIAESIAES6EmAxX9PurS9FAF+AIS3g8V/mA1X6gjgIwBtnTVqkwAJkAAJ1BJg8V9LkPpbEeAHQHi7+AEQZsOVdgT4EdCOJS2RAAmQQAkBFv8l1KizNQF+AIS3jx8AYTZcaUeAz2A7lrREAiRAArkEWPznEqP8Kwiw+AhvIz8Awmy40o4A/wagHUtaIgESIIEcAiz+c2hR9lUE+AEQ3k5+AITZcKUtAT6HbXnSGgmQAAk8EWDx/0SI668mwMLD314p/vkB4LPhbHsC/FuA9kxpkQRIgARCBFj8h8hw/jMEWHj4W83i3+fC2X4E+Cz2Y0vLJEACJAACLP5Bgu3nCfBvAe63AD8A7kw4058APwL6M6YHEiCB7xJg8f/dvWfmDgF+ANyh8APgzoQzYwjweRzDmV5IgAS+RYDF/7f2m9kmEGDBcYfED4A7E86MIcDncQxneiEBEvgOARb/39lrZppBgAXHHZZ8APAj4M6FM/0JyPPIZ7I/Z3ogARL4BgEW/9/YZ2ZZQIDFxh0aPwDuTDgzjgCfyXGs6YkESOC9BFj8v3dvmVkDAiw2fIj8CPC5cLY/AXkm+Vz250wPJEAC7yXA4v+9e8vMGhFgoREGyY+AMBuu9CXAj4C+fGmdBEjgvQRY/L93b5lZQwL8AIjD5L8LEOfD1X4E+BHQjy0tkwAJvJMAi/937iuz6kCAHwDPUPk3Ac+MKNGHAD8C+nClVRIggfcRYPH/vj1lRh0J8AMgDS4/AtI4Uao9AXwE8Fltz5YWSYAE3kGAxf879pFZDCTAoiIdNj8C0llRsj0B/SHA57Y9X1okARLYkwCL/z33jVFPJsBCIm8D+BGQx4vSfQjgY8CzjjU+2x4dzpEACbyJAIv/N+0mcxlKgEVCPm5+BOQzo0Z7Aij0Ydk+y1hHCzm2JEACJPAGAiz+37CLzGEaAVs0TAtkM8f4CJCWFwnMIoDi/uk5htysOOmXBEiABFoSYPHfkiZtfZLAU+HwSSgZSfNDIAMWRacSwEcAn/mp20DnJEAClQRY/FcCpDoJCAEWA23uA34ItOFIK/0J4EOgvyd6IAESIIG2BFj8t+VJax8mwA+AdpuvPwL4jwa140pL7QngI4DPf3u2tEgCJNCHAIv/Plxp9aMEWAD02Xh8DPSxTqsk0IaA/hB46rfxSCskQAIkkE+AxX8+M2qQQJQAPwCieKoW+RFQhY/KCxHQHwcLhcVQSIAEPkCAxf8HNpkpjifAD4C+zPkR0JcvrY8lwA+BsbzpjQS+ToDF/9fvAObfjQA/ALqhPQ3zI+BEwc5LCPBD4CUbyTRIYGECLP4X3hyGtj8BvMj3z2TtDPgRsPb+MLoyAjg/+AcJZfyoRQIk4BNg8e9z4SwJNCXAl3dTnEFj8hHAiwTeSIAfAm/cVeZEAnMIsPifw51eP0iAHwBjNp0fAGM408s8AvwQmMeenkngDQRY/L9hF5nDNgT4ATBmq/gBMIYzvcwnwA+B+XvACEhgNwIs/nfbMca7PQF+APTfQhb//RnTw3oE+CGw3p4wIhJYkQCL/xV3hTG9ngA/APpvMT8A+jOmh3UJ8ENg3b1hZCQwmwCL/9k7QP+fJcAPgP5bzw+A/ozpYX0C/BBYf48YIQmMJMDifyRt+iIBQ4AfAAZI46EU//wAaAyV5rYmwA+BrbePwZNAEwIs/ptgpBESKCfAD4Bydima/ABIoUSZLxLQHwI8h754BzDnrxJg8f/VnWfeSxHgi7f/dvBvAPozpoe9CeiPgb0zYfQkQAIxAiz+Y3S4RgIDCfADoD9s/i1Af8b08A4C+kOAZ9M79pRZkAAIsPgHCbYksAABvmTHbAI/AsZwppf3EODHwHv2kpmQAIt/3gMksBgBfgCM2xB+BIxjTU/vImA/BnhuvWt/mc27CbD4f/f+MrtNCfBFOnbj+BEwlje9vZMAPwjeua/M6n0EWPy/b0+Z0UsI8ANg/EbyI2A8c3p8NwF+ELx7f5ndngRY/O+5b4z6IwT4ATBno/kRMIc7vX6DgP0g+EbWzJIE1iHA4n+dvWAkJOAS4AeAi2XIJD8ChmCmk48TsB8DPPM+fkMw/e4EWPx3R0wHJFBPgC/DeoY1FvgRUEOPuiSQT4AfBPnMqEECqQRY/KeSohwJTCbAD4DJG/Dvv//yI2D+HjCC7xLgB8F3956ZtyXA4r8tT1ojga4E+AHQFW+ycX4EJKOiIAl0JWA/CLo6o3ESeAkBFv8v2Uim8R0C/ABYZ6/5EbDOXjASEhAC9mOA5yXvCxK4E2Dxf2fCGRJYngBecMsH+pEA+RHwkY1mmlsSwHmp2y0TYdAk0IgAi/9GIGmGBGYQ4J9qzaAe9smPgDAbrpDASgT0hwDP0ZV2hrGMIMDifwRl+iCBjgT44uoIt9A0PwIKwVGNBCYRsB8DPFcnbQTdDiHA4n8IZjohgb4E+KLqyzfXuhT/cuEjAONcO5QnARKYR4AfBPPY03NfAiz++/KldRIYRoAfAMNQPzqyxT4/Ah6RUYAEtiBgPwi2CJpBkoAhwOLfAOGQBHYmwA+A+buHQj8UydN6SI/zJEAC6xHgx8B6e8KIngmw+H9mRAkS2IoAPwDmbpf9U/9QNPgISJUP2eE8CZDAOgTsxwDP43X2hpH8EWDx/8eCPRJ4DQG+cOZtZUkxjw+BeVHTMwmQQC8C9oOglx/aJYFUAiz+U0lRjgQ2I8APgDkbVlL8I1J8BNTYgC22JEACaxKwHwM8q9fcpzdHxeL/zbvL3D5PgC+V8bdAi8KdHwHj940eSWAmAftBMDMW+n4/ARb/799jZvhxAvwAGHsDtCj+dcT4ENBz7JMACbybgP0Y4Dn+7v0enR2L/9HE6Y8EJhDgi2MM9J6FOmy3/rgYQ4ZeSIAEagnYD4Jae9T/LgEW/9/de2b+MQL8AGiz4boI9/ptvMStwG9ciqskQAJvJmA/BnjGv3m32+bG4r8tT1ojgaUJ8OXQd3tG/6k8PwL67ietk8BuBOwHwW7xM94xBFj8j+FMLySwDAF+APTbitHFv2SCD4AZvvuRpGUSIIEWBOzHAM//FlT3t8Hif/89ZAYkkE2AL4BsZEkKMwtwfAQkBUohEiCBzxKwHwSfBfHhxFn8f3jzmfq3CfADoO3+r1J8rxJHW7q0RgIk0IuA/Rjgu6EX6XXssvhfZy8YCQkMJ8BDvh3ymX/q72XBjwCPCudIgARSCNgPghQdyuxDgMX/PnvFSEmgCwF+ALTBulrxj6z4EQASbEmABEoJ2I8BvjdKSa6hx+J/jX1gFCQwlQAP8nr8KLJ1W2+1nQXE1c4iLZEACXyZgP0g+DKL3XJn8b/bjjFeEuhEgB8A5WClsPauFQvuFWPy2HGOBEhgLwL2Y4DvlHX3j8X/unvDyEhgOAEc3sMdb+4wVPwjrRUL7hVjAi+2JEAC7yCAdwrad2S1fxYs/vffQ2ZAAs0J8E9s8pA+Ff+wtmLBvWJM4MWWBEjgXQTwEaDbd2W4RzYs/vfYJ0ZJAsMJ8AMgDXlq4a+trVhwI6aSfHRu7JMACZBADgF+COTQaiPL4r8NR1ohgVcS4AfA87aWFssotp89jJdYObbxNOiRBEhgBAG+b0ZQ/s8Hi/9xrOmJBLYkwAO577atXGivHFvfXaF1EiCB0QT4rhlHnMX/ONb0RALbEuCh3H/rVi60V46t/87QAwmQwAgCfM+MoPyfDxb/41jTEwlsTUAOZh7O/bdw5UJ75dj67ww9kAAJ9CTA90tPulfbLP6vPDgiARJ4IMAD+gFQg2UU2dKueCG+FWNjTCRAAnsS4Ltl3L6x+B/Hmp5I4DUEeEiP2crVi2zEt+pHyphdohcSIIFWBPhuaUUybofFf5wPV0mABAIEeEgHwHSYRpHdwXQTk4iPHwFNcNIICXyWAN8rY7aexf8YzvRCAq8kIAc1D+txW4sie5zHfE+IkR8C+eyoQQJfJ8D3yZg7gMX/GM70QgKvJsADe+z27lJg7xLn2N2jNxIggRABvktCZNrOs/hvy5PWSOCzBHhoj996XVyv/CftOs7xlOiRBEhgFwJ8j4zZKRb/YzjTCwl8ggAP7nnbrAtsfgjM2wd6JgESKCfAd0g5uxxNFv85tChLAiTwSEAObx7gj5i6CvBDoCteGicBEuhEgO+OTmCNWRb/BgiHJEACbQjwEG/DsdaK/hCotdVTH3H29EHbJEAC6xPgu6P/HrH478+YHkjgswR4iK+z9SiudbtOdH+RIL6/GfZIgAS+RIDvjf67zeK/P2N6IIFPE+BBvtb2S3GNS/cxt0rLj4BVdoJxkMBYAnxn9OfN4r8/Y3oggc8TkMP8DQc68mjRzrwpVi76LRd+BFgiHJPAuwm84V2x+g6x+F99hxgfCbyIwK6HOor9llsBm7syackixdZOHywp+VCGBEjAJ8Az0efScpbFf0uatEUCJPBIYLeDfUS84mOEn8fNWVyAfwuw+AYxPBJoQIBnYQOIDyZY/D8A4jIJkEB7AjsUuzNinOGz/e72t8iPgP6M6YEEZhFg8d+fPIv//ozpgQRIIEBg1UN+dlz4CJgdR2DblpnmR8AyW8FASKApAZ59TXHejLH4vyHhBAmQwEgCKx7yK8UksawUz8h7I9UXPgKk5UUCJLA/AZ55ffeQxX9fvrROAiSQQGClg36lWDQ6iWvV2HScM/v6IwD9mfHQNwmQQBkBnnVl3FK1WPynkqIcCZBAVwIrFLc7vHDAaYdYu94wCcbxAaDbBDWKkAAJTCbA863vBrD478uX1kmABDIJzDr0Z/nNxHMRl5h3jPuSxOCB/hCQPi8SIIH1CPBc67snLP778qV1EiCBAgIzDv4ZPgvQuCoS+87xu0kNmsTHwCB3dEMCJJBAgOdZAqQKERb/FfCoSgIk0I/AyMN/pK9+xP49PgAkl7fk05OVtY2PAP5tgCXDMQmMJ8AzrC9zFv99+dI6CZBABYERhexbXzJvzavidkpWxYdAsgIFSYAEmhPgGdYc6WmQxf+Jgh0SIIFVCfR8CfS0PZun5Pbm/HrzxUcA/zagN2naJ4E7AZ5ddyatZlj8tyJJOyRAAl0J9HgR9LDZFUKhccnzK7kWInpUw4fAoyAFSIAEmhDgmdUEo2uExb+LhZMkQAIrEmhZxH7xxdKS34r3x4iY8BHAvw0YQZs+vkzgi2f0qP1m8T+KNP2QAAk0I1D7UqjVb5bIJENfz78Vdv0hwI+BVlRphwT+I8Bzqt+dwOK/H1taJgES6EhAXgylL4dSvY7pDDddw69XsDsX0PZDYOdceu0v7ZJADgGe0zm08mRZ/OfxojQJkMBiBHJfELnyi6XbPJzVPgLeUjTzY6D5rUqDHyTA87rPprP478OVVkmABAYSSC1g+SIJb0oqw7CFdiu6cG5ndb4lnddbPnLmU2UEbybAM7vP7rL478OVVkmABCYQeHpRPK1PCHk5l6t+BKBwXg5YRUDICW2FKaqSwCsJ8Mzus60s/vtwpVUSIIFJBELFK18ieRuyIi8UybrNy2ptaZ2X9HmRwNcJrHgOvWFPWPy/YReZAwmQwI2Afmno/k2QE0ECwm1ldrZYflvBbPMLbhQXSOClBFY+f3ZGzuJ/591j7CRAAlECqxev0eAXWtyJIwrmhfA1CwW5oW1mmIZIYFECLP77bAyL/z5caZUESGARAnx5tNuI3T4C2mW+piV8BKBdM0pGRQLlBHh+l7OLabL4j9HhGgmQAAmQwI3ALi/krxXFyBftbeM4QQIbEtjlvNkJLYv/nXaLsZIACZDAIgR2+1sAKYi/duEj4Iu5f22v35wvi//2u8vivz1TWiQBEiCBzxDgR8AeW60/BPgxsMeeMcr/CLD4b38nsPhvz5QWSYAESOBzBPgRsNeW82Ngr/36crQs/tvvPov/9kxpkQRIgAQ+S4AfAfttPT8E9tuzL0XM4r/9brP4b8+UFkmABEjg8wR2emGj+P38pv0AgAdaciGBmQR2OktmcsrxzeI/hxZlSYAESIAEkgns9LcAkhSLXX9rwUVaXiQwmgCL//bEWfy3Z0qLJEACJEACigA/AhSMzbv8ENh8AzcNnx8AbTeOxX9bnrRGAiRAAiQQIMCPgACYTaf5IbDpxm0YNov/tpvG4r8tT1ojARIgARJ4IMCPgAdAmy3zI2CzDdswXBb/bTeNxX9bnrRGAiRAAiSQSGCnFzoK3MTUPitGTp/d+q6J73RWdAXRyDiL/0YgaYYESIAESCCfAP8WIJ/ZDhr4CJCWFwnUEmDxX0vwqs/i/8qDIxIgARIggQkE8BGww0sehe0ETFu6JK8tt22poHc4F5YC9hAMi/8HQFwmARIgARIYSwAfAmO95nurKWqhq9v8CPbS+FKue+3MHtHyA6DdPrH4b8eSlkiABEiABBoSwEfA6i99XdRK3152HWMthzm0eu1tfeQoLS8SSCWw+jmQmscKciz+V9gFxkACJEACJBAlgA+BqNACi7qwRb8kLOi+vUBGniWMqPMtAiz+2+03i/92LGmJBEiABEigMwF8BHypEECB/OYPgS/k2PnR+IT5Lz33PTeUxX9PurRNAiRAAiTQjQA+BLo5WNDwF4pk5LggfoY0mQCL/zYbwOK/DUdaIQESIAESmEQAHwFfKwxQJEv7xuvt+b1xz3rn9LVnvBdPFv+9yNIuCZAACZDAcAL4EBjueKLDtxfJb89v4q2znWsW/222jMV/G460QgIkQAIksBABfAR8rVjQhbL033Yhv7flxXzSCXztmU4nky7J4j+dFSVJgARIgAQ2JIAPgQ1DrwoZhXKsrXIwURk5TQyBricRYPFfD57Ffz1DWiABEiABEtiAAD4CWDz8bdbuRfTu8f/tBHupBPj8ppIKy7H4D7PhCgmQwGQCPOQnb8CL3eND4MUpZqW2exG9e/xZm0Xhf/luqLsJWPzX8aM2CZBABwK6MEMfbQd3NPlhArivpOX17787F9GIXVpe7ybA57Vuf1n81/GjNgmQQEMCKMRiJiGDNibLNRLIIcB76o8WCum/mb16u8e/F+3x0cqzyqucAIv/cnbUJAESaESgpuiCLl8GjTaDZo5/pAD31Zdx7F5AI35peb2LAM/7uv1k8V/Hj9ok8HkCKJLQaiCYCx3UWNc6Nf3W9mpioe47COCeCt3D78gyngWK6LjUuquInx8B6+5RbmRffh5zWXnyLP49KpwjARJIJqAP4dS+yGnZZGeJgrDf00diKBR7EYGv31coonfd0t3j35V7j7h5ttdRZfFfx4/aJPBZAiiELADM68MZfbRWp+cY8fT0QdvfI4D7SrFiw8oAACAASURBVLdfobB7Eb17/F+5z2J5zniXxOLZbY3F/247xnhJYAECKQevlkEf7YwUxPdM/zNyps+xBHCP2XZsFGO8vaGAfkMOY3Z7TS88z8v3hcV/OTtqksBnCeQeuroYmg0NscyOg/6/QwD3nG3fQOANBfQbcnjDvZSbgzxPvMoIsPgv40YtEvg0ARy6eGlKu9uFQmy3uBnvewjgHrTtjhniLNgxdsSMHHY8z5DDl1q8h76Uc6tcWfy3Ikk7JPAhArpYkbR3flnaXD60jUx1UQL6nkR/0VBvYaGAvi1sNvGWPDbDnhWuPBu8ygiw+C/jRi0SGEpgpUPOFiOIbecPAGymzQ3zbK8EwCnWXjU4qiXgsa612VP/DcUzcnjD2dZzr2fZlmeCVxkBFv9l3KhFAl0JrPyi9w5cmXvTCxL8u27ypsa9/fdSAUOv9eQ5l0/Ass230F8DBXR/T/08vCGHfnTmWU49i+ZFuK5nFv/r7g0j+zgBfbDpfg8stoiAv9B8KIY3fQBIjsg/lO/X5nFf1OYNrl5ba/vL+uC5IoM3FNBvyGHFe6M0plbnUan/nfVY/O+8e4z91QTswWbHLZP3bHtzMZ8i/7biH/lKbrk8oPuWdlT+YD3K31v2R+exMsM3FNBvyEHfLzv2eT7U7RqL/zp+1CaB5gTw4vYM1xx4nm7Ml+f/ae6txT/ybs0Ldndovfund9zgjba3vzfaX5HdW4rnt593Kz8PM86jlXnkxsbiP5cY5UmgI4GnA+1pPRQa9NCKHPotX2Bis6W9UD4z58FtZgwzfK+Qt8SwQhwz+Nf6BLuV+L3lI6B2b6ifT2Cl+zg/+vkaLP7n7wEjIIGTwNOBFlsPrcm8XrPj1sW62G9t8wS0QEezXCCcoSGskvsqcQyF39CZ8FuJIT8CGm7uR0ytdP/uiJzF/467xphfSSDlMIMMWoCQsZ2TNW8OOrptWazDZ0ubOtaZfeQ2M4aZvlfKf6VYZu5JjW9hiF+NnRa6/ABoQfEbNvjs1+8zi/96hrRAAs0IpBxq3ss6NJcaWOtCHfG0tpuaTy+5lP3p5XsVu9jb2fFwL9ruwCr7yo+Atvv6Rmt89ut3lcV/PUNaIIFHAqmHVYqclpE+xrrV84/Bdfw/9Eocb/oAyOWawn5XGdxvM+O3MWB/ctqZ8a/oW7ObGd+bzo2ZHN/o2z73b8yxd04s/nsTpv1PE8CLVCCEDizIoE0B5sl6cym2RKbXi1ZieuOf5NWwTt2THeRmcxD/+rJjvRbqIwe0Ibkvzs9m8saz44v3UeucS57z1jHsbo/F/+47yPiXJGBfmhiH2tlJ9Cr+JS/Juaf9mewkN17/7fEMFtanHZfsjdhoYafE96o6s5nwI2DVO2N8XHw22zBn8d+GI62QwElg18OpR4GuWfSwf0Kf2JldGE1M/eZ6Bgt9j+n+LbjMiRm5ZIY4XBxMWnLOSYIfATm03ic76757H8l//2Xx/8ZdZU7TCOx8OLUszlEk6I1oaV/bXaW/8963Zujtf2sfsGe52zHkStuRuZTGOENvFhd8AHjtDA70OY5A62d7XOTreWLxv96eMKJNCex+MLUuzj0erX2sdqvMKohW44B4RvDw7jNvDjGVtj1slsaykh72eDYffAysxIaxtCMw+/5ql8kallj8r7EPjGJTAvrFt/vh1OPlqfnIFr+9+MdtvPu9gDxatb15ePa9udp8etisjWklfeFDRivtyDti4T3Vfh9Z/LdnSosfIPDWl1yv4hyHdy/7K95yyHnF2GbE1POZCbEOzdfk3zOPmrhW0gWjHvxXypOx9CfAe6gPYxb/fbjS6osJvPkwal2cowjA7dDaPuyu2tr8V41zZFy9mISey9B8bc697NbGtZp+r/1eLU/G054An7H2TGGRxT9IsCWBBAJvP4xaF+eWV2v7CVu2hIjlsERQk4PowSRkMzRfi6CX3dq4VtQXVuS14s6sGRPvl777wuK/L19afwmBrxxErYtz+7JvbX+n28uy2Cn2XrH2YBKyKfOhtZr8etisiWd1XewDua2+U3Piw/0xx/t3vLL4/85eM9NCAl96SbUuzi271vYLt3SaGl9sd/T2HrlL5M082Xtaz/P2nzT3tYTavP85XFm01OpJgM9QT7p32yz+70w4QwIXAj2KhYuDhQZSnLcu0DW/1rYXQpcVimaSpfhS4dYv/ie+rf1hW578Qo7tlQD2g/yuXL4wwt5/IdeVcmTxv9JuMJYlCXzthdS6QNeHe2vbS94wiUF97b5KwdKSSYotfW+mxJcik+I3xc5XZbAn5PjuOwD7/O4s182Oxf+6e8PIFiHwtZdQ6wJd85N+a/uL3CZFYfAFeMem75f7at5MKt+WPiXC1vbysn6PdOr+vSfj92fCPV1jj1n8r7EPjGJhAl97kfcozoWh2MVv4e2eEtrX7rEnyK15iD38Qr6f1kN6ofnWOYT8fGEee0Om++429nDfDN4VOYv/d+0ns2lI4KuHVYviH0W+brE1wrWFD9h7S/vV+y20f8KjxwXOaK2P0LyVexr3iv/J79vXsT/ku/5Oc6/W3SMW/+vuDSObQICH1b/Zhbku8NGPbR1e2vwA8CnhHvRXvzWLe6Vn1uCtW/GHcY3vEfHXxLe7LvaInNfaSezLWlExGk2Axb+mwf4rCeAgSmlfCSAzKVuUo6APtZnmD3HZC9gr0f+CjjDiNeefn/fOipK94B6WUCvT0XtWZoFatQSwB7V2qN+fAIv//ozpYQIBHEJ8+ebBR0Fu2zwrcWm9J+KHV5iAZhWWev/KTA7i2/5SiM+MOSW+N8tgv96c4yq5gTXv91V2JC0OFv9pnCi1CQEcRJuEOz1Mr8jHXM/g9IuCHwBx0ryn/+Oj75k4sX6r2IuUtl8UtJxKQO9Tqg7l0giAbZo0pVYjwOJ/tR1hPEUEeBClY0Nxj9bT7F2Qy37h6u0LfnZvNbPdcymNfyUGOHNWiqmU6xf0uF9tdhkc21ijlVkEWPzPIk+/TQnwBRzHiUIfbVw6/1/6fbJn1+1+8QPAEvLHfPHO+XcA/N34m8W+2Pv6T4K9lQhwv/J3A8zyNamxIgEW/yvuCmPKJsCX7h0ZCv2SwrpE5x5BfEa/TEb4i0ez1+rX73d976y2c4jt63u02r6E4uF+hcj8/ReveC+HGe26wuJ/151j3CcBHkwnivO/oNOimG5h4y+ycA8v31H+wpHstQJue0XdNtrVn33s0epxtt2Vfa1xv/7bO3DYdycZ+RMBFv9PhLi+BYGvvFylQI79Wm7WyGJc9m+kv5acZtv6yr0f4rxL/hInfqFcOL8OAezVLvdXC3LIuYUt2libAIv/tfeH0SUSePOhZYt9jaR3wdzb/shctK+39d98/6fs1W75I160KTlSZh4B7BPaeZH08fzWvPrQeodVFv/v2Edm8SPwpkMMRX9sc3sX573t69xk70b6077f0heGX752ff4R99f3b5d7V+/Xjnu2e/y73Ccrx8nif+XdYWzFBOzhhnGxwUGKKPhTi+BUudLwEU+pfo6e7FHvfHLi2VV2l3u9J9+dGSB2aXntQUDvme6vFP2qca3E6EuxsPj/0m5/PNeVX6alRfaIYnmED9yaI33B51tbvOzfml9KXrszQPwrn10p+/BVGb1/oX4PNp6vHn5oc18CLP733TtGnklgxRdoadGvU+9dMPe2j1xkf0b5gs8vtCve96O5oxga7belP+TA/WxJdb4tva+t+vOzYgSrE2Dxv/oOMb5mBHCwNjNYYahF0Q/3IwrmET5kf0b4AbcvtSvd+zO5v4UD8rDtTLb0TQIksA8BFv/77BUjzSSw2osRBX/rAre1PQ/zCB+yXyP8ePl9ZU4Y8/r7nxe9jYU98zB+W57MhwRIoI4Ai/86ftRelMBKRY4UtPj1wDWiYB7hQ9iM8tNrH3aIf6Vno8c+5Nj8SnGMPNHmMKIsCZDA+wiw+H/fnn4+o1WKGykERxWDvf30to+bdpQf+Gvd7hI/i8Drzn+NB/Jd5ay87gZHJEACvQmw+O9NmPa7E9AvshVeZlIAji4Ce/vrbR83ySg/8Ne63S3+FZ6X1ntQYw9nSY2N3XS/mPNue8R4SaA1ARb/rYnS3nACeHmtUMhI8TejAOzts7d9uWlk/0b4aX2DSsz219pHT3t4fnr62M32F5kgZ2l5kQAJvJsAi/937++nspv10tKF3yzgiKGXf7Hf88Le9fIDPiltLE9P38r3ysH6kXFLX9gDz89X54TJF7l8Ne+v3ufM+3sEWPx/b89fm/GslzQKwplge8fQssi0nLBvrXKAHd1an7Gx1vP6MV1ZE52RV0t/2IuR8e/g66vF8Ffz3uGeZIwkUEOAxX8NPeouRwAvq1FFDAovFIkzgSCWHjG4tv/5599/G/4OHwX2wB5ty5hKbJXmUeILOjN8wjfbwHPQ40GcZBPn6iT3dEsCJNCYAIv/xkBpbg0CvYv/s9BU6R4FmBqP7HrxtPTv5iaFesPL9RGx3zvniOvHpdxcHg0mCMzwmRDWN0UaPxurQORHwCo7wThIoI5A27d3XSzUJoGmBHq8qJ4KzlkF2FNctWDdvBoXOKk5pMrV5lyj7/KqMZioO8tvYnjfEWv8bKwGDmcr2tXiYzwkQAJxAiz+43y4+gIC8oJqcaUWnTMKsNTYSjm4OXUocFw/v6B751jKxtOL5eHJ585p++Ci21x7lG9MoMOz0TjCpubwEYC2qXEaIwESaE6AxX9zpDS4CoFWLyIUVTl56eIsR69Utrc/l0GnAsf6suNSRiP1esUMu7r18pJ1XhMJdHo2JmaU5Rpnr7S8SIAE1iPA4n+9PWFElQTw4qk0c/6320vtjCzAevtCsXlh0bHAgb/eeV3yaTyoiV3nr/s5Idb4z/FDWYdAx2fD8bb0FD8Alt4eBvdRAiz+P7rxb0+79oXTonBC0TaCdYt4Y3G6uXQscOBPt7H4VlzL2ROdJ/otcsqJoYU/2vgR+Oef4/8PUHsOvYVnqz+QeQsP5kECswmw+J+9A/TflEDtS6Zl4SWJjSq+evtxuXQo/l0/P469c2x6I0b2HjnqtrVv2NuNGeLevlXPRu2ZtD0LlQBZKBjsksBEAiz+J8Kn67YE5MVSc/UqlHrZ1blO8aEKHB1Lbl9ix+9Jd0SeTzGkrutYkZ+eS7VTIzfaX02sr9J1ng0Wvn87XHtW/1lijwRIoIQAi/8SatRZkkDNy7V3kbS7fdnwWw6/AkfmU3+4caw85lPaWxwpSpNkVoh1hRgm4Z/n1in+EUzNOQUbb2jJ4Q27yBx2JcDif9edY9wXAniRoL0sPgxGFUc9/fS0DXziw/th/anVuiJbE3ON7lOcLddXiHOFGFoy3cJWpPhH/HJW8fr3+HcjyIEESGAsARb/Y3nTW0cCJS/TkYVRT1+9bItd+zu3MKHAOWUbd3rl2zjMqg+cVrFg/1rZo50EAonPRskfViR4306k5OzeLkkGTAILEWDxv9BmMJRyAiUv0RkFZAufKOZsW07vqqntXlfMn9YnFjjWRqtxC5atYgnZ6RGjYE9FD/9oQ3FyvjGB1A36uS05vxpHPN0cGUzfAgbwIQIs/j+02W9MtfSFMasYqvUb05e12Hpo/6GHNiQn8xf7mQVOzG7J2iWWEgODdIrjRJWvOOspNX3JJLSPxXFcrHOQRCC0OQ/KpefZg9mtlslgq+1isJsSYPG/6cYx7D8C8rLIuWYXQaX+U/VS5ERG/4r4FRY4Ob6eZFNyfbLRe70oRlvl/1jbaR079lPP6X5RHNoA++kEKp8NFsD//bsAuWd7+gZRkgS+TYDF/7f3/zXZp74kViiASmPI0bOyMta/mo0/bVcWODUxQPeMBRMLtkUx2ir/x9pOI91UH6lysMu2kECjZ4MfAfwXggvvQKqRQJQAi/8oHi7uRODpA2Clwic3lhJ50cGv5T6esTQqcGpiO2OpMTJANztOW+Ur1liSsEv2NzuWAXxe50LtV4vcvv4R8HS2t2BMGyTwJQIs/r+02y/PNfaCWK3gyY0nR15k8eu15Uc8jQucklh751kSk6dz8PIWYnOo8h3ONXkXxRKLk2t3As6e3YXyZ2JnXL61vTS+nPteO8VodyDA4n+HXWKMFwLyEvB+FyE1WLXYSY0rR07L6r7C0aR72O5U4OQEKHH0zDMnlphsqxhb5dsqnljOn17r+Gzg7PsiX34AfHHXmXMPAiz+e1ClzW4Ecg7/VoVSr2RS43sq1EJ2nvRq8jpsdyxwUmJDfmhTdGbJ1MYo+rU2dO6t7Wnb7P+b/t9irYD11Y+AnHdABV6qksCrCbD4f/X2viu5nJfdLsVNSkEXkyldK70zwBVtqZ3WejEOrX2V2iuJsSfnknhKc/+c3sAP45xz8S37kPIBAC6l7VtYMQ8S8Aiw+PeocG4JAvbQTgmqZ7GU4r9EJlaEhdZS8gzppsYIH7rVurX2ta3aPmKstdNTP5fXiJxyY+rJ51W2Bxb/4IbzEuO3t5Jv6IqthXTsPHi2sGVtc0wCswmw+J+9A/R/ENAHLfo5aEYUSjnx5MiGCjAvJ28u5Ctk18rDpm2tnB2n2rd6vcarxWPzTI0P+2D1e4xTY+rhW9tcJQ4dU1V/QvGPeEvOT+ju1oYK89B8aX5fYlrKiHp7EWDxv9d+vS5ae6jmHtojC6We8G3xY8fi25sLxRTignndhmw8zv/zT1ZMj/YaCOQwauAuywSYe0pYmxG/9jkjDu3fY7Pl3MTiH7zs2Yr5t7Whd0ZoviZ/MPXaGrvUJYHRBFj8jyZOfwcBHJ6lOFCklOqvpqcLIN1HnN4c1nRruWCMVstW9xcs/iWnVFbV+RcYsLFhX+x8geliFR3D6DhG+yuGlKu4QPGPkHsUwbC9Suvl6M31jBfvNN329EfbJFBDgMV/DT3qFhMoPZhRqBQ7XlgxVAiF5m0qIbnQvNXPHi9a/Ese3XLOhvSnIDHZ39/q+N7sWFbco2a7sFDxLzmhIG2W32KGQu+T0Pyo8N/OfRRH+mlPgMV/e6a0mEgAB2PKAa0LlUTz24khRx340gXSwsW/MFyFnd7X2TEhFrS410bHNdof8hzWLlb8I2+cuRi/qfXeI97cjJzBfZV4ZjCgz7UIsPhfaz8+Gc3TgYhCpWXBAJurAUeOq8Z34bV48S+xgucl7kEDbw9lTupC/HqHghh06/mU9ZHXaH8jczt8LVr8gwOKUYzf0nrvEm9uZr5gv1pcM5nQ93gCLP7HM6dH9dfQOAg9KChY9FqLoqGFDR1T6/7q8Z35/or/leOdEZv4xO9k9eug6NetlakZw69ua+z10pX4nq4UmScb09YXL/7BJXb+Qma31iuqvbkV8gJ/tCvExBi+QYDF/zf2eWqWONhwAKMNBYXCJbYeWovNx4qJ2FrMZss15I22pe0utn4FzgrsYvmNii9l33TRj34s9pQ1+EWbojNTJmU/UmRm5vDoe5PiH3ngjMZ459Z7v3hzK+aIfdgl3hUZMqY0Aiz+0zhRqoIADrKngy21eMktDFLspshUIHhUtf5zc3x00EOAxf9B1e5dDDUKft3G5ENr8Ik2JJc7P+K+e/LxtJ6b0xT5zYp/MMIZjfGOLd43NvbQvJVbZYy92C3uVfgxjjgBFv9xPlxtQAAFylOb4yqlQIC/VLu58ql2n+RCuYTmn+wNW1cFzuqxtoxPbOlfLu+Swl/7Qz/Xb4q82O59Pfl4Wu8dXxP76tloYm+wERSeg902c+cVzN5cM4edDWE/ds6hMyKazyTA4j8TGMXLCPQ4tEJFUGg+NfKRxUfMV2wtNZeucqrAWT7Wyn/5V/LTvxvXzIo+hZf2B3m0N/8NJ558eHHluH+yL7ZSZHJ8DpdVz8Zw3w0douhsaHKIKe99480NCaaxk133pDEGmqskwOK/EiDV0wj0OnhRiEgUup8WVVhqRPGR4iNFJpxF5xVT4Cwdq7k/JNZYvFhHGyWpC3/0owrh4hb+0FozoXkrVzMWH94F33Zdz9t+yI43r+esD722Rd88G1vEHAmy1/kdcVm15MXrzVU5maws+eA3ORS635AAi/8NN23HkHsfvCg6WrLpWYCk2u6RVzNGpsBJzamZ/wdDYIdWxG2MWLPtg+nrMgp+3V4lbiMdR65vrXsz3GAC8WhT3pxeD/U9vdT4U+VCvqfOm2djaiyNnO9UaHrvG2+uEZrpZrA3b85xOuSXBcDi/2Ubumo6ow6l1gVDD3u5NnPlh90DToGzQqwSA34ei+Yx6qIffc/xbw6x6TYifltqHv/Nw99HEmJ0RLKmtJ3U+LVOlrMVhJ1nY4WwWsSAQrOFrV42vPeNN9fL/0y72J+v5DuT9c6+WfzvvHsbxT7yIEotLlLxtbJXU8y0iiE15yQ5p8CZFSfYpvhPkUnKXwuh6HeYQEzHKP0EFaje2i45/LzYOG/OKya07RQzT3lqe7F+iq+mMv/88/p/JANFZlNujYx57xtvrpG7Zc2svEfLQvtIYCz+P7LRs9McffA+FQ25PGrtoTDJ9Qv5Wv+w07QNFLojYwXXXJ+58qncdDxeH3Z04Y8+1lLaUfGnxFIq4/EpnXuKoRevoF/1bIw++4IxdVpYNT8vLm+uE5alzEre+C0VGIOZRoDF/zT033KMg8dre5BAEdHSdmkBUapnY29lx9otHqsCR9voHafYx0/7ze23iBNxeG0sHhT8uo3J2zX4s/MlY9jSrdiRMeIrsZurA/+enqzVXLX62b7Ns4FzL9vOJgor5icx2cubszJvH2OvyOLtOx3Pj8V/nA9XBxDodQi1fuHHipMQppYxtLQVijdr3hQ4WrdlrOCOVvup6Zfag55uc+MQXRTWEYxRs2Kj5grFj3kdn/QxX+OzVLdFrqW+i/QCm4rCq8jmBkq9zvKS1L1YvLkS22/Rwf1ILm/Z0fQ8WPyns6JkBwI4fDqY7lKs5BQhObKp+bey2cROoMCRXEL2Zb7kl8qnRA7xhHSxbtuQfMo8bKXIhmTERu4Fvym6tvgXXzn6ubE9yafEHLJRoxuyGZ2PPBui9+Ziq+eZHmXuLFrOduyofHYK+0ZG37gFWPx/Y5+XzbL3QdPjpZ9iM0WmZFPEbo3tWv1LzA8FDuKET4wvNtTgaV2J/tdV1elDKDdVb0LH6fU9ndI52C/Vh14KM/hKkYVdaUUeiPU8+rCLce82N34bT62+tRcdJ9yQKLaidjZe7H22p6CxMdhxio0vyuDeJK/37j6L//fu7RaZhQ6XlodPj5d+yKbMh9ZabUiufcSUq/cY70OB082vBIaqVLUP4TymA4GuccNJ5G9HlMhjN7SntTkcdhXbWCC1vmK27VooXyvnjRGnt9Z8LuNmxFnXPIYFDM7Ozb5f7HgBRMuHgD0ku+W3KitAFv9ZuCjcg4A+XNCHnxYHTk3BgDi81todWVxY36H4usYUKHDgMyVGL+6kOV2Y/vqBcJLMhYSQS2i9dr4FI9hArBiXxnboO3yf7LXyn+LnSSa0XssmZPc2X3Az2rPvZnPjiRbneEn61q8dl9j8ss6b79Gv7SuL/6/t+Gb5tjisW7/wdZED22hH4Y35Q3zdY1EFDnzauOy4aUyqQEW3qf2fMeTWy/ZhFwkopqn+Wsd37JmOB30vIKyZuFvHpF0f8emJzH6tfpI7wyNJ5yfU4szL8TdKdkZe1qcdj8r9bX6EI35vy+0r+bD4/8pOb5pni8O61cs+VNC0sp+7RdZvKL5cu8ny//zz+C+A2hiTbScKBmrPRO10sV55HHZ1Eug/hIa9Rvsgnrx8yROxSOtdeh19JYfYLjbVek23xmaNbnLMIWaJBt5aWLU4zxMRHmLWnx3n2KKsTwD3Ktn6fFadDZzqq4bLuL5GoMWBUvuyF33Php731nvvFfyj7e1P20/1OYOLjrNlv2UuqJWPGlEP0HcCB3MvDm/OMXGfMv6y7EDXa9V/GUicIvZ7AOUzWbEaN7m62fELkwYXCqsGppYx0eJMT03G+rLjVDuUSyOA+1W3aZqUGk2gzQk1Omr6+wyBVod16cs+pOfNe3O9Nkp84dfLh2f34jOhwLnIewYHz0k8NVetvvi2tfJtwnA9fFolTyY3MWMzOzejb/O4xd3hIyA75h+jHD2RzZE/XJj9yd0aK9/qHLR2Z41H5WP92PGs/L/kV5h7vy8xWDFXFv8r7gpjOgi0PKhTXt54ycdkIRPaophuSCdn3vM/yufNT2KBc9PLSbiDbE08NbpIxauZL4WzKpIPf54C5n5Gi+KCDbQIMKeFbmpbE68Tl+RdlPuPsWPyMlVsX3g0vlBANTY7xVzLsz2WgPVjxzFdrvUlgPvZtn290joItD+hYJktCTQggIOh1lSoQMDLPbQuflNkdHwxW1oup48YPJ2e/qK2EwucqA0voc5ztfHU6kt6ula+DH7/HsWBQAsF+tiCopiszRLu1gbGNkk9//MjMWNa2tKrKHf1XIf8it1S20diIcOV863OxMowqtUlj96X9WHHvf3Tfj4B3N+2zbdEjRiBiiM3ZpZrJNCOQIsDGy9y24ai1HIhmdh8qGjQdtEXO+iH2pgv6D/JPK1r30+yx3pixQa7STYHCEk8NVet/sW3rn5//QOrM3+plLVs4p9iX/xioOycfrH21NoYlfxpy8joebNUVS/jHmvZqnTyu0ei+Wo5GiiOcnRWkm1xrj/lY33Y8ZM+19chgPvdtutEuFckLP732q9PRtviwEZREAMIGWlbXNYO7FvboXkrFxuX2oCetNlXRoFTZD87oHSFmnhqdN0IVRWMrlfo2zmNvzQm0YNPtKEqHOuHXz349Y/5yN9qWD3HhIsndbKGQaqPZDnASFYoF2xxPpZ7r9PsHbu1b8d10VN7BQKyp95vhdhWjoHF/8q7w9gOArUHNooCadEHWszZeazXtLAJHzW2UnThLyaLWNDGZB/XMgqclNge/TUWqImpRjeUhi6GJIWSFAAAIABJREFUbxW5xxoKhX/yjxxgBq1X/GMNrRefrMkFGa/Vi+56CE7CvOSDnBLET5ESnVM51AGM0HrjeRQ/jc12N1d7tj8F6Nn35p7scH0/AngmvHa/bNpHzOK/PVNabEyg9LD2igHMoW0c6s1cl8Li5uVvwvOHXL21P82CXkaB09x3QbhWpSamGl0bhx6jID7mMPA46zX97wnAmFnHNNpL/P/8c9bkfx1I/tdac0dIahJd2MXYa08fyq/ItbjgP9dWqV7QT6uEgg78BRQ6/uqas6Xne0o2Iduh+RSblNmfAJ4Tr90/u7QMGh25ac4oRQK5BEoP6dDLXOZDa7mxpcqP9If8dJsaZ7ZcZoEzkkNKLjXx1OjGYsO+xWSONVNVX/TM2lls/4xeZOFI62BOt7ZQV3sPVbGL/q3937///vO/p78W0A7L+m5uCaZK9YKmFZ+gTMeF0nOzY0hB0z1jDdkOzQeD5MJnCMi90eO3GkAW/6vtCOO5EMg9pFNe4iIz+urpEznrdkh+mQVOTwYl+dbEU6P7FGuybVTYP4OnHuZta+WeArHr2p5ZE996GX0Rk6IfP1cIwtI2uE4OmbZK9Tw3LW159lPmUMCkyM6WyT3nU+ON2Y2tpdqnHAmkEsDz2KNNjUHLtTlttUX2SaARgdzDWV64KS/dVLlGaZxmUmI7hQMdxK5bK4o1O998nFmstci/JgfUmLCh4wGznBZ2Wrc6rqhtk9Cph3nTyrqeysn10MWf3pug4FfbRl8covBHewkCgmiN7ZIh4hmtK/7A9MixJIAOOig2OphuZjL3rM9xHLMdW8vxQVkSmEkAz3io9WJj8e9R4dx0ArmHcu4LP1e+FZBUvygibJsaR6qfVHuunBRsGdeQmALxoLZEW8oV5nvnIvYRq4tZL/7+mX89dVH+Leh13T9lkZzTonBHi/x1nKLm2YUO2ovQRcFxXDCF2ApUk/7wIGT34lfyWuxCYbBYWGc4uWf+qfjQebL7tP5gnssksDSB0P293gm1NEYGN4pA6IYN+b+8eENCv/kc2QdT2cviO+WXbdgoDMkxs8BB3ibUvGFisQhfaLUawq5hVKObkrCNV8d8+DYCZnjU17bI9mQwd8oGgkPhjlbEJA7ooz3UMfi1R4O/NTBrYqA1yxp7olv6u6CTPBe9cs/WkWn0iC3FZorMSA70RQItCXj397onVMvMaWs7At7NGkrCe1mHZGW+pjiI2Y2t2Rhjsq3WuudZUOCUxnS4cgrHHFZQFx3sR46+lS3NxdrxxohVtzd/WDR/4q6m//4oPiBzyqKD1gnqLPxVwQ5xtEeMGKgW3cMsBtI6zyP2RrdOOMEprde7Hwzil1twffKCnK85Z+yocHvElZJnD7+jmNEPCaQQsM8Bi/8UapSZQsDerKEg5AWvL/vC12vSt/J2/Wls7aeMrc3aGKw9b9zdR0GBUxITasXbHzPn+j8NrVn86/sIoer2yN9utBJQXSt1jrUM+i5XWdQXhHX7W8fUubeYMC3y09PQkRbz2m1JHzZLdEWnVv/wK8lscK1a9Kae/SmIc2zlyKb4pgwJrERA3997nFAr0WMsQwjomzTmMOVFLTJaTvdjtrEGfbSYr21z4yjx19VHYYGTG9NZFKKj21QoWkf9yXWquieXm4dnIzanQz4rY5nEpQXQx1qkPUxAPtZqG56cXtd9T/Y35y2Jqp3X5nL7tftSq3/EKwltdMl5m3rmjkqrVUy5eeXKj+JBPyRQS0Df23udULWZU38bAvomjQWd86IWWf17sgvZmFzNWk7sS/qpKHByc0dxWFwlwsCvzfUf4t/Kjmf/sG3iPvKHcGwNMrr9yUtz4/hkK7Su5x1f1o8WR1/yRB+tNpXb77knybFIIhteqefuyNQkppRfLKbcvHLlY765RgKrEND39Z4n1CokGUdXAvpG9RzJS/5JxuqhMJD26Wd1W48RS2u71l43PxUFDtjbWEPjIwdUhqpV3eh+2uqyigmcNvp3B3JzPuQRg21DxpScdC2P29jYsTp2DH3Mo8U8Wpm3P9kLO2fcZw2r9jbLU0T4ABBZX3hJztTcc3WFdEJxl+ZSqrcCC8ZAAh4BfU+z+PcIcW4JAvpGtQHJGl7yMTmrBx07P2M8MpYuvioLnJSYROYip6pE1T2LR28fTxs/BYxjLWxbmdORseX5rZ5DELqFUT2HPtbURwnit3GLip07xsqG7sKFbl197/8E/FOCT2tDYtRz6Gv/OX2xN/06kp0eRVUAcq7mnK1VzhoqI260NaZ3zL8mX+q+m4C+n1n8v3uvt85O36g6EczjJY+xlvH6kPfWZsyNjKeLrwYFTigumQ+tYa9QJOoWa09tzLa2d0sxsBiz9xQL1pHzYcv6+f17CpCx1TLm0Z7rqsY/53624eKcRyCqhYzXnnrKnsx5spi75aY+VCCj24sxFVese/iICTys1eof5iWJl1xyvqaesS9J+ZLG1/O/wOBgawL6OX7PCbX1ljB4j4C+UfU65vVLGnNazva1vF2bMR4dT3N/DQocicn7peyHLhLRT9ETmRgL2EJ7sYlJtL9FDKV9urx89dyhrw2ibw3beYxVq7qXOtrOn4vKh5WxY+joeZnTY9sP5WblML4ZU/GFurG9Deno+Vr9w5Yk8LIr5Yx9WcqXdCT/rzO4AOFgOwL6/n3fCbXddjDgEAEctl7r6egb21tv8lL3DBfO6YIv1C807ao1z79BgVMbE4rE3FBifrVN1y4EfpQx1G1oP2N+L5umjaF/ETADyJjWDG+1NNbPBWUWa157yv8WtYys6TH6h2kMTGuGp/7ZgYCKL9RNZhwwkKvvyku8L7xwFr8wteSUnt4zyYYoSAIDCdj79p0n1ECgdLUOAXtz28jcl7QVGjhOiUdk8GsRWorPZD8VBU7LnJLjVYJPHDJqzVt9WoFFRaj+eZ2QQR0k+qY1w+Of8/fmziSuEbjT0D8XA8W+yB0y2iaUndZOHWp6UtuJ9J/2NqJ6LOXqu/IS94uvp7P2xakfqX09/7fv7xvzs/fsu0+oN+4gcwoSkJvb3uBa2H1Ja4HB/dx4RB6/0lBzfXp+EEONrRpdL6bcuZb+dX2K/hkPJgqKQR3jzYyeeOhj+YgJA7T/+z9//+LvGXS4c8Rkin0p8GFOt5iUufPSArZ/CtV1NLcSS7n6rvwl6ZIo1teJnbXrR18f4dfzrydIC6MIePeqPpZHxUE/JNCFgHeDa0fuS1oLDO6XxiN63i81/Fq/8FNjBzZmtaWxh+LVdewpoyfRPxevHSyjlVXEiDndorBObsWgNiB9Kfzxu4ZzGUkc+MGEtoU5tN4aDIqMXnf7EC5swa1Q/eSequ/6OxJNtbCv3NOZu29maZFL/l9nkEaKUjMJePcoi/+ZO0LfzQl4NzmcoIDBeHbrFg2FQSE323rmcvxqe9ZWjh3ookCcXRuVxI4cvBacLms6Wd2/CIVrYdjUqugfJjAoaVH0S2su+EWLZc+NyEgB761hLqZ/rEFQt1AqaI+YCvRKVVx/ksvAy41hkP/YmTsohOluhAE5TN8GBhAg4N2bY0+oQGCcJoGWBLwbXezLC3LmS9Lm2DsW5ItW+4/5hnxMBjy1zae+ru3Q177Qf7LTYv0ptxQfyAGyYvOf//17/lIqYtjwWvCIrR15eAIS1G9eGvR1C12oH/Gr/wkX8kILOd0qN9o0VM4WOiKk+4cAJnR7auZ3jrzy1U6NmL6sPf0OQ5JLpyvmv5PLR7OhM/dR8WUCwkH/vPT0ek7fs8U5EngiIPeYd/U7oTxvnCOBAQRCNztemgNCSHIh8Yy8kD/8okUMWMf4sf39t+eDcr9iDnZ1bYe+1YUsWrveYiy2ay/Ej1bs6cIf/bPShSDaXwAYeq3ECTt6/Ra7XpS+Y9uLw6p5Y9iSNrQemg/pnoYgkGIAsk6Le6WkdcxFi/uQvJ5HHHqutA9btg3ZE7lZV+jcnRXPCn694r40Ls+WnSu1Tb33Egg9l39vivfmzsw6ENCHTgfzVSYRmzWCF6idnzWe+aIGC91mc4gV/7ag+xnX0yn+dHyteLWwo/OQvlxnoa7/9P9YUH+cDsX/VI5CE1O2jdr86Z/NT9ny0jbPolv96bte9/qn/V9Hy5xrxt7h51z8r6P10L+IYBLtZfE+sHm2Ht89hme8+8nGE9b+W7E6nt0/ab8HG/5q/9lQodHfMz0IAbz7bEs63yQQex5Z/H/znqjK2t5QdlxlvJGyF9PsF6NNreTlbm3UjsEEbZY99X+dvemhiEN7EyibOJjBprQFVwvuOoQjDCmAVdGP/hmeVfiNLfebWMwmjFul37zYtkslY7g5Wm0AC3oOfaxJ+5vDElrMe623R2DlrWl3T+ta1uvn6rvykuTvkvXUn6i49mAsoa3VT3ARFfHO3qgCF7sTkD3Rv+4O6WAJArFn8e+EWiJUBrE6Ae9mwqGyWuyIS8c8+8WoGaEg0HMj+x4LxOSt3WL7FTjQkfWzjwoP7U25cAL2VJsUq3KXK69Ujy5yRAi6eEXRLy3k0Iq8lj37ygFsohUZbfPQUfJHF8Jo1TqmQu1h3/mLCS1/8tKTvz6mzlxkQqV5mTd/Q3CIwoBt1b0EfiqtaPeMNyrVbtH19+NQ4sW1l2mohY1MlxdxfeZeFjhYgoB+N3KvltiSLkHE9pbFfxfk7zUau5lia09EanSfbMs67M9+KdpYZ8bz5FvWozKqwIHsRR4FnU26ZgybqpWu6z/g5xJjQCY0fdFVMVyK3F/h6i1f5CCgnGFKtxcdJXt0taD0nQsi2g7mclqtj/6TPuTQWnnM2zZnP23Klz2yix3Grj9JtPBy7RXYAsMC1SYqOHObGKORrgRkr/SvqzMaH0Lg6fkrP6GGhE8nqxGI3VCxNZuHPmighzkr22IMH61erC1imh1Liv+ojFPgiHxUpxacrR7VnybD9JP/p3XY8dpDFzGIAPq6DUyLSEgevrQZ9C86EIz41iKXPgyixT9igrFqVfd0f3bUoup6y7d8rbynpPfnxvuSkD/Q+r5E21nXnyRaeIk912aFvULVajWcu9WGaGAoAbyL0Q51TmdNCDw9e+UnVJPwaGQnAk8309M6co3JyVpsHTZyW9gMvVTxwg2t5/pLkR/py4snxT+4ePpH4eYsRHUc+awpUz3qIew85fW0Dju2PfS0QxR4zpyd0uNLwWucaDnpX2SxCB2MdYu1QGtzP8eODT2F/iWenw+shdqLjv5YCyqo4K2MWgp1z5xCAg/zufquvMRdcbk2F7KXEwrO3hwdyq5FAO/l1Hal6L2YV4qvVyxPz13dCdUratpdksDTzSRBP8k8rSNxkbM/rKW2Wh868lIN/bQM+r3a1i/3kjhzYrDMDn+RAifHdnLsqhBU3bO2hJ0n30/rsKPbU8c6hhDmf2MMQ+0taKfOP0x5BqzPmAxk1T9Dr6Ye/4QZpiVe9KW1Y70W6l8MHEacpDGPIK0xzEfac68iMrGlXH1X3uYRc+isuTYdudSp1vZS/Ypc6pmfY5OyaxPQ796cPu6XHJ0nWY+U1vHWd5+T/J4uFv9PhLh+Eki5oWIysbXTieloHenrsRG9DT3Z1JdgqtzNacJET9sJ7k+R0jhET/9Og78O1ux89dgUgnqobT/l9bSubaF/0YFjLAZaiEl7XHoC/ciS+Dx0IfsrwGUev1tBrWR/ps/mksNv9jbn6GNK+8Kc155yprY/50UJl2vgv8VDzK5DL9LecorIeku5+q68ztFz8jDn2nzQeVruYfPJJ9a9sxhrbEkABGbcJ+JT/xDLzm0KR3UK75wqY+9NIOVmkhhCcqH53LjFDmyh9V5qWPPse/JWTmRS5Kze07iHzSefofXqWH4FjrVjxyH/2fO2EAwUWE/+n9ZtXBd5G4MVDowPG1b3F783/Vu6/Qn7WUBbP44RHbfua9XL/IMN8e2IHHNi84j5JwA5T0F84nfEAuHDwF90mIYNs/wnaHqXnMxayjBX35VPDTYQkGszIJs63cNmqm+Ri53JOXYoSwI9Cch9il9PP71spz5nLP577cAL7aY+EJCTlw36rXHArrTaj573fIpszkswR9bzZ+da27P2c8bVsagCR9vS/Zx4kmRRESrfVi/mP7Zm7cj4Jq/9o68VMfcrlPXSYUutw76eQv/Uw4RtIWDn9Vj9oz7iWy9J/zZhBVSxf7j7rTtit48UyLg+ELtqIS8tLj2HPtZCreR527OQcKN5159OpMCPa7PAjlWBXbR2vfdYzmdeJLALAV1P7HLvpsapjtpdtoNxziSQemNJjPKCyZEvzct7kYX8erJPfkXH/p50vPUS32KnVM+LQc9V2zUFjmak/czoh3ILzYdidOVRiepWDOjxry8NLmf5WArNQ+9mFwueIuZ+MtgTTNv2ZlsJqO4tt9Aa5sUv+mfnnEAC/7WY1i0kvDmsea27X55gZC7XhisvgVdert0Km2JP/ypMVamGzuYqo1QmgQEE5N7VvwEus12kPl/1J1R2aFTYlUDqTSX54SUzKlf7ogzFauVK4ivJrcZvjW4sv5I8LvacAgc2n9qLnU4DHQNcyFzqdZPVlWhiXyPyVCSW0LyOE7nouRRF5OD5OGKzC/jYVH/q78rhbzasPsa/xDAM2pD/g7HzPxm75JkxQL4ZKjfRXBuu/JHwzXTWhGs30YLo2h9Ua+zCRk0bOptrbFKXBGYQkHsZvxn+rc+cZ4vFv6XHsUsg56YSA6NfMNZfKF4r5yabMJlqR+RSZUNua/VDdmW+yrYpcFJzhdxTG4s7Z836QbGJec/WbQ1KGS1EYR9j3XprmLOtxPTv//7P308b+vUxBd1DJ/SBAWGjK0OpyM3ypUrH2k3oXPizEZQRHyz+sVW3Fnt3WzATuFd1a0Quw1S7F6XGg9D53NgNzZHAMAJyT+vfMMfKUc5zxeJfgWP3PwL6BkY/l83IFwxeeohRPwA6fj0P2dL2KT8bU6kf6D35g1xuW2X3qBL/PFbZ+jNz9MBPt0akaIjaFK22r/t23StgIe+tQd8GiXlp5TptWEE9hpIu/NHHmlOsi+3zMus6ZmVCT18+AC4LEVsih9wO3xiHnMi6+QC4GjgziHaSOEYt/C1euP1NB3uu/AVCUDW64OWEOd1GjQQW3ZgDsr2mW57HvWKkXRIoJYDaY9R9nuuHxX/pzr5AT9+cut8itVEvF/hBK7HjIUAbmqvJU/uzdmJrVlaPRQ8/PS/9UpvWjh1X2VUFTpUdBKULRMz92siSkQwPJUZtR4V/UXJl7KRWjq1dLIf3UWKzDA8X2jYKft3+7Gsx9C+uMalbJeCxEdEbMKWvujex28RP2Nq041NPxfbU9dg96cTW7T7EZGXNlT8Se9IMryMn24Y18lbcmPNMNJHWZ3QTgzRCAgsS0PVVr3s+1y6L/wVvlFEh5d4sOXGNernAD1rEiIcNY922yFv8WZ/iw5vTvm0fdqyenkff6rYYW79ZNn8FTpP4xJb9/YKx0zKGz5z4oQN7oVyxjvaUw4S09oqtKdkj3ogs8oHIjYlT+IsM5HWr3N7ZiuDvsj4vNvTA68OI+k5wg/npuibcSWU40sWeRkSyl8AjVdGVl5wSL+RgW1F3bSfafRLrafvJN9ZbnMWwxZYEdiEQq09Kc8h9ltJPqNKIqLcsgdybJSeRUS8W+EGbGmOr3MVv6BeLBToxGb0GebR6raYv9oqvX4FTZQPOIwVgZCmLfWqcIgefCK9ZC8O6Nca1fxE7gzkGfx8+p9rPVsTkf6KOgPYlQhcRNZDuZRFrZxB/y64c5NWHivZ30VE2Y129n7of03laEzsptiDXqg3FlRJLSPdpvqftJ996vdVZrG2yTwI7EGh175fYYfG/wx3SKcaSGyY1lBEvFu1D91Ni7JU74pAWPx2PN4d1icn7YV23sNOy1faT+v/8k1QoJdkSIVUgah09jb5e9/qaC+zKXMqVKpdi6yaDBEIt/rRXFckiihxgT8eo13X/kIUfKJoWy2gPPyKDCdVKV89jCX7OMTqx9mrqNGvCCw51/iIkYzsXVC5cgA/rx44P85J7o8u1v4HtnBB7ncc5MVCWBGYQwDu/xnfJ89PuhKqJnLpTCJTcMKmB9nxhIQbtQ/exHmtH5S5+JDb8bEyyrn92XcZY99ZazuUyDOXULCZVPKpunnmt+PtYQdxorcELh5++zGlTVudpLLoXA9qY7asPAFdHmUKsMOHKn4vXKG1OInbq6+5P/zTzML7YgZLR8XwfetcQ3RFytouheSsXG1sbMsYvpGd1DrnUZEJG1bxrX63XdJ9yq7GdqyvnHC8S+CqB0vd86XPD4v+rd5r6F2N7IOj5wpJ4rX07fsqp9EF7sivrYlviwUOJ1tONrVl5kU39IY4c+7kMc+VtPtGxKRrPojS3qLJ2HKeSh/fTPq2ZnDCgq+1F+4gRiqY1Q0j/Fe5WAOM/yaOH/TuX0TF/64BpHTPmpMU85jCWFnNeK0HoeRPebYg9ui2oiRQZJX7rgkmOHehcjElijS7XfiPbYqa3/dRQc86qVJuUI4HdCOQ8BzmylkO7E8pa5nhpAjU3TUpieHnqNkUvVUa/sHQ/VV/kejCATeSNeDCvx3YOa7mt2LG2MEabajOHZY5sqv9TTleFXv8UTOj89FPjPeWUX9U9C9a/TjwGrXvqyCQuJYDuEQMGujUFsyxdrp8sVE5/EMLC729BMDzljD7WpdWXnj/WfhN2Pja++NTGTV9YnHti1rxhrry2UaLrxnZA0ZbL+679cnOu5ggfrmMzmXteGXUOSeAVBOQ5wC+UUO2zYo70kBvOv41A7Y0jPPCi9FqPlydn5zw9Oyc6uHQfc6ktGOAh0+NUG5CDDYyl1bHBtsx7slovp6/thvRSZLSujlvP236qnNV7HMcqxt8aRB5t/QTOWBMUb7LGpwwvhesxEY8Ebi+6SkWvo3/zcSg/u4Y+2tMNJlSruoc77VOvnTZURzhpGekfl5k0w1Pn7EBA2Ub33AtMZLSii1+KWo6stufGeMLQkuV910e5OVdzhA/XsZnMPa+MOock8CoCqBdsW5skjutaO9TfjEDOAYuXom17pAwfMdt4SaXIxuzImuUQesCe5j0/Oj6t78mWzNnYYzbgPyaDNfDFONSmyoX03XkUgpHWLrl2zOQRa6LimVdI3s7L2F6Q0fOYU634UsNL/zIQIXVB54xVrUkX65dpTOpWy+p56ZtLL8uS+Nbxn+Ja8Ne3U2eAeuE08F8nlJsRSxrGbCEPMRSTCzlydSSvhpfro6F9MTXCR2rIOWdbqk3KkQAJ/BFoe0L92WVvcQJyuD4d9rL+JNMrzZBfPa/7veJA0axfRuijjfnuFWOKby8u0Qv9IJ8ac6oc7Ca1uhj89TEl+ujr9snuEadWQN9T1Gvoo9XymPv9c+166RbkL+7bvNgI5HQsKR+H7sXJfwO9BxcdJavN6Bi0vMsoEtuhGyoYtUP0VTxnF2swdi70KUQ1K7iSOT2v+5B5al0dJ6cnO7F110dMoXBtlJ+n8ErPtye7XCcBEviPAIv/j94JOFzlsA/9ZqMJvYgQ78z4UEA/xdArVuzfk/+cdeQU4m5tpcpZvdj4qJlUUai6Z/2r52K2zjWtoPunwK+j16QvF+Z+ImgwjRbzR4vJX4vhaQsTkX8h1pO9+PgNsAdi8qbjTCnXh/hFR2xCQHUxZVsvnnNOC5+TaR3klCadJyW29U9rY17PpfTdeCX/hpfro6F9bWqkL+3X9nuccdYHxyTwVQJtT6ivUtww710OVu9FJHPe/MxtQExeXN5cTay99g52U+NNlYvlihoRMhiHWshltZ4xz4CV+8noaahJ7pjH3KVVi+hKeyrFCn8Yuihi8q/Vy9b24efqTrv+b/lm4M+29OyyHl8l241wT0mLfjvr/1kK2S715+odG9Iu8lDM7Tz8WXLz+Vse2sOZNNQpnZHABwiw+P/AJnsp7nSo4sVnWy+vlnPW39MYvrWczGGM9dJW9qznvmnbEvPTlSITs6GLSdRKds6OY/a8tTNGbcgTlDktI31nSouctkP21LzWS+nfYlEfC7G4oPcLH0O3vU0+xKuWm3eFpcczNF8SgLYV8lVq96aHDbgtlE94MZdbi2uO9BWP5P7vZT3Jc50ESOCZAIv/Z0avkkABqdvdEsSLSdoRvxo+Or4aO7owr7ET07U+wDmk87Qe0jvmVTGLYhjyGHstZFLbI0YY8pSwhv9b8W+MfVPLt1pZ1iB3WXT86DiebMr6xd5PIUUPMohLWsxJK9dl/BtgDaFrGfSx1rJFnDGbQZmMwDwbMqcvO9Zrsb6rZ4HGDCSuuX4SdUvERvuLxWjPppgs10iABJ4JsPh/ZvRqiR0PVXkp5b6YcuWx6aV60Edba2fUPokf7cvGLWPMoUWOWe2vcDvrt0ixdMpkOfj9S6NQRqttYE63v/UzT+cj5SauJ359aeQ6GAXWnemjMNe+UamHZDEPHbS/NO7NTwF6ttUKek3P1/YRo7RPF2K4yWIBbcAQfAWWz3tZ1m8+Qkpm3tWTuBpfrp/GPrQ560/G3k/r9OrrM6mXD9olgS8RaH9CfYneC3Ld7VC1L6TeW9DKX62d0fsEf/ZlD956HnPZLQq3X6Fkhm6hof2iH/Ir6yiez1YLa4fo63XpYx6tmhL7Mn2TUR8M3tptTv+jYfCD1jd/MWFDDo5hU7Wqe9gM6lYuYK/QppizsV107aIxeJE1a3YosnKhtetPY1dP4utwub46+IFJ8ef9sD6yxZk00ufKvoRH6Ldy3IxtDQJ9Tqg1cmMUDwR2PExnvPweMCYt18btHfJJjguFku6N3z8q4xUHuXO2lkutnawfne7B3BrWAtLX63bNrpugLqpqoLpX+3oBfc8H1tCaMDGN1gvbnYOCaoURhq5OwqTeAxjTc8c+JNixIogLrazD7iGrF37Kl3VrMDIujVFMuroSW4fL9dXYDxiodoNYAAAgAElEQVSibWy+ylzSuVTlYW1l/R6IRarlvs4sxunLa31OqC8T3Sz3nQ6GES8+u32tfLayo+PrvXeP9lXxr+Mq6aOO022JHXCWFn0UpJ49yMGvJxPSh06ovfkXQXuFlPW81vnNY/n0oWVMH7LHNAbShgpXo+8NwQ3tIaNt/+x7ujlzMKl1bM6Iwc5rnac+bDzJeeuu30b5W3+uLytUMEb+nn1vrsBFM5XHc6mZp/UMleYuevitlxUjmkHAeRvNCIM+RxPY8SCY8RJq6bOlLblfsIfS9rge7f4KnBZ5ocjTbWlOEo/8/vnfv+cvZOuQ++f6B/QhWTuvY0UfviErY3tB5liDYqhVyhDRHyOwpcQuXejoVgt48WHds+3NQf6MC87OhX6daDyJbsGg1Bb0L+6EQafL9ZfhC3nqNqZe6y9mu2Tt8VwqMbqBTqu8xQ5+G6TNEDsR6HdCdQqYZtsQaHWQtInm2QpeVM+SbSVavvha2tJZ9tzLqO1fgdMqL9SMLeomXfif/V+RD3ban+5jPaUN6QkTvQZG0qJ/2teC56TqqH+HQItKX5zc7F1VL3FAHyIxXS2DuKF/+IaAbiGg5zr1U2JPcW3tIFc7H7LlygUBhaykz7v+HHWdh9d3VNypVH+ucqfJ6LnUyedssz1yFpv4zc6P/scSYPE/lvdS3nocJr0SnPUCaum3pS3LuedeBm3/Cpyeedk8U8YSz1nwqz/9R10aa1PsWxkvf8+HyHmy1t5l/DPk2ZM5VPYhu0G9n5OcmDxbl1gHDEJ51rgO2QQbtCEfrv6xOSGN+nnPJ+K0bb23wL/X0MJwhY3guVRhc2XV3vmK/d4+Vub7tdhY/H9tx02+eOBXf+i9l51Jpcuwpd+Wtmyy2Ec732IctP0rcHrmVRK/xJNb/Fs/KHR1cS12ba7enNiCvm6PuNQ/YmR9umNlQHVP++jYuLQtq4e1QweLmIy0ENUt8o/5j5hMWurtIzV2HYfW0f0zIYHU8bKxYNzLpZtjL2cZdld/b2Wk8ig6KtdRfh4TpkBXAn1PqK6h03grAsHirpWDBnZmvXxa+m1pK4S058GN+wStFJ4jcrK56uIztCbzlw8AVXRrffQlD/wwhxYFttiEDFrISKsvPR/rax23b5T18Izr948FufpqEjGj1frSh22lcutCRlqxgws29RzWStseNr1YSmJGbGLP1RdAjS/4tG1jN0Fzbp5B6TELPc+7MRnkeRmVb0s/eF+E2jwClG5FoP0J1Soy2hlCoOVD3jPgWS+eln5b2gqxHrmfks+InHSuuvhEH+sYo8U82nP+1znHEPi1mEcbqoqxrlttSs+H+lo+2FfKqnv+9QLmQvrBfYLir9XDkC09H9r7oD+tnNAP2U9QzRKp8RPMVWAWXrBpW2uuJm5rK2U82l9KTCIz8sxLjamX3Mhca3yJLn5PLCCn2ycdrtcTKD+h6n3TwgIE5IHb4Zr14mnpt6Wt0J6N3M8R+dg8dYGKPmQwRot53R4xQwCtFvj1zyV0pDWXXkLfiBwfR1izrZV9GkP//BhRf1of2guZD60d/n5GYRvtUyxYj9l+9A0j5m9U1PSQbiyHlABcfQH5cIGP1z6oHsuu3xTFQhnEWajeVW3kudc1kQfjI/Ms8VWi46UsdvDz1jlXT+D5hKr3QQuLEmj1oPZOb+ZLp/ULtrU9y37knvbOxeYmYxSnuvXmPd3LHAxcJp1BRA5LunUs3D4APBk992TvkP0JQVY/I+jn7A/sSAt9HVOon+Ljyd7Tesi3zNfowm5KDpD1WldfQP4uxOi1kClpYa9Et1THzbXUWGO9kWdf49CTzY3MscRXic5T8mITvydZrqcT+Duh0nUo+RICPR7UHmhmvnBa+25tz/IeuactcxFbsZ/kiXVbqOoxilfLpddY+475SGWl7aEPu8hfWqyh1WupvmDXa2HPW9Nzqb48e6m62p/Xr7XTUh952taLu8Vcbey5MYz2lxvfyPMvN7YW8iPzy/WVK1/CQ3zoX4kN6vxHgMX/h++EEQ9rC7wzXzitfbe25/Edta+luYhe6GfzCcnpeRTAaPWa9JtecCKt+ZuImB/EFJOx9uAqpIt10UOeaJ/8pKyH/FrdHJ+wmaNj/dlxra0W+re8fveHjbX1uDb2knhm+EyNc9TZlxpPD7lROeb4yZFtyUT82l9L+2+2xeL/zbv7kNusB/YhrMvy7BdNa/+t7V1gDf6X31JyEZnQz8b+NBY7KHhtbYX5i43fZEqcF73f4GYTE7/WDI/YrB3kfs57SjL3u2I5QuapveWrfYoyxk+GEkVv/rRd+PrleOOhZQv7Uf8JNp/0EfNTe3H1y/cy12HwFHsHl+eHZg/bLWzu8F6ryXNUfjl+cmRrck/RlVj0L0XnizJ/b50vZs+cj4dkVQwzXmyWxQox2JiexqMO4hgbWXtaf8pDr4stXUeir2VOAZmEwK9FPKH2Yueu/t+ysWmGh0vtF75O256CmrvJn4rhjlI/hcTOeWkBr38K3jtW/C7x38zFnxayBjr9p2FLuOkwoR9qtazXd/OX3AdciHmAq4sLN+eLxNzBqDNwVpYj8kv1kSo3g9XKsc3goX2OOaG0R/aXIrDyw7HCC6ZHDD1s2puq975KDrGfjceOSxg4teSfWW/Rzv1JX3peHlb1iNdMmuGt+P9vQrnyFPScEk3palX0Re/CFguhNuRI/ZeEoBoSvfjTQlBULbparEU/GEPEuOjYX0Q8uOT6lkQHXa7/zr5n+MxNqfcZmBtPa/ne+aXaT5VrnX+qvdXjS82jtdy4E6p15LTXhMCqD8YqL5cecfSwaW+GHvsqceMn/mryKNFF4ajbM289iT9hNnPnn8qfSvEO1C9SmPy1enjaV5PSvVxq7Sav/sbhohMYeKZcrlpQbGEcsHuuqw8Azy7MSOteWuDX11OuTuGkF1/IlMjiB5kcfeigdXWDUKDVrnX9tzPvWrL8XKHJkz3OwMkp3dz3zDHVdqrcLfhBE6vHNwjDzU3o2L4JcuKdBFZ8MFZ6sfR4sfawae/OlvuK/bBxY976ThlbWyk6IhMsHvVCSj/VYUwuwY+I6OsYO3rOlFZz+55OKdeLA2vY+dCzIjJ2LyWousc+uvKFkyl5x+7XoL4OOhCbqxsEEjBSMe36r7CXqjrLb2p8ItfyHMzxO0q2V36pdlPlRvEI+dklzlD8PeZDR3YPX7S5KIHVHoyVXio9YulhU99aLfZTYsRP29b9p3Uta/utGRy11q9Q0/3L18JvvWnlqWxav1jSuZ9z6Kg/XVdTySFqHfGTyhV757WWGWS8PKx/LYO+ltF9rLdovRhhF2vShi53TQeLvmMgqOvI9phy/fdwZGzO8mvCeBy2OA8fnUwU6JFfqs1UuYl4Dte7xDmSE4v/kbQX9bXSg7HaC6VHPD1s2ltL9rRkXyU2/KxNO06Vs3oy7sHgrM/QCbVeQBVzNhftFmbBSlq9HutDN7eFTa2n/aOv188+lH9tTNaInia8To6sp/80p+NEX7cp+jcZG7SMnUv83K6A7E2uwYTrv4HdFBMzfafEB5mSsxC6O7St80u1lyo3m+EucY7k5J9mIyOgr+kEVnowVnuZ9Iinh83QTZSytxIPfiE73nyJDux0Y+AUbJgS3zUxH7HDmCrubC7w4bVQxxcAxl6b/Mf/5h+H0raO2PSE9EOXlYvJ/mxYFc80OHhrrebgA22u3YOTVbLJBXgEda29TmPXfydf1uxM3zaW2DjlHIzp77DWMsdUW6lys/ntEudITpE3wcgw6GsmgVUeDHmRrPYy6RFPD5uh+ye0t2CNWNCG7Ljz+Bdr3cX4ZJG/uMn/Vk3BZoanhSL/1tivGBRb9nc6Uh2tjuJfWj2v++cCbGAR41+L6VB72tECxsYx1Ovoe3K/OckZYmgth9g4YjpryfrIUla5uHpITNrAJf5vV0T+Jttgwo2hgV3PhOWtx1pez3t9LTuiHzoLR/ge5aNVjql2UuVG5R/ys0ucofh7zIdPtB7eaHNJAqs8GPKCWO3qEVMPmyFuem/1C9iTz45r4+Lfy/82h8IPCxibNshNyzl/Oq8rZy2KPtZljP7ZIiZnCfpoTx1MHAaVgV/3yONB5qLlfLhc1rVdvaB8BNlp+UBfdPETEd0PqASna+O4GXYY18R3s28mauI3ptwhYg/50eteXxsN2dAyvfr6POzlY7bdFjmm2kiVewOT2Tm09s/ivzXRTe3NfojxwlgNX48XVQ+bIW7gmuITsiFbt/k3F/+qQD2KZ0nezumxhaPXfn1n6rAZmoc/WUf/bJU/T1/PnTpqUnXP5ZR75HSrDKB7rsU6ENZtQB73Y6i1apCz8ylj0UVIKfJaRnRvlxhTHySuzE2pfKKXfbGLXyy6Xv5jPkvXZr/rSuPO0avNMVU/VS4n9h6yu8TZI/eQTRb/ITIfm5/9cKz68kh58ZXcKiX5IpYnXS0nfdnb1P2Frs4J+jcbKxb/EjiquF98GOqcHvtQQvszq21f+tYg9FSruqcqOnoNc9Ji/uz8JrBP0soFOa+1i54M5mwaGFt/1uYxhnCshSPVIgeo3XxhIaG1thJUDhEVTnIqsK196tj1PGR7ta181cTfKoZejLTd21mmF1/SL80xRy9HdibWXeIcyYjF/0jaC/ua/XCs+uLAy7D11uXkixhyWi/e1D2GH9jQerovVVIoD9jw1rEG+71az3eyL1MNii09dRnIgr208K/vTMWrdlX8Hy6MnZhLHd/F7//iLq1NGVuOx/hi9J/DqMxb2Zs9Rw+xQv/Rxs3o30Sprg3rz2K8p2O++BaDA6+L70S/NnaME9VvYiUx3IwMmricY4N8znBTkmeOTo7sjPzhc5c4Ee+IduwJNSIj+igiMPvhWPnF0SO2FJsikyKXs+Gp+wy/nvw5Z4p/xKvbUGywH1pvMV/i4xL7ryLE3K1AxAQKZIwDbWD6Xo0j+Z9CSE/m7QVZFNS6/UcK/1bFvziGMxUIWNn2EqfWs/2LYP5A/JZcqWHYvDC++VRMbmsdJhBHadsiJPG903WeYzsFXRBrbp458jmyBaE3U9klzmYJJxhyXh8JWhR5JYGZD8jKL44esT3ZlPUnmdKbMHWfYzEcNn4FDuRy4s2RLc1T9FL8ePFjzvrWReLFtl6I9CNLpystowtsPY8+lDC2rdaXfuwDALZ0e8kxkafWlz5Y2tbGdoytcuYYPp7UIKdbsNNztu/ZFZnbJcY6XzY2jDu7jZp3WUQ15i6mnoVzo6z3nppnqhwiypWH3uh2lzhHcul/Qo3Mhr6KCMiDgV+RgUqlFV5asRR6vNBiNmNrsThz1p4OQ6yH9kbWsVYSb4lOTn6QjflB/CILOT0HG6EWsocuKkfTmuHlT8v1GmLQc9K3BbJdj42trowvNkOJ/ebBBGLIF+PsVgcLZTVn/UEkt7V2ELduPZtWz5Px5ly9A7QnXTanY9d9bc2NQwsM6K8QQ26aOOty9XaTlzxjuT6te/nG7Hnys+Z2iXMkHxb/I2kv7KvkwW+VzuovjB7xeTZlzptvxdnawZ57rZbVcaF/xKkKnNy4S+ThW8eW0vd8yRzqTrFRavvwD0NOa6dOp2oBXR0T5mLykLHtycQuYHwKxDuWmx3HtG+y8K1bx8BNz5F5mhIb9vekI+slvuHnZl/yrLhgV7dP5krif7JZsr5KHDmxf6k49M77mvxrdHP2qEZ2hxhr8ivRrTuhSjxSZ2kCOBhGBrn6y6ImPtFN/Y1knusLOVz0VIGTy6hEHjHk6krM0IENXYNKH/OX/FIH1pgZY+gV8jKH9VBrBUJymJewzz46aBNy8liAX4K6zxL+desYy/Fj1RF3qY0SPfi0sRwbcJsMT8CObsPS/kpJ/L6lutlV4sjNggViLrH/5HfgtkOMZfTLtVj8l7N7pSaL//u24mWmX8yp/bu1/2ZgM7Q+e97m58YjhZy6cnLKkVUuji5is/OhMeS1T12D6jS0TMieO/8zqO2eFbgq8PUc+lrH60NOWlmXC3LohMbnvBv0fdLLH/zu0v6MZ+OQRDDSRq6gvtJBTLrFMuYwTm1T/FpbQZ2HHMUO4kRrbeeOg7HkGmogv1IsOemwSMyh9Z/sDsx2iDGffJ1G/BSus03tDQnMeEhWelHgRey1LbdzpZyRl80Z88HWKXBS80qVC/mGPlrIydj+vDVdh+o0oAudnNbaDI1RsEsbkonNpyhZ/ZQ8QrnLfM6VK29tI45Ya3XsuCSGpjqyAc5lc3JEiqdgu9hAQ8USlg3dV5ma8Q6sCniy8uq8Vo9v1vb5J9SsaOh3GgEc1q0fFLyQntpRiZfEATatY+xlNzdOzSRL1ylwYOvJTovctS/d174xD39oRQYFspaXvpaJyVk92NOt1j9xKQHxhaGWlUnM69ad1AL42wGlb+P0xhIH8kYrcnpe62E+1OqQnmRC69pfbl9s5l4tdXrklJJPSQ4pdktkVoolN/7W78Fc/zvJr85q9fhm7TWL/1nkF/MbelnVzqekWesjRz8lHisj9ntcveymxKqZpci7Mr//zr+2pfuuzm+yVe7an9cXdyhEpZ/iF3a0rrZxpIAJaX+XnkL/cA4Bp/XiOUzCQGZrxeESOYVayKHVct6cF7fIybyNQcb2sjJ2PWTfyoXGiD+07s2X+NQ68InW89F7TsfT29eT/ZVieYrVW2fR6FHx51ZltWpcPsWxs86xPDYAeluHgH5QdL93hK1eEq3s6Hx72BxpX/vS/Zq8RBc/bRP92FqODGRTWviUVl9ekWlltDz6kPH0Y9Wtlj/lYNRpDz9KCd1T9zchzWVObJ3CV8OYFtv4XSXSRtDVbYom/OvW6uk16XuX+C29EHOOfok/+EF7+gsldQr06ZTk0CeS/6yuFk9uriPfg7mxrSS/KqdV41ph7wLH7gqhMYbRBORBsb8RMaz8gugdW2/7LfdPYr3EGylwLnKBIFJkAqqX6Zgdr8i8yGsBZRUyevlM106eC8oAZJ7+NBxyv1YPUdxjDuOjVa5sV2JH/HYtdVxiAz4Rr24Pv3pC/2NJmDfBwZ6ZTh7m6pfIi46rJzlNuNxYJsQBl0E+ENigZQH5vEkrMloxpmeS4yTmnFDj8qOnTAIo/jPVqsRXfkH0fpn2tl+1MT/l4P48FDhPuQXttgha2Thry7Pz+8d/MNatkzOWT5OY8NpT6K/jiWHuUtCrghjruj1l/0zfek/MbwqBiRI7WucSt/jQE6G+iaX2/tDxGNPuMFUecaF1jUmOE67UHEaGtmJMufmzkHwmthqj1eJ5JjhWYs4JNTZHessgMOuBWfUF0Tuu3vYztv4mKrFF43socB71E/8Z/FtgJROm4DzyMnP2T9Qfc/f0HSYhsUPUWcTUWTBn5BuN+cEO9qvExqMOkoq1TnyPdh0dTCEfjJ/aJ1+wBzm0rl3Jc9IVjWtCTKvFU4pg1ruxNN7ReivxWSmW0fuQ6m/eCZUaIeWGE5jx4Kz8gugZW0/bJTeOxIPfo35CgZOSX4rMYyxPAqboPHyauaziX/x5+oZJSETPB+1A6Cm333oJR9HRv0RXN7En3wcW5KP+i0Rn7jeL/0082Q2ondM5+iFZmcfvNPz04XokrKXH9UN5jIvg6mm1eK7R5Y1mvBvzIpwnvRKblWKZtyNxzyz+43w+u4qXnW57wlj5BdEztp62c/araJ8TC5yUHFNkcvJxZVF86sINcyhIlSKYqKlrV+neitjfmicSmzvtaKGr1+Aol6GVt+OgI7PwyOknX5BS/G+eTBzeMCcnLYuc9Jy1H1s79tEqDBpH4xoUg3WzYkw2xtQxC0uf1CpcVonDp7TOLIv/dfZiqUhGP0Arvxx6xtbTdsoNJf6LY5BqLvFK8VMcR2IMh9ivAhVfuhjVfW3OxqTlpH8xAkUjZIaQuqhC5vCHgfp3AE6lh46N1xMXGU/Om/P09VzIlpap7ZfEBZ858UEWLWyE2mhcsocTr2hsk+JaMaZSFPJ+HP2OLI11pN4KTFaIYSTzUl9zT6jSqKnXlcCMg23lF0PP2HraDt0k4hO/kEzSfGaB8+SzOwtVVEvlbYbnWOcOGZlDP9SeelbA6B5yPxktGvNx2tZCl8n/BjHGsTXRtvwhn9I6oTSbsnHlGEbsVgfztrVysXE0LtnYiVc0tklxrRhTLQoWmleCK/BYIYYrlTVHc0+oNZl8PqoZD8/qL4Ze8YndXrb1jQw/TX0VFjixGGJrOp+ivq60E4p/Ix4t/hHPgcQomuFhxzPmyWHOk//PEDz/tZahjO2cSGM+1v5ZDfc822HpspVSH9DzciyL5E8Ltv9mVE82bvIVjW9CbKvF0wrBjPdlq9h72JnJY6bvHix72px/QvXMjraLCMgDhF+RgQKl1V8MPePrZVvs6l/BtsRVKgqcWM6XNVS/Fb4uScDebxJDtFoWc2il2EYfLeQxRgtBjG175KgmZayGl/5lYIUQgGk1Q9uXsZ7TqqF5LeP1S/U8W95cqX3R0z/PdulcNCbZp8lXNL5Jsa0YUwsULDr/KM5kMdP3H4E9evNPqD04fTLK0Q/Syi+GnrGFbMt8za/7TVtZ4ITylriPNVvoVvrzeMRiEHmEgA7GrVrr39qF32DrJQV+vzXxYf0E1JLlrH6qfauXM87xgZzRip8c/ZS4ovZkIydfOvfJoZzuo8xOqT07o9+XK1OawWKGz5X34Cm2+SfUU4Rcn0Zg9MO08ouhZ2zatvTxm7bxqY4rC5zHPG0lXOnPS0uz99aPORMHhlKQox9qYTO0LvP6snLHmp6Uid8Y01offcs2Kc+KAtn6Qxwt26ccEIMnh7Vh8cjmTL565NwiJW9/Wthdwcbod+YKOYdiGM1itL9Q3rvMzz+hdiH1wTjlYRr5QK3+UugVH17Svex3u3UbFDixnI81VLgNfIU4xGKAjsjI7wjjF5MOTfeho1u9bvtaTn9QXObVIKqv5HReiF8tu12t4wpEJmt0I2YvS/CBfGx7ETYD6Jrp4mHUnmzS5EuzmRzKxX2U20Vyz8HId+bqhEaxGOVndd458c0/oXKipewQAvIg4TfE4c/J6i+FXvH1stt97xoVOLH8Y2ut8nvyYYttb4w/jf/v6+AamSePuYs8JtFezfyN1N84XPT/JI6ezcuOjbir48mE5lLsh3S9ebH39PP0QnOwFVrPnY/akz1c5JI4V7pWi6cHGxajf1R7s+ht/y+Td/XWOaHexXX7bGYU/wJt5RdDr9h62e1+EzYqcJ7yf1qvzTNmH3V4rL0U/g4TT9fVMYLBuIxcKH+rb8eensikyHm6MlerC/9orZ8a+7Xx2Vii9pz7wNMfMVfLrHWMq8XTOj/YY1H6H4keHFCf9LCN/Xt7y+L/7Ttckd+MB2v1F0OP+HrYrNj2dNWGBU6MQWwtPdi4pPYhffxsnW3HbhHvuNJ6Nx3NEYJPhbSSc9wdUzonyHhzWEObIgNZ2+bqirz+WXt2nGu/tX6yPb2nVmnwuJZZj3BXjKlHnjPeoT3yqLWJYv3JDuSe2ic7XH8mwOL/mdEnJfDwjU5+9ZdCj/h62Byybw0LnCcGoXWZL/2dRfiv0IYdy07X2acMJp8YKDnRPX2qeesPY/iKicbWDn8w9mu9OSNy8rTzqeMnH8jrSc7zB11vLWWuVt/6COYgG7PIFYxxYnwrxtQLh7xLef1HAHVFqCWncQTWOaHG5UxPDwRmHlatX84PqWYv93pp9bKbnWCOQuMCJ8YAa9LaX07Ip6yumv/557B5rj10EMuDWLjQ174fjGhR9KGCsW6xJq0XJ9hpOa/v6Xpy3pznA3NoPb3UuZrYxEetvo3TtSebssjlxrdAbKvG1QPNzHdqj3xoc38C65xQ+7NcJgP9VV0S1OyDavWXQo/4etgs2fuYjr6vjnukQ4ET4iDz8kOhG4szaQ2GdJuk+FA8antOH1OJrs58oSctLj2HPtakjbHUcqF+SD8kr+exX7rV6zX9mrjEb62+jd21pzfKKgweYw8Gu01y57JL0txPaPZ7dT9ijLgnAfUq6emGtkcSwCGDVvuWOf3z1vTcjL5+IeDF9dSOjFPH18pvD5slsel7w/Zv9joUOJYD9l18o8BFe4snZwJGbJtgQ8d0Ebe2nLEz5Zo4J9V/2Ud0Dwi/xSdbliVshuaxrtscWdEDG7TaVqt+bkye3xY2YNe1dWwWJOa3bozzw2r+IbZAStEQcKZGhbhIAgMIsPgfAHmkCzlccOGg0S3W0MbWIDO6lReV/j3517K2/6Rbsi4+Wl89bKbEqPcf/RS9Q6ZTgaP3UMdii129VtS3BjPycffLs6fmVNf9kLHrktPhRy+YRCNLwcIKfI2p4NDNVUnDHlq1FIxBy+T2PT8lNnJ1QvIuH9mYhS43xkXiWzm2XojkrOVFAjMJrHVCzSSxue/swk3li4MIrVpK6rY+vFvaE1st7QFIa5ut7SHOlLZ03/WfQqf4SZURFqGiFvOpth7lYLDgn/u/7Zmy5SUQWpZ5kbfrEvvNx2NCfwIx3dgaLIhM6g86tk3xY3VSxrV2kVeKrxSZWzzHpqZojpG5xTfGbZKXlWP7/9u72mVJdtT4/n/9wutg7nCG5ugDSYCo6jwRFaqSIElSSM2s17YpgU2j7Xt3Mx7coIBUAM2/VOPB7ycXCfme+Htf3t54EdvqzZHwvDGteW/vvWODw/nTqJvgVpgIrVYxm/Yj8o0G/09u7CP+q028d80YvDgZtS99nzyTcN1lzaNruLDggemBwZR/YbWKlo0vjL/4XeDQC1mZW4+z1/z23etFADhfqwCa/xdt/WkTvyuF9+VNeCfPbh63/bx1tORzVDMODQ7vs+TKvbAc5Tq/R+i1gtmy/TPXIi7m+PXjXzmclBpbMZTJxyfZjx5pvIMt/a3vzMdqb7HzwFzNf8TrFxZtcqG/X/yKcavML1qqozs4mhzwX6tArRvqtTKfJ2b9T6hNDnAAACAASURBVAisdueM/iF4X9zeeP+Ytt+y47VZnP1XPHqYs3muFx5n9h/rBw0Oad7TnZtjOX7EFR89DGGy9DrEaxCS9vL9V1Dpy++/jH5PDDEb/wu2ZD/z4ShWO7anccfnxE/Glu8reUo/+b6bi8Tg9198aI8L/XnmGpFWdX4ROWvMrTtYg+AbChgVqHVDGUl/mxldCvJikO9ai9GatvX69r64vfFmefbiad1nOKfrPR6nuBZ/znWpfjYbHMpzliv3x39C8EcnkRlWx6053cViDq1R/Nd1/vBtIluNPp27fD7Ntr52sMln12+LZMdpl4eG28lFY/D3B9awENgjb/zglhfWHKk6P3Mih4ZL9+9hLLh/twKPbf7pspANi3x/y5bqnPib8qN3/dea0zZR356XtyeWJd9ePNaTdedvC+aOTY/HDtaJjznPjQZnOUfdbDcSW8ZsYPBUF0vzUN/qk+H2RgHW5bOH/MtrB3/H51fgwwniUIGHTOODD+1hob8PboV4SSpP4Cj5Rr2b798oAsD9CgVq3VAGybkRI9PeZcE2vdEQpoTJ7BLQ6/o7M4neXuxw8MSyxO/Fa+lJc3Kev+WcJaa0YYweD2mb9W7KZ7HB2cpPNMJ//jvyHQG2sFewNA/1rT47yIZpDbT4f4XIEOHDZFe3Xb+P4AcfFP82B03/gxPtI/6WFKi2n0vknY35N8EZFnBQ4EeBR9xQfBB0Q7J7WUg8fv9RpNCLzldTY+486vXM7929aHH0xGrht+ZaMUf6a835m8dWDF7TI9nSXItDCyd6jriY/owNDuV1lBs3xANSxzEEdpcr81Cj+hz9G0VE+ffK/n9m+EOMXT7/ILbfdnXb9dsmqhxvx1d0fj5/9or2r9BfVb2kRD/ayckvfzffxV+uE9JfVyD0htJNjv7u0bXaeV4W1pg9zt7zxOdJf5574Yll1bAV82QPdD3NsGi9xcHKv2e3w6OH9Wt+0OBQLvz88tucmOkzW7eGteCQDffnhMvvPDZj8SKNf//k1M+0nBT/S73s4z1a8m3F3PVrYa3OUeyb8Xt8fzj9bGbPMn/+h1t+aHPEJ3A0J+NkOPvtcAoDmC9T4N+v0GHiq00GhWv5rBR65EXR4nYoUdc9M1aXhMOC13544ayk1Iq5UosrsVq2FKvFoWVLc1wzvXW2kSPbsq8cW3Zs3x1Fg0Pc5dP1OViw6GOxmVGYYdC67M977x9xWkazfzQInxmnj1iLH5HYi1TM5sS5Ku8/vGjviv1V1UvK9ASOkm/WO93V+IMCngoc31DcQHiSsmDduCQ4VzkSV/m9827J9wk2XnvihbOiWSsm7WXGH8dpcWjFZ3taa9Ubz7d8e3MSs2fza/7vfx/dyvuX/8bELNZs3Rqyh8Pzoi/v/kPgI1bLodH8s1kT9APQ74Ny4rz8UMdIp/FO/cfszlb/cEPzvyVi5X3dSsjRie96R0hAfbECR83/VsPgKHaFi+K2Bo5yukCd7gn5n2LsJCJjZl+yFE/GH/GfceN65HGEdbpm5XwaR/vP4s7WNV7ru4XxZ673/6VXNfI/zTuDc1cvx79rcorff/x5Iuh/8Zdy4oepZowtfVfinvqvxNqxrcivIqeWtk/h2eKeMZdxt2fkgRh3Fdhu/isUIC6Ju8XTiu6xJx4YLW6jOR0zs74plo6vuZKNfPQ6fzNvHnneeyS+M87eMSXeKPZoTWKM3jXGn+9O40/9+cefaNj/NPG8KOd5jkeFndX8c3idL89HjicxT3wjc2LsivwqcmK95PgUnpJz5nv03Z6ZC2LdU0D/bJmYVCk+XBKm7XqcUfa+UjwdM6vGKY6OPduwETdak88Ma2f9R69fXe8O2r7PSLfR2mrEHyzVoHMv323wfwwMERvYH/8AGPyfNjagT01+9nRq6Wfwo+sG5InvRrhllxt6WkhW141yeAJHi9aRNqPfgMi4wH6PAmj+37OXr8ok8weg90OdccFSjFGuspHn95sb/aHV5eafdOhp15tf1e4XjmjSdXP+8b3S+DMpiU1zCuMXF/ZzGqPxNU2Ktxtz109zCPsO+q9p7fBlnXncwcj2Kb+/2YI04mX8PjXCYuolCiw3/5UKDhfES6qwk0bW/vZ+FKObbT5LozzZpiNR6vQvngWafxLgF6+/qqjeeVmrHu4fIAaXGsi5v+9DjBEjjfXXdhtvFCsBuxd+N59dvx4P93nn5p/yPXk4P8bg76pj+f0tIFyl34YCcoDCogKPbf5xOSzu9EPNs/a5FyfygmXsG7FXyoH4NTnKxncFMMBW8+v0zqbI3Xwt3iqw5mWB+GOjcNhvG48BJmM0vg6/G2/XT8cP+/57NlZ5kr312eW+ymk3zonfEzie5Ofly78hXnjA+R4FHtn842L4ngKlTDP2uxcj8nJl7BuxZQVR/NEjbT/e/zY4H3OXPrSGnd55yo51mBqODFRwzW3k+rOmMHh+C4udDWM0vqawG2/XT8cP+/57NpgnjdYnjNNfYOYRHecE/wkcT/Lz9OXfEU9MYL1fATT/79/jV2RIPwaRfz38yIuVsXs/dLy+kzdjWsYWPvu11n7m/jY4P98XXzTfTu88ZKgxhsajRRWccLf+GEc4b2MJjNGrmwajIGJtN59dPxE69vXv2WA9eYwNakcvr1/Sf+hjV6y25clvRe3MwC5KgaXmv0qBPeHiitqwb8aN/AElbKpv/UTqLc+TrmnmoeOzBpZR+1q/NZeu398Gp7uevKB5c+/MWo3oWGxG/r/WOPjfBc3tl31rQmGQyRZOC3swlxGDw+/qnsmRuS6N4mxU5Lqr+5IGh8YVdTtMKdRd/p6EBgL4KxQwN/9VCgsXwivq7igJ/uHi8Qjsb0OVXd8yHr1TLjTyI3PiPHmUa97vFMP8Jxocs0+gIXNnnXikkLzWCj9aa9nvzLVicG/flFEuCoMWzg6fkU9GDBl/Jx757PjJuKHvyXu2k0tp/XYSgs+f3w/IAAUsCkyb/1YzYgGOsMFlFaHq8zG5EdipD/alOs/+k2dLcmdOPGbykjymcUWDM7UNNmCtRvxba625CKo6ju7tf0mpDf7+A0bjRHHNiMPcd2Pt+nHc0FFsaFWeVXnJfXkCR8m3wvuN37IKeYPDmgLD5r9SEeESWNvYb7WmOpHPTAey9axzGXv3fcY5cp04m/9Eg2P2cTSU+jLsjL9cl+/sHznKeLq3b0rJRn9JSf9InoT9hFiZHJf1VhtalWtVXqx3dX7Ms9ro+ZtWLTfw8VGg2/xXKh5cAD6bXQWFa4vHKF5UN/JpxeHa2uUi8fm9FWc2xzxmdpHry/xVgxPJTWLPeI605DUeJe7P/1OtoLxkTO7r5fjBpfEh/RvLrlNPiJXJcVlcVUNVuVblxXpX58c8K467v2kVcwEnfwWazT8VTaXCwQXgv/G3ELmu9JjBh+qo9zCfHo+en1dtMn4vfsQ8x+RxOYZqcJb9Nxwses9smuuyC+f3DX4jFx2Xw1hl1P6jWKdrFCsqHmPrcZVzFL9VHk37xqZW5VuVF+tanR/zrDjOftcqcganHAV+Nf8ViwWHP6cYoqP0aovme2sRnDgej1RflieCi8TMqnPOVcbeem80OFs4BqcVzj1bnqfx15/sxPn9l9H5RDO2AXbXzwDdNfGMSVj8tALuxtr1a3FwnWucjapcq/Li/ajOj3lWHTN/W6tqAF6/FSjf/OPg/960J85YLiCLjUfuOk6VGsvg4Rqj0eB47I/G2OEsfehdfhO+/v74r/x0mv/OtKY7/P4Vd2j9b3HX7x/C+ttpTPLnZxZ9N9au34zP8XrjbFTlat2jY002AarqtpnOFTf9m3eFBIKWUgDNf6nteCeZlYtnxXZXLYoh41T5ccng4Rqj0eDs7knPb5cv+/Go8Wn+1xp394285FJjWcN3v3/F7Fp+Luz6faKsf+3EJR9+rBFX7Rl3hx/7ho6NItnNMZTnX/CyOib+X7nK0PlmDPmbd5MHYtdQ4KP5101RBYqVL6UK+lTnsHPhRNeh5lSlxqJ5uOM3GhzPejzhS74z/9m6zMWr+SfMlbjMYceHfU9Ga1yy42c3njWWxN/xkf5h752zUZVvVV68P9X5Mc/qo/7tq84X/OIU+Gj+OQw3X6NCGa0xzumIA3+q4F6jcR71H8JJnVjq8F+kzzfp23qX1lRnFWotkkMIdqfBkdruvu/wJR9+KK4Fw2JDWGj+2zsp9W5b2Gete6ERd/00jut352yU5Po3cXBzrYCyYCe/yWWTArFlBZrNv0TRhcKNFNnoNenn8V75MvLILwMjW8OI+tipM8ljpjNplK1Ti1Mkj5D8Og1OK7eVOStX1ovHVowZ1mxdYvI/AOTczvtKTIm/6ycxdt5bcWmuNb+DL312MHd8ZMyQ987ZKMn1rwDgFlIJJUF3flNLJgJS2wpMm39C5kZKF0xvfpuNcKx8EQmaj3jN1pLrwlMcxpQj4dP36G+2Tr6kT7ZGPc5RPEJwOw1OLzfL/IwnrfPjgUcYs5iWOKs2OzF3fFZ5texlXHqX3y37k7kd7GhOW/kMzsZOjlscFp2q8uI0qvNjnk8ZLb+NT8kFPNcVMDX/I1jdjGlbXtfzo28c8pE662ukZ6amWZeKpbasXDL1Ge1gBI8IzD85DBqcUY69tRFPWuOn59+at/iM4rYwPeZ2Yu74eHFlHTM47MRgfh75umAMzsZOfi6cJiDlNFR8q+qmaD7q0/r7+KikQNakwHHzL6NwM9Yapd3oHQd8pM7+Wqau2ReKrDetkJVLpj6ao/yO4BGB+YfzoMGROVneWxxpjh8LRs+mha1tLTba5+R7N69snpxjZtyTWCe+nKvLODgbZTg2EgW3higvn7L+Rr5chq9Lz7X5H6lnKbDKF88otyesZWlr2edIvWR8+T6LmaVPBg/K5eajcxxxIVupvbTVOLvfEr+HYbHp+e7O78Tc8dnlJ/2y457EO/GVOR+9o/k/kq/nXGJve+QePL/yW/ngNEFdKFCm+adDjYMtdsb5NVPbmxcJxeb4PFqkzNRnxGeVB9nrR+OvYmr/7nejwdFc5LfEkfPyXdp4vlOM2Z/FZoaxsr4Tb8dnhVPPNjvuaTzyP8XoaWGab5wN9rvOjYk0xquaNfjoqer8NN8nfa/8Xj4pL3BtK5DW/FP4UXHhULc3yGs2U9/RPnvlM8NZ5ZCpz4j7jAety2eExWszTLZbHgcNjgUrjFcjuCWWxaYBfTS1E3PH54ik+p/OnGJZ/U/zJP9TDCvXX3aDs3GV1y+inxPX9Pqk0f2qzq9L/CELq7+bD0kLNBsKlGj+caAbO+M4dUPfp10ikRoR9srDW9/y4TXryBhW+yW7QYMzwyFe2X+WmBYbT9478XZ8Tjk/NeYN3n+0npyNa7wmhVCVF9Ouzo95Pnl82m/3k7W+yT21+adEqbD4oW86zDjQsSWQre8TLw8vjbie5biyu7t+vRheeTXxJw1O0+fSf4rMXGZ6zNYZx2vcibfj48H3RtzTmOR/irGl3eRsXOFkSKQqL0n9CRwl3ye+P/E3/Ik63+Sc3vxzslRcdIhxkFmRmPGGvk+8OHZ14hqW48lO7vLoxfTG+4gzaXA+bP9+hPJpBVRzlvgWGwV79Lkaj+xXfY4I/nV+aswbvP/8v4QeiH6F04APLxGvqtwkR37HGKfAE3/H49R4H/K15p+k5OKqftk8edtvaMv7els3/iGLHL1z9N4vb7yPfBebf96HD4zkDwuHUM0a+e7E2/FphF6auhGTCJ7GPfVfEomNJ2fjCifmNhkrcyPq1flN5H3UcpXf8keJ9hCyV5t/0oiKC4c5rlpuacuXBo38RGRJ+fWelXi3dNIcvXmwNjqOy/ekwZExQnnIQIZ3i8YWG0Mok8mONpn8OIkbMSn2adxTf85/aZycjSucjAlU5uZRD0YZws1IZ/2EB90IwL/lG65wKaxAieaf9Kl+4RTewyG1m7rqS8P6jwDNWV+Q+nsogHFRxzS6uZtF8IjA/JP4pMGR4oRxkEGM7xYuZGOxM4bsmnGc1Vir9l0CCws3YjK9k9gnvhx/eZycjSucjElU5kYpVOc3kpm4y2dkW2lN/5ZX4gYuewpcaf65CeSRqT/5UHMO1UaLpnwZRXBn7JMxgpfGtOikfSK+I3hEYP7JfdLgROjjhWnRxGJj5UNYrYf9V2Ot2nOck5H5n2Ds+t7Id5frH7/J2aicT2VupG0kP8JuPSe1IPFOcG774h8At3fAN/615r+XRuTB7sV887y8eFrvnHtrTc+xLY96vfXNtnrkf/hVuVCIe4U/bx68JyG5TRqckJhOoFadrXYtWqy9FcNqR7FWbFvcduY4nx1fD5/dnHf9jjhPzsYVTsaEKnOjFDz4EYbl4Xgj25as0r61/tS5Kr/XT9WvEm80/5V2I4ALX0Ie0IwlRw/cChcK5+SRzwkG8fD888b74EYNzkOfP7oYuFvtWAey54fnrONKrBVba3yL3a24xO0k9omvRZemzcdh+fz4w+dzqswXccvgx3EsoxRnhdsIW2Luvvfwd/Ge4Ffh9/oJOlXniOa/+g458Fu5LB3CLUPwZXKb5+34JBz/mCyL2HGokFOHmvs01RHXkgXcqo3FzmPfVjAsnCwarNrciCv3dDf+rt+qPlb7anw0b09+hNV7dFz+7tnvzDMmRj8F5Jn0QwVSpgLlmn9Kng44/vwUeIKefJnc5HozttxtTx6eWJJjxXeuISs3qzY9O5rnxxpzZteLpf2sdtrv9DszLu2n3tPd+Lt+p3r1/Kvx0TxH/Ght9dH4J98jbie48F1TQJ/NNW9Y31Ygvfm3FAwOt29ZPEFProubXG/GljvuxcMLR3Kr/s51ZOFJ+lg1Yjv24W9LnBUbK67VbiW2xTYr7mgfdzjs+LAe5Gt92Gc2nvCZYa+uW3OTdqsxPO0raeeZ1xOx6JyOzuoTc/oWziWbfxIfB9yvBJ+iJV0iN7nejC1324uHF47kVvWdf4RWf4gsGpENP9H5W+NYeEdwtfLziM17qrFWc2fOJ6PmwN8nmFV9KTfiVvGvKq+KWmVyWr13M7khVluBss0/0ZWXY5s+Zi0KPOXC5B/7W3xvxdV76MXDC0fzq/TNNbPLqacRzfPD2D1bXvcaLXEsNl58NE5G7NG+UvweB15rjTqPm989/iNO7CNzG9mfrHGsE4wI36q8InIFJhSIVCC1+ce/DiO3so8dcWHyjzOP/ejrKxF8LSxuxdXcvHh44Wh+lb497hTWiUZ+WjmyXWvNc84ax2rnyY2wIuNa7xPmQKN+WvmyfWste475ZsddiVdJL8m7Ki/J8VvfPe7ib9XuRt5o/m+onhzT+8JsHfLW3G6ahOXN2cLlRswWLw8ehOGB0+KXMWepJ7Kx2I34sk7VtLLwsdiMct9di4pr3UuKz89KDlG8VziQ7Q731Rin9lW00nlU5aV5fuu39Qx/qz6V8kbzX2k3grh4X5itA96a202Hsbx5z/hkx+vx8eDhgdHjFzVP+84PxeA6kPF4vbUm7UbvpA0/bGfVy2rHuLujJY7FZjf+yC8i7mw/KSY/xE2+j7jKtQjeEt/6vsPdiu1lV0UrnU9VXprnN3/PzvI3a1Mp97TmHwVxb9u9L8zWXrbmdjMmLHq8eVv43IipeXlw8MDQvKK/WzXEtcDjCQfSpKfLaE3G7PlLG4/3anxkTlEatPZ/pMMqj1V7mbPn+ygnzzgnWFW00jlU5aV5fvt36yx/uybV8kfzX21HAvh4XZi9Bqx30Nmex1ZqvKZHtvXiznizMTtei48HBw+MFrfIOaqBm39Wzax2p7lY4lhsTnlo/6iYvP+Ez4+OLb9Xeazay1je75W49HKryLEip55+3z7P5/nbdaiaP5r/qjvjyMvjwpwdZFrnh6i37Hldj6NUPbiP8PVadjwdn749OHhgtLhFzrVqJjKexibNLLpZbDT2zrcljsVmJ/bIxzOmvAsIl59RfF5b5bFqz3EixkpcevlV5FiRU08/zLf7AOhSQ4GSzT8dcPnUkOqZLDwvS2tzxj/oXop55jDjlBmrx+WUA/mfYvS4tea9Ylnrq8XBa86SS5a+1jgWzl76EI4lHnOf2dKes+0qx1W/VftVPiv2M11WsKJsK3KsyClK/zfgVrjT36BjRA7Xmn++iFtjRKLfiul5WcqDLN9b2s7WWz69Oc8cejF4PjMWx9TjKYdTf81n9k3x5DOz76171kwvxmzeqp3VbhZvtm6JY7GZxbGuUyzLY8FjHIttz2Y191X7XtzTeY/cTznM/KtoJXkyJ9ZvNkpfvN9RoMK9fifz2lHTmn+SQR7U2rK8gx1flJ7Z0EHmw8yjJ34PKyKXVqysOK3YPHfK4dSfecxGisOPtOU5Ocr13ntmPfU40Dzxnv1ZbGYYlnVLHG1D3xmPhb+2kbxm+z1bJ2ydu46nv1fttb/ndyUurbwq8qvIqaUd5j4VsJzlTw98RSuQ1vzToUUBRG/nP/zIS5L3kcd/UePeIvPRrDNj6dj0fRr/1L/FSc4Rvowh36WdfGef3ki2mfUkuel3Sz7kY7XT+KvfvTg9LXl+NY7VfgWfbXmUMXr7TfP8SPvWO+Gu/K3ar2Dv2FbjI3OoyK0iJ6kZ3vsK9M573wMrkQqkNf+cBAqAlYgdsy7JrP3Myod2JTNWqwpO45/6tzjxHGG38Ftz7GMds2rJwseSj8XGEqtnQ/izh32juXAcGpmTnJPvvM6jXJPvcr/pnZ+ejZzn99W8V+05TtRYjY/Msxo34lONk9QL73MF5JmfW8MiUgE0/5HqXsTOvCRbP9reqWfmQ9yz40m9TmOf+ksu/E6YI9zRGmPMxko/DJZ8LDaznGmdcCzPCMuLyyiGXJPxNHdpN3rne2O276N1yWMUS67t+Eh/z3fWzhPTC6uSTpRTZa28NH87zugsvz33avmh+a+2I458si/vyIOdnUt2PN52jx84T+5WPh4xI+uH9V0ZZzmxNh7jjJeFywzDc13m7Inbw6LaaNXHTJce3q5fD+9kvhIXmUc1XsSnGiepF95tCrTOsc0TVp4KoPn3VLMYVuZFmXGgM/PRPzT8XW1slZyXTis4K7Ytzhn104o7mhvlRGv8jDC81kZcKEYmF47nlZsVp1UjM11G2Ce+I9zVtSo8NO9bvHpxab63prnju64CrXNcl+17maU3/yQlNj+voLIuy4w9zciFf2D0mLVjqzlqnvx9yneHx0nMjPrZ4ad10Prq9Z0YVp9WLObDoxXr1K7F5RRz5N+rjxMeJ74jrqtr2Xtn5berD+fT85fr+p246bmMb6smXnaU0zf/9c7zN2uSnfu15h+bn7PVmZcM7Wn0vnrno39Y5K54x5LYvXePmKcYO/47PlKD6LqRsVbeOS8a+V379+a13ek3x2Eu/M24+pvnI8bMWMS/Vx8nPE58vTWtxIVzm3Gi9d5DGL21GS7H1+Oun8ZpfTPX1trJHOPq8QTzDb698/yG3J6Sw5Xmn8VBAbAScWPkhdliHb2nXvnwZdzKgee8YjGeZfSIeYKx67vrx5pE1w3H2Rlnuc3Wd2JqH4rBj17j7wweN2JRzF59nOZ86s96nI6ZPCiWx3Oa86p/hkYnMXqarub5Lfa9M/0t+d/OE83/7R0Ijn9yme1SizzUJ/nIy9mS20ksC37LxiPmLgbr0+I1m9uNybiRNcMxVkerHqe593hxfIkv37XfaE3bnn5nxiKuvfo45XHqf6oj+3vzILzRw3FHozenUSzrWgankW6jNWsOsPtPgd6Zhj45CqD5z9H5WpSMy1InF32oV3KSl7XmOfteiTPDsq57xNzBYJ2sPLXdTkyJEV0zMtbsfUeL0/yZE8fu4fXmyX+0xvheY2Ys4tyrj1Mep/439STuo+eUWxVtZB4VOUl+eF9ToHeu11BgvaMAmv8d1R7mk31hRh9omQ+9j56TrZJxTnBWfD1i7mDs+Mi8Tv2ja0Zyle/EWz9y3fp+kr+MP4vHtjO76PWTfHe49erDg4cHxk5O0sfCgWzkI/0j3i2cIuKOMCtyGvHF2liB3rkee2HVQ4FrzT823WP7bBiZFybta/TeZv0AZurGO+kVcwVnxZZ56vEUI7JmiFvv0XmcfK9oIPmsxhzFGa2txhnZZ8VhDr368ODhgcE8d0fiwDz4XY+72Lt+zGfXP8KvIqeIPL8Js3e2v0mDG7l+VfNPRdZ6bgifGTPzwow4yK0fwYycOO4T98qqj9VupsEpjnfd8N6d8prlLddHsSSfkZ3E672P/EdrPbyd+aw4xG1UGx48PDBWNaSYvWcVK8r+hi6WXKrysnCHzW8FRuf7tzVmvBT4uua/Jdzbiy/qstS66e+W1tY5+cPY8onKScfKisNxveJZcCw2zGs2nmJ51A5x4GfGN2Jda8BcePSMqWN5YluwMuOPasODhwWDbPix6NOyYX9LvJZ/9lxVnlV5Ze/Pm+KNzvib8qyUC5r/yX+yVGmzdrl4X5Z0UPmw8juPJxyJJz8WHO+8WjEzYsi4XvFmOLN1ycnyforH9WSJpW0o9ml8jbn7zVyi+UTjz/LPjD+qDeJxcveQv+WReljsWzaEQfNP+avItSKnp+xnZZ6jM16Z95O5fV3z3yqy1tyTN1Vz974wT35sJTfixY+cX3n3zk3HjsaPijfiPVrTfKzfp5g7Z5Binsa15jeyYx48jmzfspape682aJ559Gx6envvlRWP+fZ4VZqvyLUip0p79mQuq2f4yblW4P5VzT8J3iuw3nyFTTrlEHVhVtAsKjepeUYMGc/jvce5N38a8xTXWksUh59Tzrv+HJ9HjUPzb/+LzpHqgR/Skt+5TniUPHhupH1vz0Y+3muSsze2J15FnhU5eWr+zViW8/vN+njnjub/r6JUePx4i3wbL/LCrHBgI/OjvYvGj6oPzZu+9ZxX7FPcUR0x79MYJ7lKDjMes/UTHlV8I3Ns1YKck++Sh5xvRudZ7gAAIABJREFU6SRtW+tZc1V4zPKtyLMip5mOWLcrMDvDdiRYzhRA868UemPxRV+YpNlN3aLzi8ZXJej2qXnrb7dADv9AGtVPJO+RBhSXn5GdXrvFV/OI/I7Oke8UHnu5SB4Va6jFW3JurVeYI44VeVbkVGG/3sJhdIbfkmOVPK42/3yxy/FUGInVex/FIJ83/mVcmje1i8wvEttSaxSfOfD7zmiJtWvD/Hb9e7VzirvCR2u64qttM3nr2BnfVfJjHr36YS3Yjr9vjsSlEp+WFlX5VeXV0hBzewrMzvIeKry0Ateaf02Evk83/dSfORCO9WnlUXEu69L02IMd/SLzI+wKD+mieYy0itRExz2N1aubU1zNU36vaCn9LO+RvC3xo20q5Mf716sdqUEFvpX5SG70Xk0v5leVF/PDeK6A5TyfRwECmv/DGqBClc8hXJh75qV54/BG5heJHbbhiT/gpM/K08pZ1wx9E6aeb/muzGmeK76rthSr2h/pqZ8djhVys9ZHBa5a44qcJMeq/Kryktrh/UwB7zv/jM17vUs3//JHSm9Br0B689o/4vtmbEs+mRdnthaRuUViW/Zt1yaSN2Hrx8pT+/W+Cc+jjjS+leepHcW99Ue6tZ4Wnx2Nb+ZGORBn4mDhfptrS/OKnCTPqvyq8pLa4f1cAcu5Po/y3Qilmn/aCtp0fuTW8ByPM1vpm/VO3Cr/ZV+c2XpE5ReFm1Er3twJjx/J3zuOPOcyjuWd+fFo8YmwuRF/R7edc+q936v6E2fiMON+m+coL3AbqfN7rbJev9li5kSB2bk+wYbvfwqUa/53N4aKRT67OKd+lYs2+/LM1iIqvyjc01qz+HtxJ5wR1mjNwlPa7NQN85M85LvEz3rPjM93305uu3rvxPL0IX1H3DP138mrMr+K3Cpy2tl3+MwVGJ3ruTcsLAq8pvm3JJthc/IjnMEv+wLNPMRRuUXhZuw3xTjlb/G32FjztdQMxZNPD9uTVy9Gb/40Nt8llrHHwTJv0VvjcG47vhpr93vEgdd2sTP8KnOsyK0ip4w6+cYYN++Vb9Ebzb/zTlcv2uwLNFOPqNyicJ1Lrwt3wt/qa7XrkhQLvZqhGPwI8+GrJ69hoMbiamzKWz4NyLCpnua9gJQb+/DYs42aZ31b8XktKrYHbmWOFblV5ORRB8BoK9A6121LzO4ogOZ/R7WBzxMKNvMSzdYjIrcIzEEJuS/t8ic/q6/VbpYc1wvHluPMt7fuxa2HP5qfxaZ8+RnhRK+x7r04zJFHndfMv4d7Mk8cWnE1t5MYkb6VeVbjVo1PZF0A+z8FWmcb2vgpgObfT8sfpOpFm3mRZmsRlZsFl2wsdj+FEvjCXKxji8pKLiu2vViaa8tuZ+6U205M9uGc+FuO2WdDxm69t/jQXGtea9qza8Xxmmtpq3nNYrVym/l4ra9y9YprwanGrRofi4awOVPg5tk8Y/4MbzT/AftUvWgzL9JsLVZyI9uIJ6CkjiAtmrR0sAa14PewOG5knXCMHofo+ZY+kfnu5qM56W+JqzUd2Uo/z3eKKbWV7zIO2fUesuutteYl7ul7j+8prod/NW7V+HhoDIy5AnQG8RejAJr/AF2rF2zmRZqtRS83mtfPytb3cFcwbtlGcz/Fz6iRU44ne0exZfyMfHf4Mi8a+X2Eo3Oy+o0wV9eYA40cX4+rmCN7iy4jf7nG3OVclfdq3KrxqbJPb+fhed7ertVqfmj+VxUz2D+hYLMu02wtKK/WY9i2oUmWXkMSm4vR3E/xM2rklOOm9D9uFJ/yzMiVg+7kvMKxh7+CwVxXR45BHHo8VjEt9p77l8nbkpu0qcatGh+pFd7jFPA8b3Esn4mM5t9x3/gHyREyDCrrMo08vJSDfqIEy9Irgn8091387POyy9NjTyjX7PjR8Wb4en9P7gLG4pH3hDjMeLCt13iSh+SQzVvGnr1X41aNz0w/rPso4HXWfNi8CwXNv/N+8o9T9aKNvEylBhE6EPdI/q2SyI7X4rAzl6HVjjYRdTHTZ4fnDHO2zmeB7TI5RO+9NRepQe+d9dGjtNdr9G3l0PLdnSNOHn83uFt5V+NWjY9VR9idK+B13s6ZvAsBzX/QflYv2MjLNCp34hzJe1QKt+KOOFnWMnjvxIiqkZEmOzxHeL01yo0fbZPFgeNGxtvF1trob+LOczT2/ij+LocepnVe8tt9J+4rvlZuHna3dG1xr8SlxQ9zsQqM7oDYyO9GR/MftL/VC3Z0odLa7BnJFpH7iO+Ii9fa7fi7eWTw3okRUSMzjXZ4zjBpnXKRz8iHOETxaMWNjOWJretBf+vcODaPev0J36vcdY3J75leq3qsclvFX7GvxGWFN2x9FPCubR9Wz0dB8x+4h5WLli7U0TOThX1bdt55V7j8K3BoaT2by+C9E8O7RmY60PoOT8Ylvr2HbazjCQ9rDLaLjOWNLWtCvnMuPMq48p3XnzKecG/p06tPOW/V5oSbNYbVrhIXK2fY+SrQqnffCN+HhuY/eM+rFq3XhUo40U/wFpngvfQyBZsYjfTWrhm8d2Jkn4sVjrJZ4net68n3CpeTOOwbFS8C16J3RFzW6u0j60vj6I80rqJzFR4jvbAWq8CsXmOjvxMdzX/wvlYu2qhLlXOOwg/esib8U3IhnrtPM3HD5Ko2XB8GaDeTEUfiIx+3oAOgEZ+B29ZSVKwo3FaSFIsfvZ7JQ8fe/a7AmWu+l0MFjsStCo+eTpiPV+DGb0Z8VncjoPkP1r9y0UZdqpxzFH7wljXhn5pLBu/VGFwfTaEDJyVP4sBPYMgutOTSNXJaiIoVhctpE74lhsWGMauMlTj3zkEVjrs8yG/Xt0qdgMd/Ctz6zXiz/mj+E3a3auFGXYycbxR+wpb9CvHUXDJ4r8bg+vglcuAExSSeNN6I30ptVbcWhnUuIlYUJuGuYK/YWvWKtqvIuXU2KvA85XDqH10LwLcpUOXetrGtb4XmP2GPqhZt1KVYNd+TrY7S6oSTxTeD904MbjTkaMlnxUZjE88drisxV2wzuUTE8sQkrF28Xb+VvfK2rcyZzw3lXIGnBwfC8MDxrgPg2RWgusSfnwJo/v207CLJy7RrlLwQeRG+8ZBG6hW59Rm8vWJ4nBPG6NWgF1evPcviExHHC/MU59Tfay9XcJ7Amc/QTa7esQmPn5X9gu19Bbge7zN5BwM0/0n7yE1JUrhhGO8LVQd74yGN1kxr6PWdwds7Bp8VSx1JW4s9cfXme7JXWVwi4nho6cHLA+NkD3d8n8KZz9ctvlFxCZefnf2DT74Clvs9n9VzI6L5T9q7KoUbdZlKGavkKjmdvmfodsqx5Z/FOyoONx+9kXJerbcori39Z3PEJYNPVIwT3BNfqasXjsSMfH8aX9KCztgN3hkxKUZGnMia+hbs1bv+W3TZyRPN/45qGz4Vijb6guMcedyQqaxLtHZRiWfyzoyl9VqtuZtcNfcMLlExdnF3/bR29O2J1cL3nnsaX86fzlgm98xYXEcUMzsu64txrsDqPT9H/F4LNP9Be09FKp+gMCbYrAutSr4mURaNnvqDkM07Ox5v486Pwi2uzJnHLB4RcQhzFXfVnnXqjTscelgZ8975Z3CWMbL0vqUT53crvtQa758K7Nzznwj4YgXQ/LMSjmOlAs28wCrl7bidf6AydfTkns07Ox5rtVt7t/gybx4zeETFWMVdtWeNRmME5ijeydqTuPbypPMWnUc0fi83OU8cKvCQnL79ffeu/3bddP5o/rUiDt83i5MvZb60MrlkxnLYpiWIp/4A3OB9I+ZJ7d3gq4svg0NUjBXcFVut0eg7CncUc3ftSVxHOcrfmpHd7lolnYhLJT67mr7B7+Suf0P+Xjmg+fdS8i/OzcJsXVCZfDJjOW/bFO6pF/8t3tlxT2qvdW6mBRFgEK1ZJL4F22KzK2sk9i6nnt+TuPZykPN09ignz7w8sSTX03fOsyq/0/ye4H9y1z8hvyyOaP4DlI4uTnkByXdKpRW7NReQ9h/IzFhRObRwn3rZ3+KdHfe07rL5co1RXPnwfMTIcaKwR7jR+kbjj3JbXXsSV2tufP68aqy6RpxndZ7W/XuSHdfakzhX5IrmP2BXoorTeuHo+PQtH6+UJSa/e2FXw3nqJX+Td2Zsqr/Tvwy+FEM/zDsrPsfzHnv89bzO3+vbO58oPK1HVJxMXDp/Mi/e010OEmsXI8vvNNcsnm+J43HXv0WLkzzQ/J+o1/GNKM6Vy3AUf7TWSac57YXTBC84uaJ/Jfo3eWfHPq3JCL6EqZ9efUTE17EiY0hsnbP+1rxOv2XsU6xo/ydxXdGC8tJnkPd9BYdsn6gR5/pE7qv7c9te19ltPk+Mj+Y/YNciCtN6ocxiz9Z7cpCffnq2b5y36l8t99u8M+Pv1rbcMw++hCEfiT9794g/ihGBL3Pl9xGHiLWIvCJ4EuaTuFo1kDm1zuFKXUgsa/xKdpzr0/OopKnm0qoxbYPvsQJo/sf6bK96Fqf1ErHGtNpR8mTLz7YYL3C07kFEqiexyffE/zSfzNgrdd3La4cva8xjD9syvxPfgss2HhwJi3EkX/nO8bJG5pMV7yTOTZ1OeLd8ORceyWZ0DnmfpL3GHa1p28rfllwr86/MbVRjlXlX4obm33k3uFH2LE7rZWiNabUjaTgfZ5keB2fdg4jETmLzD1AELwvmCXcLvrRZqWvpJ99HfFlLPUr/0/dR/FNs9j+JwbkzlhxPcCXO7vvt+FbeIw2tGFXsWrlYziH76T3T31XyPOXRy/cU91v9LTX2rdpY80bzb1Vqwc67MHsXIsXRj5Um+43svfMYxaq+1tuDDN6nsU/9T3PMiu9Vr8S395xqYfGP1msVX2ox4r+KO8LaWbsdf4Xzk7jO8mrlwr8vljNJ/ozB4yzmU9c517fnGb0/lrqK5vB0fDT/ATvIF58XdO+i8DgAzLU3euXwdJzeHkTn5RHXA+Mkz6z4J+eBOOrnJOcT32i9Zvi7OsxwTzSx+N6Ob+HINk/iypx74ywX67mc4fTiP3GecuXnifxvc7bW1G2eleOj+Q/aHc/ibF2KnvhBErwKtrUHGQl6xPXAOM3VmwPh9Z4RV4uPN9cRn9ZadHzWQMbmuZPYJ76Sy+777fgrvJ/EdZaXJRf+vaKRH4nLGDTyu1x/8/s35uyxn1xTHljfiIHmP3DXuThbl91K2NZlyNgrOLDdV6C1B/todk+PuB4YdsZtyxYHmtt9WlHoTFjwWr56rsVX20R9cw5R+ITL+XnGYsxI3iPs2/FH3PTak7hq7vrbmov+zZK/ixqDvvWcjvu2b8752/Le3UddT7s43+qH5j9w5+XlRmF0sfK6nteUWpfBzEdj4PtMgdYenCHOvb1ieuHMGY8tiId8xtbrq55ngnmus/DxiNozzotHH7b/oURxtnC8GdvCT9s8ja/mL793cyE/flpnl9dkrG9457xpxF9fgVbN9K2xohVA868Vcf6WBcrvNPI7h2vN0VrvAtD+jIMxRoHePsRE+w+VfwROY9zgrjl75aJx9bfnubipm1ds1p1H1ssLn/FojMCU+KP3m7FHvHprT+PrkQflLB+N2Tu77KPt3/7NedOIv98K9OrltyVmWgqg+W+p4jgnC5Te5TeFac3J8PLgs63GkPZ4j1FA7kNMhN+oXjG9cH4z7M9QTPn0Lf1XPM/HDe1IEdZuVR3247HnP1vv+Y3mCfPW383YOzk/jW8vx1ketM5PD4PnZ+d2Fotx3jiyht+sgd7XWb1oe3x/KoDm/1MP1y8qzlmBztb5sFuwXMkD7EMB3oePyeAPr5heOJZ0KVZmPMkp4ozcyoXyssRmvXmUeszeLfgzDLnujSexZ+83Y8+4tdafxreVA83JPOhdPz2/1vzst5DjyZgtnDfPSX3fnKclN0u9WHC+1QbNf+DOW4tz1LTQYed1K15gSl8Nnf2j4xXPC6e3+YTPT88mej7qbNzMq7VvzIfHE11b+JXwVrh457ISe9X2SVx1blx3vVHbr35bz7GMvxrjDfbfnj/vobVe2B7jPwXQ/P/TIuTNWpxsR6N86JDzH9vwN8ZcBeReREf2jGXBIpvdJ1oLK37U+bDoZ+W4YtfajxX/ma13Xt54M/5y/WZsycPyXpkrcRs9Oj/vXPi3T8cZfXtzGMWqtsZ7VY1XFp+oOz+L/804aP4T1LcWaOvi0xebFSshra8MofcjSoReHL7svceoPDJxo85Gby8icmvta0QcwvTOi7lH8R3heucyinW6doMr781sXM3NM5eT88t5rfJ/i73nPjxJk5OaeVKeEVzR/Eeo2sDcLVJ9qHdxGpRSpvhSbo0pBJyD6P3wgm/p05rbiRfFeYdLpE/k2YjUUO6z1icjro558h3Jt8frRsweF8t8Jl+KFRnPE5vOLz+k4855js7Xsr+3bDz34lYOq3F3amQ1xlvt0fwn7aylSPnikqOmZ8HRPq1vGSPyvRWb51pxec06tjC85pgD4fGffOc56zjipTFO4kRiaexK315no5WT937IWmjF4zm242/v0TMv4uaNZ8n3RkwLr5ZNFleKkxErIgadYz7LPLa07M1l5d6Lf3P+23LfqY+b+1MpNpr/hN2QBcqHszdKOtqG1iSWtLW+S0yrT6ad5EfvrT9p01r3mpNxPN5XePVyX8FgW08sxqw00pngJ4rXroatulnluBvbEscb2xvvRg6WmLs2GfpkxOD8o2Pxud753SNu0fxYh0rjN+W9UxeV9uomFzT/B+rzIVsZV8Lpi2slTs92JX4F21YeN3kxn2gOFMfrzxPLi5MHDjcGHlgWjJGOvEajfCy4MxvGntntrnvie2NJLeW7zNUzpsSNeI/kyvpE8O5hRuYjY+42eTc0kbxvvX9L3rt1cWtfKsVF87+xG3ywrBffboFq/F2cjRTh0lGA976z7Dat9/4E2BPrhIeXL50DfrwwLTi8963R4r9rE71/nvi7WC1Ne1g9Wz2/q3ekXy+n05hRuBZeGbH5vPNo4SVtuDbk3NvfvyFnqgf87SmA5n9PtyWv3QLVl+ouzhJZGA8V8LpQ+Uest6d674ekJoueWJNQ4cs9vcID/w1wS8vIuJ7YO1g7PnK/e/40v/tIfM/3HtfdGJzfrr+Hn3dOM04nd0A211kuGetvz/mkHjL0rxoDzX/CzuwUZ+vA7uAkpPd1IVp7syKC3kf5Te/0nMaQfDyxJO6td6nXDQ439IyMSdhe+Ks4q/Z6vz25S2zG7Y3S1vp+mquMw7zk3M13z9xmeZye/0yus1yy1t+c82k9ZO1BtTho/hN2ZKc4W4d1BychvWaIJ3FtJjCYbO3NwPxjqacLzcs1iiG/P0AWP074LoZKMffS5YQsafomXb1yWcVZtdd7duqv8azfFHfnseK37GS81vrNucx98Dj/mXxv7ouM/dacPepB6vQt72j+E3Z6pzhbB3UHJyG9XyGYJ4+/DB4+0dobS0qrelAc8uHHEqNls8u3hVVhblXHSM5v0dYrjxWcFdveHnpg9LA954nn6ePJ58lYXuf/KbXjuVdcg56Yt7G86uF2Htnx0fwnKL5TnPpi2sFISO1XCM1Tf/9yeNiE3hcLfdJgRwcdaweD+GkcC+fKNrt6RuX0Bn29ciCcGZbFxrpXs1hWnGi7p/A80SEzx927UObnWYcSt/r72/L2qIXqexbBD81/hKoKc7U4W5foKoaikPLZ4shzNPaeFHJOQVp7M4Lm/Ec2vTUdaxdL4/TiPW1+Vw/vPEnfN2i8ksPItrdG87213T3xxtvlMfN7Cs9ZHqP1zBy9zn4m55F22WuU91ty96qF7D24HQ/Nf8IOrBZn61CuYiSk9RFixG+0RiC0PrORwVZtGZ9HibX63tobicExeJRrq++tWIS789fC2sGp5LOrRUQOT9eX+Ec/36z70+vDundZeXqe/SzOVg0z7d6Qu2ctZGp/Oxaa/4QdWC1OfSBX/RNS+gjhwW8Fg2z5+SCiPnqYvXnl/uuT9kXuDXOQ4y+ngwkZi2E4Fn9bxxaW1Zdj0ljprxKfE31vaEp85UMcvHLwwrHokhnLwqdn8xSePf7W+cw8Pc9/Jm+rlll21tzJzvJk8eY4nnXAmN8wovlP2OXV4tSHcdU/IaWfEF7crDjSTr7/EBIvo3VaG60LmD+vZMsX36qvxrJ+6zogv93YLawZDx2Lviv9VeKzo2+mlly7ctTxvXLwwtH8Wt+ZsVrxrXNP4WnNp2eXmafn+c/k3dPu5nwvf5rnx8KPbXt4FoxVG886WI39ZHs0/wm7t1KcrUOz4p+Qzk8IT15WLGlH7/z8kBIv0lZMf7yy/2wkp9befIAFfLRiWvLSVFo42kZ/6zj6W9tnflfiwnnvaMy+niPx0I8Fn30stiObTB0yY41ynq09hecsj9l6Zp7ed0Am95mON9Zl/vTOzy6XU39rXO86sMZ9uh2a/4QdXClOeQCZ2oo/+2SMXrxWcHq2NK/X9PepJq29OcWc+bdi7uTVwpnFbsVpzc1weH2HA/tSXI7NI69VGU/yO82BYvNzguWRgweGNYfMWFZOLbun8GxxX5nLzDPiHsjkv6Jrli3lz49HTE+sHp+IOujFetM8mv+E3VwpTn35rPgmpPIRgrh58FvFGNnLNfn+QXzzQ+/NJsySWyvmTl4tnBmRVhw9R9/8SDxtR2s7HMhPYvE7jzLm7ffd/FZ5Uxz9rGL07D1y8MDo8dPzmbF07JXvp/Bcyallm5Vn5PnPyqGl3+05yp0fTy6RmkbWgqcG1bDQ/CfsCBWnfEYhW4ekenFbc2vlvZPbzOeET4sjzbX2pWfrOd+LK3OU76PYhNXDa/kxrl6jef7jd7YdjTI22zFOb2T81vporWUfPbeq7wofxpYarvhbbT3wPTAy+Vpj7dpl6rHL0dMvI9/Is0/8M3Lw1NwDS+YcoYHE9+DLGJG1wDHeOKL5T97VUaH2Dgf58JNMdzncKD8NtmIrfXf9JMbqe29vVnFW7VfiyhqR7zrmKqb2p+8Rfsue5iiu9uNvGvmvNcdrepR+eu3G94q2M36Exc/M1mvdg78HhjWfbH2svKRdph4y7q33jHwzzn1GHrf2SMfNOEdRMTJqQev1hm80/wm7KItTvuvQlsuG/PnR/lW+RzlKjlY76UPvq3586XiMmkv0t6UmNAfWh0b5SDsrLmNJ3933WUzmuoLvyW8lbs92lmPPj+fJnx+eyx49csjifFurWZ6nWs7wK65H55x55qNzqbJ/WXlGxMmshyr75cEDzb+HihMMbmpmRbpyMGZYE0ofy8yPJ/l7NrI9jcyHR7nWerfatXxlvN665/zKvnjGJSyv2C29Ldgtv90cLfFWsT35rcZu2a/mSPbyaWFmz63moPlxPno+4jsz1g7/Uy13Yt72ic45+8xH51NhvzJz9I6VXQ+398srPpp/LyUVDhUkP2qp+bl6ICS2fJfgPD8byYdseOR3idV67+G2bOXcCF9jSj/5PsKQdqfvtC+re3MaU/t7xG/pZcFt+Wl+1m9LPCsW23nyY0zimfVwTBoj9JH41vdTHqydNd6JXWasHZ6nWu7EvO0TnXPEmZ9pFp3TLH7kenZuEfFu1ETknmRgo/kPUHmnEHcPBMeSI73z90p6Oz4r+GSrYzBXHjUe2/O6HLVtxPfuvnhy8eDAukleFlzWX/rtvlvi7WB7cSR+Hhx3Mbzi72gofXb5e2NIvN57Fc16/GjeQ88RfrW16Hy9zvuqbtF5rfLxss/OKyLerZrw2oMbOGj+A1TfKcTTA0Exd+IGpD+ElBzle8/pdl6n+9LLa2XekwPrSeMMl21XuM5sZzFn/q114nnyR5w8eZ1gnfieaKB9T3mc+ms+ve+sOL34lvkncLTkYbXJyPf0zFtz0XYZuemY0d/ZOVE875i36iF6byLx0fwHqLtaiN4HISAlV0jSZ1UjVwILYFX2xpsH6T/DjNijWcyFrfkw3eUawecU89T/Q5jNj1MOp/5W2llxrHxadk/g2OJ9Mhed8+55P8mJfaNz4zh6pLgZj47r/c05eOLerAfPPDKx0Pw7q71ThLcuE+fUXwmXsTd8GbZGFtWbB9UpYdLINcvvcuT4XqN3HsyLc+Bv6xjF5wT3xNea98zulMOp/4wf1msrEL3/u+fdS7Xo/Lx4znAoj+xcImLeroeZzhXX0fw77wo3Tiuw2Ydvhdu323rsDV92rXGmb8tHz80weuuEQ39cs1kXKMft8dqZ3+UewYX4n+Ke+u9oqH1OOJz4ah74fp4C0fu/e949lYzO0ZPrCCs7D+94FWphpG/VNTT/ATuzWozehyEgpddD0h7MHi3CzJ7XtZ/3N8eZjTou2Wf/zTjK9RVuq2eOsaM0OMU99ef8TsYTDie+J5zhW0OByP3fPesRykTmGcG3hZmdg3e8SvXQ0rfqHJr/gJ1ZKUbvgxCQTjlI0szyMHGL7a4Nx6g+jvKL5t6KPYvZ8tmZm8WhdcKN+DvFPfU/zekk/onvKW/431cgcv9Xfl8zlIjM9Y38vfWqVg8Ze+YRA82/h4oNDCrI1qNNvQ+Cxn/DN2kkH5nTSL+ej/QfvY+wR35PWZP67L63ctVYPZvW/Mmc/hHQPEbfJ3F7vhTv5O/U/yQ2+Z7EP/E95Q3/+wpE7r8+57ezjcw1K7esHCiOd6xq9ZC1Z6dx0PyfKrjoL/9BQK7eB2GRTllzviRm+szWTxKMxD7h5eXrkR9h6MfCzyO2jlPtR8AjRw8MrZP1+yT2ia+VH+zqKhC1/9XOOO9AVL6MHz1m8Y+IU7UmovfsFB/N/6mCm/5UsBEHYZNOKbcVXVZsV5OMxF7lEmF/M7+o2HSu+InQbAWTcjzN89R/ha+2PY196q/54Ps5CkTtfeVGLyrnrF2P5k/4ETEq10TW3u3EQfO/o5qDDxWsPgh8OPS8Q7hHQHD+K2QjtYrEXskxyvZ2ftHTglDVAAAbFUlEQVTxK/woeOTogbFbQyexT3x3+cKvhgJRe1/hTPcUjsq5F897nvhH5hCFXbkmvPfIEw/Nv6eaC1jc/POBo5HmuJB5fgHysaYnuZJv1F8kdhTnFdzb+WXEl2dqRRsvW48cPTB28zmJfeK7yxd+NRSI2nv+fayR5W8WUXn/jhQzQ/y9c4jAlNlXrwnJtdI7mv/Lu6ELV37zofE+jJdT/gnP+f1MbLxEaROFu5FimMvtHDPj07mSZytMVAXslaMXjqI3/TyJe+I7JQaD0gqs7D3Z6qeV3K0z3OLSm+M8euvV53nfeDzlm6HHjXv9VJcK/mj+K+yC4tC65PgQeR1KFTL1k3PxCBqlRxSuR85eGBVyzObAZyvrB8MrPy+c1do5iXviu8oT9rUUoL3PeGpl/R+bJ9Y975XUszUn10fvJ74j3NZa1l3eiv3kOTT/RXdvVNBPvFxI5swL4XRbn6rxSt4VcrzJYXTGVnQc2Xrm54k14izXTmOe+ksueP9eBTLOqpe6T6t54jvizOtWm5Gdl8YS50m1IXnffkfzf3sHGvGpmGcFzQey4V5iivnJMYJY1EUThRuhwS4m782uv5ffLa1nZ8wjP8/cPLFWcjuJe+K7whG271Yg46x6Kfikml/lSva9x0u/VZwn1cZqbpH2aP4j1T3AthY0H8SDUC6uzINHF1ADCMWL+IvCjeB6glklzxs8rGeskr43dNqNSX67vieaw/ddCmScU0/FnlLzT+E525un1ccsn6x1NP9ZShvjUCHvFPONg0wx+TGm524WFf+Gnu7iGACr5HmDx845M0j6YeJdnzd04hxWRxLiBt+PDcDH4xXIOKeeIj2h5p/A0bInT6sNS05ZNmj+s5Q2xDktZPnjbAi3bcJxtgGcHSMusghM57Rd4Crlmc3l9LxZN8AzL0+sDP43+Frzgt0zFMg6p15qVK/56vxW9uFptbGSW7Qtmv9ohRfwqZC9ipkOOD8LFIam3njDYAuLEZdZBOZCSmmmlfLM5uJ11mab5ZmXJ9aMt1zfjbvrJ2Pj/XsVyDqjngpTzVes+6q8TrR/Yn2c5Ovpi+bfU00HrIhi5kN/ciGd+DrIMoSI4haFO0wmebFajpl8Is5aa/u8c/LGa3HWcycxT3w1D3x/lwJZZ9Rb1Wo1T3yqcfLQ/Kn14ZH7KQaa/1MFHf0zCpkvAetFwPaOabpDWXNZDRyFu8oj0r7i/mbpnnHeaO+88/HGs9TXSZ3c4GvJCTb1Fcg6o95KVKr5Slw8dX5qbXhqcIKF5v9EPUffG4XcuxRonh/HFMOgenmcBozCPeXl7V8tzyw+WWfOOx9vPGs97cTd8bHygd27Fcg6nxEqVqn7KjwiNH5yfUTosYqJ5n9VsUD7G8VMl4N+AlMMgY664KJwQ0Q4AK2YZwYnOm8ZZ847F288a+nsxN3xsfKB3bsVyDibUQpWqPsKHKL0Jdwn10ekLlZsNP9WpRLsUMx7ItMlF3HRRWDuZRjrVTHPLE4ZZ847F288a3VR3NXYq/ZWLrB7vwIZZzNKRdR9lLL/4T65NmKVsaOj+bdrFWqJYj6TN+KyjcA8yzLGu2qeGbyyzp13Lt541spajbtqb+UBu/crkHU2I5RE3Ueo+g/zybXxL4u7b2j+7+r/JzoK+XwTIi7bCMzzTP0RquaZwSvr7EXkEoE5q67VmKv2s/hY/x4Fss5mhKKo+whV/8N8cl3EqbKOjOZ/XTNXjzcVMuVyK5+IyzYC07V4HMGq5hrNK6teI/LwxrTgWWxkWa7aS1+8Q4Gs8+mtNOreW9H/8J5aDzFqnKGi+T/Tz8X76QVN/DkHHl2EWQCJumyjcBdSSzGtmmc0r6x6jcjDG9OKZ7Wjwl2xTSl0BHmUAlnn01sU1L23ovhf8PVWFM2/t6KLeHy58bjoftWcOLd4t+Yk0dm6tLW+R122UbjWvLLsquYZzSuiFlt7FpWHN64Fz2LDGqzYsg9GKMAKZJ1Pjuc1ou69lPyH89Ra+JdBrTc0/xf3g4uZx4tUlkIT3xnn3jrPWzBWSEVdtlG4K7ll2FbNk3hFcuN6jNY4MgdPbAuWxUbquWovffH+3QpknU9vlanmUfd+qj61DvwU8EdC8++v6RTRu/GdBnQyWOXN9nLUVEZr2nb0HXXRRuGOcrmxVjnPSG5Uf9F/xD8yB29sC57FhnVdsWUfjFCAFMg4n1FKo+59lH1yDfgoEIOC5j9G1yFqtWImPpZnmJTD4okuURdtFK6DXK4QlGfVXKN5ndSdZROi+RMHzxgWLIsNa7Niyz4YoQArEH0+OY73iLo/V/Spe3+eeTwCmv94jX8iUCFXKuaKfH7EWnyJumijcBfTSzGvmms0r+gzGc2fisM7Rg+P5ntrvSJdte/hYP57FYg+oxHK7pyVCB5PxXzinj9JazT/SbtVrZDfxieqwYjCTSq7pTBVc43mFX0WovnzJnvG0Vj0rec4rmU88bXgw+bdCkSf0Xer96zsaK+x3/F7huY/WOOqhVztcJ3yiWouTpue4PJyhY/S0IOkJzc+k3L04NjD8OTei0Hz3nEYj8dR7NmaB8YsBtbfrcDpb8S71XlHdtjjvH1E8x+sddVirsbrlA81FxENRhRucNltwUfot0Wk4eTJ7bTWGvSGU57cR4G84xCeF6YXzih/rL1fgeyz+35F62SIvc3dCzT/gXpXLuZK3Ly4RDQYng1QYKm5QEfoNyLG2u6OI+zRmle9jWLItUxdPWLxfsgcPN49uHnwAMZzFcg+u89V6jnMaU+xr/n7heY/QHMu5soFXYmbF5eI5iKqEQooOxdITw1Zu9FoJe3Ji2J61ZyFvzf3UcyTWLxPI/yTtRNuJ3Hh+y4FMs/uu5Srlw328t6eoPl31r56MRM/fpxT34ZjPjzuAkU0F9EN0W6uUX67GrJOcvTkuMtrxIHqLeMvgvuI92o83rMRpsfaKi+PmMB4pwJZZ/ed6tXICnt4dx/Q/Dvqv1PM5MOPI5VfUBkxfgU1TLR48ZwcDVBu//1kGSurMZIxb75bGzTWRY6RvDmOZwyqr+g/q56ePFZirth6cMyO58EZGDUVyDi/NTN/Pivs3f09RPPvuAerBa3t6VvPndKLwDzltONv0SWisSDMCFzWgPF7I9vR2LPpzUtf6zth6b8WvrbJ+G5xO43L56NXX3Kd31diRnCexbfE5D2dYXmvW7h5xwTeOxXondl3ZvuerLBvNfYSzb/jPnBzYCnukc0KTo8+Y/TWnzQ/0krmYW0suPGpMEr+/L7Ci33kuOJvtZX4t96Ja9Rfr8b0vP6e8Ynk3Is9isn73fONnh9xi44N/PcpsHoe36fAczKivcJ+1dkvNP/Oe2EpbosN0+IDs+JDvqv2HK/qyPnw2OIZ0VjcbpZaeUbOVc43Yn9ZS6or+ch5em+tsc1ojOTci9uKWWVfW9x6eWAeClgUGP0mWPxhE68A9ihe49UIaP5XFRvY9wqcGwdy7dkMYH+WRr4yxmmcn4CFXji/kQYRjUWVpilzKyJ09OCfxUvWGtcbj6t5ZHGWvGRMepff0u7WezU+t3RAXD8Fds+nHwMg9RTA3vSUuTuP5t9Zfyp0Xez83VpbDc9Y2o/n9ajtnv7N+bXyiGgqKjZPrdw95yJ09OB3m9eo9nr53eJcuW5vadLbI8w/X4Gds/n8rOtngH2pu0do/gP2Rha8fPcK1cKUc/TOj1fMKjgyT80poqmo3ETp/L2+I3R8C7dR/fVyzNazes1m69HbF8y/S4Gds/kuBWplg/2otR+aDZp/rcjhtyx4+X4I++GucfX3h/GLPmZ5RjQV1RupiO2tnHPEHq9oSDXIj9XvNmcrz0w7aJKp9vfEmv1GfI8S9zPFXtzfgxEDNP8jdTbXVpuDnTDyYMn3Hawn+FhyjGgoCDMCt7rmVXOuxIvPOY+9Pa3EuccR81DgLQpYfivekmvlPLAPlXfnf/9D8197f4bsdNOhv4fOD1q0XiIRTRZhRuBWl79q3pX3QtapPIuVOVevQ/CDAqsKyHO46gt7PwWwD35aRiCh+Y9QNQmTD5dsNHguiUJKGGtOEU1W1SY4Q/gIPU95V+TEOck65XcauYbovfWwP0Yo0FOgVTdvmuvlvTtP2uDvvgLYh/t70GOA5r+nzEPm9eHS3w9Jo0tzJZ+oxjAKt5t0oYWKuVfkRFtGtcqP3sIe55X61pj4fq4CXCfW8bmZ2phbdXiCnS3j77Ci/cJfTQXQ/NfcFzOr1mVodi5uuHJxUHPVa7BO04zCPeWV5V8t/2p8LPsw4rxS55ZYsKmngL6n6zEEIy8F9F5X+fbKbxUH99uqYjn2aP5zdEaUDQVWLg1qrkYN1kb4H5co3J8AD3ippEElLitb1+O9Uucr8WB7TwHd8N1jgshQ4D8FdE3yd7Q+uN+iFd7DR/O/pxu8EhRYuTSoseo1V6dUo3BPeWX7V9GhCo9V/Ue8V2p9NS7s4xXgRorH+IiIAAV8FMi4ezJi+KjxPSho/r9nrx+V6eplMWqsThOPxD7llu1PWtzW43b8E8173Ffr/YQDfM8UoL3SzxkivKHAXQW4nqNY4H6LUnYfF83/vnbwDFRg9bLoNVUeFCOxPfhlY5AetzW5Hf9E8xb31Xo/iQ/fNQW4MeJxzRvWUOA5CkTeQ5HYz1G4DlM0/3X2AkyEAqsXRauhEnBHr5HYR8QuO9/U5WZsD9lb/Fdr3oMHMH4rQPsgn98WmIEC71Ug6h6Kwn3vTsRmhuY/Vl+gbyqwelG0mqnN0E23aPxm0AdM3tLlVlzPLWnlgKbTU2EbltR89d6xRYAVFHiWAlHnIAr3WerWYIvmv8Y+gIVSYPWSaDVSCvLoMxr/iNxlZ9ImW5/seFESj7RbPQNRHN+IS9ry88b8kBMUOFUg4v6JwDzN81v90fx/684Xz3v1kohuBqPxi2+HiV6mRpmxTMkfGPVyWT0DBxS+wpX05OcrEkaSUOBAgaj7Jwr3INWvdEXz/5XbXj/plQuCmqdeA+WVaTS+F8/bOJk6yVj0Lr9v67Aav8d95RysxvwGe9KPn2/IFzlCAU8FIu6fCEzPnL8FC83/t+z0g/JcvRwyGr9ec/YgWVOo8l7MxhUyMyy5NxZbab/CI9J2xGn1PETyfAI26cXPE/iCIxSorEDE/ROBWVnDitzQ/FfclS/ntHMxjJonDzmj8T043sIgbeRDPPhbc+L51VHjcIzWvGVuJb4Fz8OGOLX+ds5DC+fNc6QRP2/OE7lBgWwFIu6fCMxsXZ4eD83/03fwhfx3LoZe4+QlTzS+F89MHG6gRzEjdYvEljlxnq1R2p2+j/LZOROnfKr7kyb8VOcKflDgyQpE3D8RmE/WOJs7mv9sxRFvqsDOpTBqnKYBjQYZMYxUrppxE2wlEaVbFK41L7JjLXhc8W3ZjnLaORetGE+eIw34eXIe4A4FnqaA9/3jjfc0PW/zRfN/ewcQ/5cCO5fCqGn6FWBzIiPGJrUUt5MGN0K7Ez5RgjGn3XxHfjvnIirPTFzKm5/MuIgFBaDAPwUi7p8IzH+M8TZSAM3/SB2sXVFg50IYNU1eSWTE8OLqhUM583OKGaFfBOZpnqf+o5x2zsYpnxv+lCc/N+IjJhSAAr8V8L5/vPF+M8ZMTwE0/z1lMJ+mAP/Iy3E1ODeorXEVq2fPTVkrRsZcj5f3vM7FE5819ML0xvPidYIzyunNP5Yn5/9Eb/hCAShgU8Dz/uHzbosMK28F0Px7Kwq8JQU8LxMdWDexXt86jv7mS02P2m7124v/DGeV16o9xff688Ty4uSBM8or8sx4cF/F4HOy6gd7KAAF8hU4uX/4rJ9g5Gf8zoho/t+5r4/J6gmXwKgRk0LzxSbn5PtsXdq++d2qp0UDTyxLvCybWV5PODcjrfgsPD2PUY5YgwJvVWD13PJ5f6seT8wLzf8Td+1lnFcvkhvpezZjT8g3WuOZntb4hOOFZY2ZZTfK64k1xA3AE7ln7TniQIEnKGA9w3zmn5DTt3FE8/9tO140X+tlcou+dyNWPd9onUd6rsb2xFqNHWk/y+spNYQGILJKgA0F7igwun9w5u/syUpUNP8rasE2VIHRZdILzJfMjm8PszdPzVgrTmuuh8HzOz7s+5Zx1txa8/TCscbLtJvlVrWOiBc/mXohFhSAAnkK6PsHZz5P+9NIaP5PFYS/qwJ8echRBuB5mqN3+cdrPMq1k3fG40asFXcHX+PsYDzVh7RkPU9z8MI55RHhP8utWg3xWYnQAphQAArUUoDPO4+12IHNSAE0/yN1sFZCAb5YaOQ/+c5zepR+LXte1376W/pyMybn5Lv2HX1z/F3/EfYT1khL1vOErwfGSfxo31l+t+vn2+s4ev+BDwWgABTwVgDNv7eiwCupgGxQ+J2I9hontumta9+R3UyQE98ZdvX1WWNr4e+BYYlzy2aW3636obi3Yt/aC8SFAlAACrxBATT/b9hF5DBVYNSk8Bo3M/w9Bf37jwf2s9j3bFZi9jCeNk9NLT8n3GfN8Qn2U3wz68ej3p+iK3hCASgABd6oAJr/N+4qclpWILN5apG7Hb/FKWvutHk/9c/KMzpOdA2h6Y/eQeBDASgABXIUQPOfozOiQIGhAtGN2zD45cXT5v3U/3L6buGjaghNv9sWAQgKQAEoUEIBNP8ltgEkoED/f//gG7Q5aeBPfN+mrec/AND0v606kA8UgAJQ4D8F0PyjEqBAEQU8G7ciKZlp7Dbwu35mYg80PK0jNP0P3HRQhgJQAAosKIDmf0EsmEKBaAVOG7dofpH4O438jk9kDlWwd+oITX+V3QMPKAAFoECsAmj+Y/UFOhRYUmCnaVsKUNh4p5Hf8SksgRu1lTpC0+8mO4CgABSAAo9QAM3/I7YJJL9FgZWm7Y2arDbzq/Zv1KyX06yW0PT3lMM8FIACUODdCqD5f/f+IruHKTBr2B6WzjLd1WZ+1X6Z0MMdWvWEpv/hmwr6UAAKQIFDBdD8HwoIdyjgrUCrYfOOURlvpaFfsa2ccxQ3WUto+qNUBi4UgAJQ4FkKoPl/1n6B7RcoIBu2L0j3V4orDf2K7a9AXzKBpv9LNhppQgEoAAWMCqD5NwoFMyiQqQD+AfB/JrnR/PdlQtPf1wYrUAAKQIFvVgDN/zfvPnIvrcA3N2/Wpt5qV3qjncl9c904Swk4KAAFoMArFUDz/8ptRVJvUoCbORq/5Y+aektjb7H5Fs24Tr4lX+QJBaAAFIACewqg+d/TDV5Q4IoC3/YPgJnIaP7/9z80/bMqwToUgAJQAApIBdD8SzXwDgUeoMC3NHuW//T/m5v/b6mDBxxJUIQCUAAKPEoBNP+P2i6QhQL/FODmj8a3/n1zc9/bU9733jrmoQAUgAJQAAqMFEDzP1IHa1DgIQq8tSFE8/+vAN+6x/8yxBsUgAJQAApkKIDmP0NlxIACSQq88X8K8O3/AEDTn3R4EAYKQAEo8CUKoPn/ko1Gmt+jwNv+AfCtzT+a/u85s8gUCkABKJCpAJr/TLURCwokKYB/ACQJHRAGTX+AqICEAlAACkCBHwXQ/P9IgRco8B4F3tZA0n/6//b/CcDb9uw9pwmZQAEoAAXepQCa/3ftJ7KBAh8KvOl/AvDW5h9N/0fJ4gMKQAEoAAWCFUDzHyww4KHAbQX4HwA83uZzEv9N/wBA039SCfCFAlAACkCBXQXQ/O8qBz8o8CAFuPHncZV6laa7Co9V/aQ9mn6pBt6hABSAAlAgWwE0/9mKIx4UuKjAbvNPlKs03lV4rG4jmv5VxWAPBaAAFIACEQqg+Y9QFZhQoKgCJ80/pVSh8a7AYWV70fSvqAVbKAAFoAAUiFYAzX+0wsCHAoUU8Gj+KzTfFThYtvVUb0sM2EABKAAFoAAUWFEAzf+KWrCFAg9X4C3NaPXmH/9p/8MPCuhDASgABV6sAJr/F28uUoMCWoG3NP+UV8V/AKDp1xWHbygABaAAFKimAJr/ajsCPlAgWIG3/AOgWvP/Fl2Dyw/wUAAKQAEocFkBNP+XNwDhoUCmAm9rUCv8AwD/aX9mBSMWFIACUAAKnCqA5v9UQfhDgQcpgObfd7PepqevOkCDAlAACkCBigqg+a+4K+AEBYIUQLPqIyz+034fHYECBaAAFIAC+Qqg+c/XHBGhwBUF0LD6yI5/QPnoCBQoAAWgABS4owCa/zu6IyoUSFUADauP3NDRR0egQAEoAAWgwD0F0Pzf0x6RoUCaAmhaz6WGhucaAgEKQAEoAAXuK4Dm//4egAEUSFEAzeu+zNBuXzt4QgEoAAWgQC0F0PzX2g+wgQIhCqB53ZOVdIN2e9rBCwpAASgABWoqgOa/5r6AFRRwUwDN656U0G1PN3hBASgABaBAbQXQ/NfeH7CDAi4KoJFdkxF6rekFaygABaAAFHiOAmj+n7NXYAoFjhRAQ2uTz6IT2VjsbBFhBQWgABSAAlAgTwE0/3laIxIUuKoAmtW5/FaN0PzPtYQFFIACUAAK1FQAzX/NfQErKOCuABrWvqTQpq8NVqAAFIACUOBdCqD5f9d+IhsoMFTA+p9sD0FetghNXrahSAcKQAEoAAWGCqD5H8qDRSjwLgXQ6H7uJ/T41ANfUAAKQAEo8H4F0Py/f4+RIRT4UAAN739yQIePssAHFIACUAAKfIkCaP6/ZKORJhRgBdD0/g//l3q4GDBCASgABaDA1ymA5v/rthwJf7sC3978f3v+317/yB8KQAEo8O0KoPn/9gpA/l+nwLc2v5R3Vu4ci8evKzIkDAWgABSAAmUVQPNfdmtADArEKJDVAMew30PNzLnV8Lfm9jKBFxSAAlAACkCBMwXQ/J/pB28o8DgFMhvhCuLcylc2/PK9gibgAAWgABSAAt+rAJr/7917ZP7FCtxqiLMlr5BnBQ7ZuiMeFIACUAAK1FUAzX/dvQEzKBCmwDc0pN+QY1iBABgKQAEoAAVeqwCa/9duLRKDAn0F3t4Yvz2//s5iBQpAASgABaDAWAE0/2N9sAoFXqnAW5tjyqtiblV5vbK4kRQUgAJQAAoMFUDzP5QHi1DgnQpUbJBPla6cU2Vup7rDHwpAASgABZ6lAJr/Z+0X2EIBFwVkM0rvu48LmQMQyfsABq5QAApAASgABb5GATT/X7PVSBQKfCrAjfPn7NoXY6yOa1H+Wes4/1bwBgWgABSAAlAAClgUQPNvUQk2UAAKuCqgm3jrtysJgEEBKAAFoAAU+EIF0Px/4aYjZSgABaAAFIACUAAKQIHvVOD/AVCzZHj3SMMWAAAAAElFTkSuQmCC;" vertex="1" parent="wv0-XXs7hmUBtiv9ncpi-6">
          <mxGeometry width="540" height="509.73" as="geometry" />
        </mxCell>
        <mxCell id="wv0-XXs7hmUBtiv9ncpi-4" value="&lt;font face=&quot;Times New Roman&quot; style=&quot;font-size: 20px;&quot;&gt;&lt;b&gt;1：700,000&lt;/b&gt;&lt;/font&gt;" style="rounded=0;whiteSpace=wrap;html=1;strokeWidth=1;" vertex="1" parent="wv0-XXs7hmUBtiv9ncpi-6">
          <mxGeometry width="120" height="60" as="geometry" />
        </mxCell>
        <mxCell id="wv0-XXs7hmUBtiv9ncpi-9" value="" style="group" vertex="1" connectable="0" parent="wv0-XXs7hmUBtiv9ncpi-6">
          <mxGeometry x="33" y="80" width="18.660000000000004" height="70" as="geometry" />
        </mxCell>
        <mxCell id="wv0-XXs7hmUBtiv9ncpi-10" value="" style="triangle;whiteSpace=wrap;html=1;rotation=-90;fillColor=#000000;" vertex="1" parent="wv0-XXs7hmUBtiv9ncpi-9">
          <mxGeometry x="-13.61" y="18.65" width="32.27" height="25.23" as="geometry" />
        </mxCell>
        <mxCell id="wv0-XXs7hmUBtiv9ncpi-11" value="&lt;font style=&quot;font-size: 30px;&quot;&gt;N&lt;/font&gt;" style="text;html=1;align=center;verticalAlign=middle;whiteSpace=wrap;rounded=0;" vertex="1" parent="wv0-XXs7hmUBtiv9ncpi-6">
          <mxGeometry x="54.14" y="129" width="11.72" height="21" as="geometry" />
        </mxCell>
        <mxCell id="wv0-XXs7hmUBtiv9ncpi-13" value="" style="endArrow=none;html=1;rounded=0;strokeColor=#FF3333;entryX=0;entryY=1;entryDx=0;entryDy=0;" edge="1" parent="wv0-XXs7hmUBtiv9ncpi-6" target="wv0-XXs7hmUBtiv9ncpi-1">
          <mxGeometry width="50" height="50" relative="1" as="geometry">
            <mxPoint x="330" y="340" as="sourcePoint" />
            <mxPoint x="713" y="-80" as="targetPoint" />
          </mxGeometry>
        </mxCell>
        <mxCell id="wv0-XXs7hmUBtiv9ncpi-7" value="" style="group" vertex="1" connectable="0" parent="1">
          <mxGeometry x="350" y="860" width="711" height="725" as="geometry" />
        </mxCell>
        <mxCell id="wv0-XXs7hmUBtiv9ncpi-1" value="" style="shape=image;verticalLabelPosition=bottom;labelBackgroundColor=default;verticalAlign=top;aspect=fixed;imageAspect=0;image=data:image/png,iVBORw0KGgoAAAANSUhEUgAAAscAAALVCAYAAAAs6Ey+AAAgAElEQVR4Aey9W7JkK64EmJ93RD2e/joD6nHVnLJNO8NjKxTiLUCwhFlesUAPl0sQVNapc//8jZFk4L///kvu/T//7/+X3Ltxg/Llfzzk+OfPnyIMrsPnZNj6jWBkV7KFLpcpG/jTJLe3mKOGFr7CRx8DT7s7cizl7ticXewFA8GAbwZOP9vl14Vv/qejSxX4CT9weEh5zVV7TGpraBJtr7QGWy7JRg74kev8W9rhW7PFHre3mnutp1V+J/iJGvxWKXXH/mrELBgIBk5kgM72qef7+1f+xApMxJwq7I0/bpQT/zORVhPXuQckHpxch88JgPyWoLR9bQ12tFfahy7iQx8S61zPen5j71pztMJf1OGX5dQ9+6sRs2AgGDiVgRMfyfrjmP5mLP5kOfj5YbuAo4/H8GH5/DwoC5hTOrSe2kv1fo1NTgd7UiIeX8faDHlL787gZrVPnL/VcSNe/MZFD0QPPL4HMv9pI/04zhjF1t+fv2E9lQf8IP88kk5NouJvfik1enDKwR+huTm3g55c49+Ya7rYI0n72oBdal+z6VlD/Xtsw8aegaiHPafhMRgIBoKBLAOJ32HYpH6lsR8ywcBJD0v8+EImUjpumT8mc3OeGPT4mpxLHfkNfVpPDW0Pa5CwpW++hm9I6FnKk/rXMm/PvqImnqsT2IKBYOAqBjK/35Sn/uteMLqKoM5kTvghu+0xLEvFH5Ryj77l45J/8zm3Ta1zHc233Ne+yTe3RSysazaz1k7o31m5e/YbdfFcncAWDAQD1zBQeOfG47iz0t5/xLzj66T9bYaH5XtBmZR05L78Vly+l0iXD/nN9zCHDiRfpzX5B/sz5O39MYOzVT6jNquYjjjBQDDwWAbEb7jk4fMXHrsFI6g9WXr9ASNcXrFZ9ot8YGq+8djU9rAGHUis56QWu8YedpCIIb9pXVuDvoV8Sp9YcLXDxxPO8A5eI2YwEAwEAz8MFN658Tju7BNvP15PeuzQw7Hm8ZjTwx5kbRvk9GkvN7APCV35TevaGvStpLcetsprtZ9ZPM7yu5qfiBcMBAPBgDsGSr/XKuCCkWrzsEUvj1EvOFaWP/dwpD3+h+Pi6zkf3IbPYc/XMMdezi/2pC7W4Yuktsb3Lebx+LJgce6/ueaJ59umKuElGAgGgoEMA4V3rv5XXQWjTLhHbe18XMSP5vpW449abU6IsC7RYR2S72NNk1zPer6zf61z2elvNo9x1ndWN2IHA8HAlQwU3rnxOB6o+o4frR0xByh6pCk9cluGpo+HcoufVt3opVbGdH3iccZAfbicESd8BgPBQDDwOAYKv9P6r3jB6HEkZhKe9cOohVwZS4sfa/cxED1lU9NRHsk+94dQYt8GcXgJBoKBYODBDBTeufE4NuiN0R/GEoT4USwxFPu9DMzu3V5cp9m18IjznJK53GGT04m9YCAYCAaCgQID8TguEGS03fLjWBsyfghrmQq9XgZm9G0vlpPtcjziHKdkT965eD3+wiYYCAaCgUcxEI/jdeW2+sHCj+g65BHpqQxEr9lUHjzmpE2kXy8UK0YwEAwEA8FABwPxOO4gbcAEP469LuIHr5e5sOtlIHqunTmc85Rs99hnEbXr4y2sgoFg4OEMxON4fQPgB7Mlco9Ni//QDQZSDMQDK8XMv3WczZTMW8/fjfrN5zgiBAPBwGUMxON4X0HxY5pDUKOTs4+9YGCUgXhc/TKI80iS/nV6/NszT56x/bIbs2AgGAgGnDAQj+P9hcAPrEQSP2iSkfjewUCqP3dgWRkTeXPJH8T4d01LuRJjbSzkUKsfesFAMBAMPJqBeBz7KT9+wCD9IAskT2eAevLmgTMnpXz40jcNrHNOsMfXPM1vr6EnrgNLMBAMHM5API79FFD+MPtBFkiezsANDyt5vlLfvNbywYvvEx/HlNcNdeT1iXkwEAwEA1MY+PPn73///ffzR/Mf/09ANFaM1/AjLd1iPX7QJDPxvZqBE3uQnx8NP/bx4NU4lXv4TknNh6c15OwJU2AJBoKBYMAdA+xvjrVHcjyOJ1YMP1TaDzcPW6vHbWIeDFgygB609GnpC/i45P5pnR602j6tyz+w5Y9groN9kljna57nxEGMYCAYCAaCgQwD7HEMLf5IjscxWDGU2g90jfteuxrfoRMM5BhA7+V0duwBV0kSNjx0gROPWrkudbEPCXvoYZ0k/nAdb3PiKkYwEAwEA8FAhgHlcQxteiTH4xhsGEn8iI+4g4/4kRthMWxbGfDQb7z3McfjlPLB4xQSOeIbErrYxzf2Scoh16Ar9bx/gzfvOANfMBAMBAPbGFB+AziW718I2i0YcQcx/8fAjB8k+CQZIxiYzcDqPuP9jTlyxMNUSuyT5I9Z6Ml9rHNdzZavaTZ8TfriMb3MV9fSS96BIxgIBoKBKgYK79x4HFexmFaSP+ppzf6dFTH60YXlLQzM6jP4lVLyxh+gco++5T5/pPI5bLU17kfqwT9fl2uwh45XCa694gtcwUAwEAxsZSAex/b044eH5KqBmKviRZznMdDaY9Dn54CvYV7LJB6zeJBKyf1AF2tSF/u5dW6rzWkNfrCfWuP7Xua8Ll4wBY5gIBgIBlwwEI9juzLgx37nj87O2HZMhievDNT2Fz8LfD6Sl/YQJX/aAzenyzFwPT6HX+hiD1Ku41va8XVvc9TFG67AEwwEA8HAdgbicTxeAvzIkPQwgMcDlsBwFwNeepweqfijMSwfsdDJrcMfl9JO7sEfX8cabL3KuCe8ViZwBQPBwHYG4nHcVwL8sHh5LMgsvOKSOOP7LAbQ97tR8weofJjiW2LEOiTt8zm+uR3tYx26WOPr3OakedwTJ1UrsAYDwcAyBnY9jvEj2ypXEaP9aHCsq3CMxNFyGPEXtsEAzsBuJrSHKjDV7HFdzEnyhy++4Y/rYS71sX6K9FLPU/gKnMFAMPAQBlY9jnEJc9lKMbfl81Y/JX3um89Ldh73CX+MYMCSAU89hYcrl8gVa/iG5A9aPqd9fMMW37C9UXqq5438Rk7BQDBwIAOzHsf8UYn5DHrgW8qeWNIHfd8wbsnjhlrckMPuftIerlgDv/jWHrdYgw5sSGKPr90+x713e56RXzAQDAQD1QxYPI5xuUpZDcJYUeJo+QYU2OD7ZHlTLifX4Rbs1E87B3/A4oErJfBxXb6mrdN+ah22N8q4H26sauQUDAQDQwz0PI5xmXI5BGKRMcdL89yAbk7npL1SviflElj3MuDhbOAxzJmQD1tNh/SlHvfx1HncD0+tfOQdDAQDKgM1j2P8GHKpOrtsEfnekNZNudxQj9NzoH7aOfgDF49gKQkf19uJ13vsuB+8VyjwBQPBwFIGSo9j9dIsGC1NYGIwNfeJ8Wa73v2gmZ1f+F/HwO5e4g/hdVnfHWl3Te9mN7ILBoKBoxgovHP//Us+ZUYFI6ke3z4YuO2x74PVZ6KIh9RddcfdEHW9q66RTTAQDHQyUHjnxuO4k1evZvHj57UyZ+HCY+os1IFWY4DXMu4HjaFYCwaCgccxEI/jZ5Wc/xA+K/PI1pKB6CNLNvf5knWMx/G+WkTkYCAYcMRAPI4dFWMBFPljuCBkhLiUgXhInV3YVP1S62dnG+iDgWAgGGhgIB7HDWRdoho/fpcUcnMa0UebCzAQPlc72svtD4QN02AgGAgGzmAgHsdn1MkSZfz4WbL5XF/RR+fVvqZmNTrnZR6Ig4FgIBhoYCAexw1kXaRKP4AxgoFRBqKPRhlcY48Hb229oL8GXUQJBoKBYMAZA/E4dlaQhXBqfygXQopQhzEQPeS7YHjk9tSpx8Y3G4EuGAgGgoFKBuJxXEnUhWrx43dhURenhMfX4rARrsAA6jJyxuGjECq2g4FgIBi4j4F4HN9X09qM4sevlqnQSzEQPZRiZs866kHSYlj5scASPoKBYCAYWMZAPI6XUe0yUPz4uSzLUaCih/aXi2qAP5ZoZvi0xBe+goFgIBiYwkA8jqfQeozT+PE7plRugUYPlUtD92zhri07UTTAPclZAzFm+Q+/wUAwEAy4Y6BwYcf/+2h3FbMHNPOH1R5tePTGQDye8hXBwxgyr13eBd+QZYtxjbgjxjkMD8FAMHAQA/E4PqhYk6DGD98kYh/kNnooXWw8iiHTmvkdPIZ3cI3YeYSxGwwEA8HAJQzE4/iSQg6kET98A+SF6Q8DOx5sp1CPRzFkD24PZ9QDhh7uwiYYCAaCgWYGSo9j9UevYNQMIgy2M6DWeTuqAHAKA1c+nPCaNbjv4Kq1nt54jXuitYKhHwwEA0cyULj3/6iXYcHoSCIeDlqt88M5ifTbGLiqh/Ca5bKNjmFt4tMbpx4xDRMdDoKBYCAYkAwU3rnxOJaEXfodP3qXFnZhWt4eckOp80cx5kMO6429n0Xv+OqZDs1gIBgIBhIM1DyOv370CkaJULHsnIGvOjvHG/B8MXDVowkPYi4X0H0ChydgXFCqCBEMBAM3M1B45/78q9y+Hk0Fo5v5ujm3rzrfnGzkNoWBq3po4cP4tAfnaXinNHs4DQaCgXsZKLxz43F8b+m/MosfvC9KYqGRgasex42596jjzJ3IG7D35B02wUAwEAy4ZqD2cfxxeReMXCcc4LIMfNQ5qxmbwcA3A/Fg+uZEWwFPJ5835KDlF2vBQDAQDBzNQOGd+/7/kPdxiReMjibk4eA/6vxwLiL9Pgaih9K84UF5C0fIJ51x7AQDwUAwcCADhXduPI4PrOkI5Ft+tEc4CNsxBqKHvvnDI/JGbpDbd9axEgwEA8HAoQy0PI7fF3vB6FAqAvbfvz//XtV3nYORYKCDgXgs/ZIGLm4+U8jxN+uYBQPBQDBwOAOFd+77b44pzfcFXzA6nJLHw3/X+fFMBAG9DDy9h/BgfAoPyLe3X8IuGAgGggFXDBTeufE4dlWtNWCe8oO+hs1nRnlqD+GR+MT8n5jzM093ZB0MPICB1sfxzwVYMHoAbdelyH/U40fuuvIuT+iJPYQztJxsJwGfnr+TMgSMYCAYsGCg8M79+Jtjivfzo1cwssAVPtYwkPpB+6nzGggR5UIGUn11Yarxz+mzoj6p7iztmAYDwcBtDBTeufE4vq3gLJ/cD1k8jhlRMe1i4PYewvm5Pc+W4oOTFpvQDQaCgWDAHQM9j+P4MXBXximAos5TaH2M01v7Bw/AW/MbbVDwM+on7IOBYCAY2MZAPI63Ue8+cPzIuS+Ra4A3Ph7jTNS1XPBUx1NoBQPBgFMGah7HuOjwYwfpNKWAZchA1NqQzIe5wr1xQ9o35bKiHsHXCpYjRjAQDExjoPQ41h5HcfFNK4dLx1oPuAQaoNwxcHrvxF3X31LBXT93YRkMBAObGSg9jlV4f/78/j8EURVi8SYG4kfupmquzeXUxzF6/lT8a6usRwN3kLpWrAYDwUAw4JCBeBw7LIpDSPED57AoB0A6rW8IL/4cQK97iMGl+xIFwGAgGNAYGHkcn/bDp+Ufa3UMxI9cHU+h9cnASX1zEtZPln1/Ba++6xPogoFgQGGg93FMrujSi/EcBuJH7jm1tszU+z0RfW1Z7W9fwe83JzeueD/nN3IeOU1kIB7HE8m90HVcgBcWdXJKnnvGM7bJZVnqnngOrpdSvixY1HYZ1RFoJQOjj+O48FZWy0esqLmPOpyCwuOPp0dMp9SzF2fcG73M+baLuvquT6DrZGDkcUwh42B0En+wWTwsDi7eJuie7ono3z1NELzv4X1mVE/nemae4fuBDMTj+IFFN0g5LkUDEh/kwkO/xONsf8NFDfbXwAqBhzNtlUv4CQa+GLB4HMch+aL1EQtR90eU2STJXb1Ccfkfk2TCSTcDqEW3g9d/Wwk/JGOsZyB4X895RFzMwOjjmODGQVlcNCfh8APlBE7AcMzA6l5BvLib/DVFb014TfncX4Z3I+qt392sRHbXMRCP4+tKujShuCiX0n1sMDxmZiaAGNGTM1ke94061XiCLpc1dqEzh4E4W3N4Da8OGYjHscOiHAYpLszDCrYJ7ow+4Y+mGf43UXV1WNQslyR0uMzpx958BuJ8zec4IjhiIB7HjopxKBT8gB0KP2AvYsCqT+AHchH8CGPIQKp2WIc0DBmuOhmIWnQSF2ZnMxCP47Pr5wU9XaAxgoEcAyM/srCFzMWJPf8M8DpizqX/DJ6BEDV5RraRZTDAGIjHMSMjpkMMxEU6RN/1xq39AX3I6wl6UIKoKUka+H4QBe5TjZq4L1EAnMmA1eMYl9xMrOHbPwNxofqv0U6EpXsC/QO5E2vEtmcAdZXSPlJ4HGEA9RnxEbbBwNEMxOP46PK5BB8Xq8uyuADFewNzKV0ADRCmDMga82/TQOHMhAGqT4xg4NEMWDyOicA4TI9uIzX56AmVlsct8oeQNn8cIQ9KWNabp449vhbz/QxQXWIEA49nIB7Hj2+BqQTED+BUet06R90hAVR+Yz3kPQygxlxq2WFf24u1PQxETfbwHlEdMhCPY4dFuQxSXLiXFTSTTk2tSSfGXQyg7lzWZBi9UMPSOp2oxzquI5JzBuJx7LxAl8DDj+Yl6UQagoGW+rboijDx6YQB1FCTLRBh32ITunMYiFrM4TW8HspAPI4PLdyBsOPyPbBoFZCpri0j+qCFLR+6qFlKjqBs7Z+RWGGbZiDqkOYmdh7IgOXjOA7XAxuoMeXokUbCHKtTLXvq2WvnmIoroaFOqLH8tkoafq38hZ8+BlDnPuuwCgYuY8DqcUy0xOG6rDkmpRN9MonYRW5HHzOj9ovSfFwY1CUlZxJCMWPsYwA134cgIgcDzhiIx7GzgjwATlzE5xbZqnbxGNrfA6hlSq5ECAwrY0asXwbiPP5yEbNg4IeBeBxHI+xgIC7jHaz3x7R+vFj768/sWZbgXZPPYiKy5QxQP8QIBoIBxoD14zgOGSM3pkkG8OOcVIiN7QygRjPONHxvT/JyAOBZk5enHuk1MDDjjDeED9VgwB8Dlo9jyi4Omb8ae0UUveKzMvwhNQshYszy/2S/4FbKJ3MSuacZQJ+kNebvEIYYwYArBuJx7KocjwLj4VJ+FOGZZFELyIyq2Vb8INpQiZpp0iZCeLmZgd3ncHf8m2sbuQ0wMONxHM0+UJCHmUav7C048Y8/q5FE7fsZR82k7PcYlk9lYOc53Bn7qfWOvCsZsH4cU9ho+EryQ23bw+zJ1PMH1U4egAMY6C7CH6yF/McAuNJkcBQMjDBAPbVj7Iq7I9eIeSADsx7H0fgHNsMmyNEra4gnnvFnTcR8FI4Fj2Iu89b374IfKe/PPDJcxQB6a1U8xNkVF/FDBgNFBmY8jikoNX+MYKCGgbgoa1jq1wG/Hs8kMPFHMeb9GZ9pyevE52dmE6hPYAB9thorzv3quBEvGKhmIB7H1VSF4kQG4rK0J3fXD19LJrzueBQX7qQW9+51USMp3QMPgFcwwM/fqoR2xFyVW8S5iIHCD9EfNdWCEWziEICJkCUG8Dgo6cV+HQOn8HkKzjrWy1rIV5Nl69AIBmwZoD5cOVbHW5lbxLqMgcI7d/hxHIfhsoaZmE70yji5xOFJPJ6Gt6dCyFHKHl9Pszmpl0+rDfpxFe7V8VblFXEuZWDm45goi8vt0saZlFb0Szux+NE5lbtTcacqxesh5ymbWNcZAH/6bqyOMLCa29XxRrgJ22Dg51+dlKFh6G+OyW8ciAy7saUyQD0TI80AzhRkWvOMnRvqjVpIeUYF/KIEn34Rnots9bmLWp7bK49EPvtvjonU1YfwkYW8KOm4RL+LCU4gvzXOXTkxJ2DW5LmV8IkcHPtEdy4q4nX12BFzdY4R7xIGVjyOiao4FJc0zKI0nv6DiPwhF9G+JcwpOQInSRqp7y0kXhwUPF+c4pbU0Merg++KuzrPiHc4A/E4PryAF8N/0iWKBwCXF5f2KzWPtea1AD6+9pVE/CWARonJGvg3cRZO3v/BbgcVOEM7YkfMYKCagVWPYwIUF1x1WULxxcDNPYMfCcgnF91DnVEHSKoH5pClGpFeDHsGavm3j3ynx9187o5/Z1UjK1MG4nFsSmc4M2YgdYlinUvj0ObuOFaax/hlYBcfvCZAo61hryRhW9KL/TYGdvGKuLWyLat92shnH4L4y7Kd3EfsCgZWPo4JDh3KGMFACwP8Isdc9lFqvSXODF2OS2KeEe9Un+BpFX4ZD98WNbLwsYqHk+Ks4pX3AuYlnqBXkiU/q/aBc1W8VBzCESMYcMlAPI5dliVAMQZwkddcpNBl5kuniA+5NPjBwVbwhRgkachvK/rg18pf+PnHwGxe4R/Sinf4q5VWcXN+gCWns2LPC44VuUaMwxhY/TgmeuhAxAgGSgzg4kS/QJbsaB+2Nbq9OojBZa+vp9uBQ2se4FeT1rG4P4oXw56BWbzy/rBHXfbI4+fmZU/1GrO4rEfwT9MLjlbcoX85A/E4vrzAB6bHfxwk/JaLFH6kj95v+OOy11fYfTIATj9X+7+4Pz7v99hmuSNmG8Izta15hT+SngfHifkoXk85e8IyymvYX8LArsdxHIZLGsggDVz2XKbcQie1r6332JAf2HGp+T9ujQ49/jgBTxzTgOyBxevE5z2+LGxGcrGIf6sPK17RIyfyBOwjXIzYWnOGfKz9hr9goJuBHY9jAuvpYHaTF4ZdDOAi5LLFUW/vIJ4WC3tcanrHr+FRzKWDpFBTyFpIvF58Xms/U681l5lYbvKNOvfmBPsb6jOSi7f8veHp7a+wu4SBeBxfUsgD0hi5yHl68MPXauew1WStj6P1+KMYcwcJUT1oQOYg8drBpsYu53PGHnDO8P1knyO8jth65rwnL7LxNHpy8IQ/sFzGwK7HMdHo7XBeVloX6eDCs661tT8XZK0CgUdx4fCvgiNrKb8JB63hj/a9CmtrHC2XVh+h/80A74XvXX2lx0b35HMV+dX2XK3eymw9YlqZf8RyxEDh9/GPCrVgpNooi3EQFFIuWaLa4s+slKJ/ZjG7zq/WI1jjkhDJ73Uo+yMBc7+HsNQYaOEVuiSfMJBvKVePfNRiL+UW+8HAMAOFd+70x7HHAzpM6kMd4GJbVVPEeyjdV6SNXkEt8S2TS61LPY/fJ2P3yCcwlXilffyBzVMk8s5xlNvbyZNXXDs5idgbGNj5OKZ04yBsKLpxSKoh/hi7LrqL/ilS5FZB1g7fkAAuv7F+iiT8p+fgkWuNV6xx6RH7Kkw5HmjP4/CKyyNXgWkiA3/+/P3vv/+SAab+zTFFjYOQ5N71Br90d9YQOFyTFeA+GEjVDH0ESUZ8/uHkoI9Uvgel4BYquNWkW9AbgEl+CAKteR2esfVyJmugfff6DrsJDLz+5pgeyNojefrjmFK68SBMKJULl/xAuwAU/eOlDFkcWt/INe076/SgTcothh0DvFf43C7CnZ44V3LuKWNg84RJYgHGHil90Tf5ieGIAfGPVchHcjyOHdVqFxR5+HfhyMWNiyXHzto92S+ojVznqKCDNeji+3R5Wz676gEepdyF5/S4kkf+vTs3wrJy8Nxb5xY4EdPCV/gwYEA8juERf4u85HFMQVcfBCQaMs0ADusJtQHWdDaxY80AOJcScVLr2JeS9DH4HGunyxtzWlUTrZe0tVV4bo4jed3Zt6OxtVxq11bXGLhWx414CQYSj2PSpgdyPI4TvN26jANK8rRxIuZTOOZ9gTnHjjUu+X7NnGxpQNbYnKQDbk7C7AEr5w1zSMLH5x7w3oYB/HK5MkeKi8ExtM7hw6tEPl7xPQ5X5nFMXCx7HFMwfggeV4iNCeNQQm6EMhT6dPxDyRsZg0Mp4V6u4xv7ozLlj+6pwl01GnqJPeUXo44B9IKU0hr7cj2+5zAAvqVsiSZte79bYp6gSzzEcMJA4QcnHsdO6jQDBr+QZvjf4TMul3rWef0xhzW+pcT+LIl43D8expB877Q55RejzAD6ALJkUatX8hP77QyA+1FZikz+bx9PyPGYGnp6HBNp0RxzW0deYHOj7fEePfTNu6w75yi39+1p7gqw8Ch4FEPyvdPmWn6n5TALL7iBpDg0rxncpkY/dM5joLYXzsvsF3H08S8X22fxON5egiUAcOjigllC9/YgvN685nKd720HnfjnR/EohvSAcwSDN85Hchm1LfUj9mvitOjW+Asdfwzcfnaihx31nLfHMVFz+wFYVX4cNMhVcT3EeWIPoc48d77G1z3USMMAvHLvlocx5ZXKUeZ88zc4gMzlCh2SuQG9nE7snc3AE2pc6vOzK3gQ+ngcH1SsCqi4PCArTK5VeQIHyJEkhraGPe8S2L3jHMXH6zXq6xR71BayFTfsRmRrzND3xwDV/+Zxe37H1M7j45jIiwapbyH5Y1Fveb8muLklU+QDSXlhDnlyrjfkUMM/5fmUgZpa5yz9IQ54xXeNhE1I/wygnv6R9iGk/GI4YCAexw6K0AgBlwOXjS4epQ6eTk0a+EliaGvYO1kir5NzqMXO61lrc4oe6gi5AncqVukfyYEdyRhnMHBzrdCPZ1TiYpReH8dE+c0HoLalcFCkrLUPvX8McP68c8Kx0pyGtuY9jx58yLPH9jQb1PY03Cm8qB1kSm/WuhYXD2PIXGzYk4zhn4Fb64Q+9F+ByxHG49hXgXEwuPSF8Gw0XnnVcGlrZ7Nfh57yfsJAfU/OFTlA7sxFw4BHMWQNPvghGcMvAzfX5+bc/HaUQOb5cUxQZzQJ+Sz9ETSZfu6MbZrIwc54DVanwWNjDgz4JvnUAQ6ekP+JdUZ9IL3UKcVly8NY5oIcU76lfnyvZeDWuqDv1rIZ0T4YeMrjGM0G+UGC+IDObCnCxucGBniNZ4Tn/jHncbAGyfeeOn8SF5TrKQN18YgZ2GZxCf8ec5+V8wl+b67Hzbmd0Ft/vT+OicSRJiFb/JldEMThcnbM8G/HAK8bzXtGyodcx3dPjJttwDvkzbkiN6+5okchgdejXMUhuKyazV8AACAASURBVFgVzyPX3jDdWgv0mje+H4Pn1sdxNNZjWtg8UfROjzQH80CHnPcnpE/5ehkncg/MqzncFXd1nt7j3VwHyi3GJgZOeRzXNAkOSY3uJroj7GEMRE+tLxjOL+R6BGsjosfWRv2Nhvin8r0b9+n8/XbCubPdPTCLOfTWLP/hN8PACY9jgp9rfjRQTidDQWwFA0UGoseKFJkp4BxDmjl27GhHruhpx7QUoXnKAVh21LJI1AMUbuUdffWAEvpK8dTHMRrm1gPhq0sCDWcgeo+zYT/nZ5rP7SP58Yiemo0IcW7h1Wse4Hl2PcP/LwNee+EXYf/s5tz6WZlsedLjGBcO5GRqnueemgF/npd9c8bow7i4mqkrGoBTyKLBBQqzciW/+HMBTe8UTsgJGEnGmM/ArTyjj+YzGBHeDJzwOEZj3Nr472LsnOBRzOVOPIfFjh61Lxg4tffs06Pl/QbuLH16Yg35ecKUwwK8t9Yjl/vKvZv5vTm3lT1SHcvz41heKNEc1WVtV+SP4te80BvtMR5gIXv2ASlHioYMjNxxT+q9EZ4My9Xs6kk1aibHyODU3iilj94p6cW+EQOFB9AfNUzBSLVpWEw1QWq9wXWophh4PYjf/1jFnz/vacok1tMMoFdJxggGahlo7Zcn9hlyruXUqx7yaK2513w84bqVU/SMJ66vxVJ45y57HKPopaYu7V9bqBWJsQcym66IfG0M9PW1CS5I7ElnvqZfoPMkXnibVeeNS4wbO5w/vZ6zSlLdJ7MATPJ7a16T6Op3u/txjIuhNoNojFqm+vXwmwLZ7yksiYHWHg/WPhl4Gn+pO+5pPHx2wb+vag5weUFqzpytIbdU/Z3BdQ8HfLoH2gjw1rwaaZivTndHZui7BaOMv/dWb4F77d6BY1LFwEG/KVX5eFCi3o3Rx8CTuON3HOZPyj/VIeAitf+xjgsM8mPT9wfyjJqP1wlcjnvy5SF6Y0E9Cu9c88exRbNGYyxojAgxhYHo3T5an8Qb7sgn5VzTFeClRvf9P5g48HHM80PO0Quclbb5jdyhL9qYCO0mBlY8jlFIqya18tNEVCgHAwYM4CwYuHqUi9t5Q3642yAfVeRMsuAno/K9dfjDmCeE/KMvOCv18xt5uzGn+oou0Jz5OJ51oKMpFjRGhJjGQPRvH7U38oY7UjKSWpd6T/m+sfY9tUNfBB/t7N3GGXqhnYmwqGJgxuMYRZvZjDN9VxEXSsHAAAPRv+3k4V5pt/RlgTxKPVDa95XVPDTga16EczzzngAvfO2cTPYgvY0r9MAeNi+Pavk4RqFWNOCKGJeXPtLbyADOykYIR4Y+9dyj3i34W3SPLGYFaPBWofoIFa0nwJG29whSGpK8jSPUvoGCUK1lwOJxvKNAtzV5bb1C7x4Goofba3kSZ7gXRzCP2Laz68/i6fnLiuT4oD38kXbx/ctAjsNfrXNmJ9fcdS16H8coyM7kdsY+5+gEUs8MRA+3VQf3TtKKLjT8SSrN3ShibAj/5P6w5LGBchtV9GDhB7Y1WG0/HM1dKykd+rU8drjeYnJiPu57tHB2v/5VbkjIQzE8YNhyEiLoNQzgPF2T0IJEkueeP0gwX4CHQqCOSWydOKz9dcJYbgY+lwe2CIje49LC76vPWlwdzWNLoh26N52t0+p8BF46v5nx3kUyPw1VMMr4M936wWLqMZydwMBtdb8tn9k9RHypnPHHCOaTwSSxGMVV8zTy7dXNbE6n543e49IoaA83sHliL+VoBy85nZP2TsnnFJw//w1kpgH+qInQoXcwVGwOcAWEuQxQ3W8bN+Y0q0bZcz/hQSLzQPwVNVsRQ+a38xvc7sRgEntSH47wM2JrwolDJzedrxPqewLGd5sW3rn6K7hg9Ha+YHJTcy+g64oQN9b8qEtjYRfhjSFD7uDrKTEl1yu/d3C8Mr9srFSzMyMLfix8MEjHT4mPW4bn2nrGpta/8M6Nx7HKWizuZOC4Q1ZJ1k2XdGXKWTW8FSC58soeWBmL50jznbElltnfT8r1i0s0OeSXwr8FK46s/CRgHrdMfNwyPOZyZL/RWcwMfbdglPFnvnUk6eYsPM+hxwvAogq35tXDDd4JkNLHzLMP37vrARwy96O/UVD2O3JlnlQkJVe1dlyP8SJ1rfvxWt4lcYXvm3jwlos3PIVW+N3OnENScv84JpBEfoxnMXBrzY+9SCa1H94MmvsZXM3wqWGvXfOGpxZ3Ug8FZfK6HJE8y/H9SMaeJqGv7b3WiCvrAf5n+LbGOtPfTfl7yQW9NbNu03zTecwMfbdglPE3ZctLI0xJLpyqDNxc85tzU4s5sGh1+Q77qXjY9KZ5VT+AJyaHue8ldrYdy7HqcVyBZ2YvXFuHCl6hMpNfxFghPdTSA4Yhrun8Zoa+WzDK+JuydXwRprByt9Oba35zbtZdOcIVbEkODfkIGnL2bTyM79vlvhXJ1Z8/9/43f0quo8TP7gWciVGcJ9vP5ngVNztruTO2Gb+Fd+4Rj2Mi45aGNivsAxzdXPObc7NuzdaLuFW/iDf3COJ7RUe6wnW9wDi5LjdZQpar3Gr9TvatYQzClIzTCvhQ/Vvy35XHrrjm7UbnKjP03YJRxt+0LSpIjGcxcHPNb87NuktrL+NavWZ8/HFSmjc7v/c/+EePtzWDypfWb21uVW01lqp55+It+VMeK3NZHW9q9xXeufE4nsp+OB9hYOWhH8HZa3t7fr28SLvShVzal/66vrVHirbW4fzGPlhSkw6uPZuofWDUY1reajxN8dK1W/JfkQfFWBFnaavd8jgm0q4rztJOOC/YlQeSlSH6mZFRmuKR8NJDbyzlEBhy8oWPq5RSW5pDCYzBPmpj4OpRLtQ+4I2EuRErUac73hQz6gifkEYt58sNnafM0HcLRhl/U7eoUDGexcDNNb/64rFsUzwKXnJrTwAL8sM3ydfgS5hjT5O39cHW+mgEH7CW7AE0EJeG+STjGsbw7Go0f9jfKD3XzQQbnanM0HcLRhl/U7eoAWM8i4Gba44L9VkV7ciWPwyc3k08Kwm3BPmmPrj5vPIaW8+TvLU2Uwewm/qvI331v5EGJ62yJ76FDXBa+HqMj8LFfNzjmJogxnMYuP3QRz9X9vLrkXAKX/xNU8rwlh6/JY9Svaz3i7y1NFMnuCKGTr+nmCF/KU/BTziB/STMW7He9DhGA2wlNIIvZ4AO/a3j5txm1Mz0B2DBo6OWg9P7wLQutaRdoOeJN9mDjo7HkkrL/JcENQ5yQw7GlKTdxeM4zU3snMGApx8Qa8Zuzs2aK/Jnxhf/5cd8BuBKnyf/qJnVpJKrm9S81R14cCS4vIl3LZcb+viGHLTaTFmj5s4MfbdglPE3fSuKP51ilwFurjvlFqOegVQv4Ie8yhOUuawynKN0cg+0YAfdc1ic6HUCcMkbQpDsHUUfBQWcLa6GeS+mk+xkTU7CDqw35IBcpkpq7MzQdwtGGX9LtqL4S2h2FwQXtztgg4Cin9sI1PoAP+CQVR6h7OC+O7UHtFqkuOd0O6A8BfN7fQJwyZsM0cNP0UdR4V/qwMbVv0m5d+XUs4iKoH74DplgoHDI4nGc4C2W/TJw+uUlmb0tH5nfjG/5A8B/yAt33gw4wz5P7AFZgxIJXzU6pVBfwH8z5Vu/q/mZxhv3g3ney/cu7Lj80OIbmH8o/H5oGH9375+deB55VU7Hz3OZNqczkBn6bsEo42/J1tMP7hKSnQe56fBHP7c3m8ZZ4fe+PchCi9P6WeO/hq53jTBx/lvzzgl43wt//2KJS7atTnO8tfhRnf/9xKTqNATJYVV9X7R4eu6n41/SSnQWMkPfLRhl/C3bouLHeC4Dt9X/tnxWdOZNnJ2WyxBe/kBb+Fsjw46GbvVHnLXwxv2vOE9ajBa8mv3Ja6fn3tpvJ9eqC3vhAojHcRerYbSbgdsO/ukX8Y5+uKkHTqq/Ce94+S1qHITT5AgE7i/np7W+3C/mOf+z9kxqPQvcAr+tdVsAqSnE6fibkm1VpoOVGfpuwSjjb9lWFH0Z1S4D3XZpRz/3tZl73vCyKdyp7vN4lefUc8fLIOd9nVdn1cuXxFhonzowHVq9+DtCuTQ55VymyHt6/VK8/KwXDtWxj2NK7vTGzRYuNrMM3Hbob8snWzzDTde8NbxwXOfxqtcJGHOtpZaj8AOZ81faG+WL4y3FmrU/msMsXCv9Egcnj9PxT+O+cPbjcTyN+XA8k4HbLu3b8plZe+nb7eXPXzeYS/Cvb+/1944vQev3MurA5bfW8MotfN2Sx0hBiYOTR9QwUT26AzJD3y0YZfwt3Tq9aZeSdVmwG2t/Y04r2s7t5c8fYJgnCHGbA/v/SnhFf6IOXCZq0rPsuY6RTw8D/2xO7/3b+rK/ksyS7oDM0HcLRhl/S7ei4EvpdhXs9MtKI/PGnLQ8rddc3wMNjzCv9XfNb08zNdSkxf0RPDXmfkROLUXq1PV6NlvSuSGHlnyLuoV37tGPY0o+Cl5sgSsVbqz7jTmtaj7i7nT+POK/gdcVPXgET/xhjHmBHI89WYA8ZfsGHo7o0SnVSziNx3GCmFg+moEbLitZgBtzkjnO+r7h4vdYf4+YZvVQr99jOMKDmMtM0jecqUx6zVvH1DmT2Q05ZNJr24rHcRtfoX0GAzce8htzWtlNxN/JHA5hx4NHEp5al3qJ7yFMCZ83LR/FD3qBy0wxKLej8svkYrF1AxdR099OKHFxxT9WcUPT/pYsZjUM3FjzG3OqqaWVTumys4ozy093/fljh+YYqXXsF+TpfBbSG97urRcvyzCIVgctwVt0W3EcqN9bb2+p3pLHCK8/HFB/Z4a+WzDK+NuyFcXeQvvWoDfW/MacVjcJcXgqj924+SOG392p9cqinMxlZYrdar21kiXh5eoGM8PwGKAzktd99tZc97Z39aZcWpj8uNMKhy8exy3Mhq4bBnYcbhysmdINwYcCQW1OhD/U03jMyMRT61JP+T6ZSyUds6URXlAOLs2AWTriADG39H+gr6Hz6SzfkR52lko1nK+cqa8zQ98tGGX8bdm6qWm3EHhgUIua47C0yhl0AcMM30/zadEbOzjrwY2+6ZW5POEzp9O6B587ZCtWTR+4tb2aNbwzuayxS+n8+d/fv/THfHCAmJsHOcsh1f6mcVs+qdrgzH7lS32dGfpuwSjjb8vWV9JbUETQlQy01JwfDjlfibkUC9hKerGfZ+BUHgl3biAvLnP6NXvc14o5MGmxsGcttVi01jrgp9VO6uOtOfozi4cxpIwz8v3DjxXQESCObHt6xhH8LyhW/fzl2NFCNsfCAYzHsaNCBpQ6BnINjz0p6zzv1QLmvSjOj34qjxI3viFXV2ZX3Nl5Ii+StQM2tfor9PAohqyKWfngbeGmKu4FSjdycmNO1GpV5/Upj+Nbi3zBnWKeAho/J82DLnCIfBaEuj7EaVwCL5e7iwQsu3HMio/8SJZGjU7Jx4z97ocxHskJUF7zTcBdsnwjJ5TTTXkhn6qcnvA4ppNRRcaSIxRBehnAfa31LG96Oe+N59Eu+timKugRG28DXhJNDXyQiGBef8RHgAYpsTWYulTFQ5IkH8gzxX1qnfvYNW8qL5S5TAD3nHMC8vTlWzm5JS/KoykXOgeZoe8WjDL+tm01kbINZQROMcDva8zR7FySPb5Tvk5ejz62q972PkEjM1nCZFp/FvcvzRtHCWuju63q/GGMuQSk5WtaDxlw8LurvNwoE99z3hnYU7du5UTr+6lEGjvvxl+4E/Ubs2BknJuJu1sb14Qcx07Q2PzOxjwF++Za35xbqp6z1tFbs/yn/L7jopG5TBm91k3rz+PSvHEgj0E3jVHnqONBzGUqEvI2rUUqGF/nRPP1xJyrd5Q34fXf8vLcs2h8bN7KCfrdB8v1KIC7uy6FQ6PfmAWjevjrNLsJWgfx0ZF4I8s5iOGXPdY0eXOtb85Nq+XstRV8pvr5J7fapn4RYY4X8TuIJiwwl7LD3XaTmocxQPKaYm2qlATTd8WAWYVqk4p5HzZF96l8Myfod5/Mf6IC1uF6FM6YfgILRp9QfXyBMB9o7kUBnnukFSvDh8IKyAQ/4HWC60e6nMEnfEJaEks+5cADaPW1TFh4bD4njPJb4j71m9eVz7V8zDjgjjDXAi5aK+W9CIarMMTJrYPXG3Pky7+9zE3qQOcsM/TdglHG39YtFHMriMuDy8OxI93b63x7fqt7ZoRP2e8jvmrylv7xTuKyxo+FDmHhcUtzi5i7faDeEoe2rvEh7aq/TZ1VR80qyl7MKj9gEz0Q8t//8G0lD1Pai85cZui7BaOMv61bcZi30r8s+O11vj2/ZY3yCoRLXMbl7xHagx6X0mb2t6w9x4j5bAzwDx4QtyRh95bc4L3od4J8cwi5Dk8P85xtcQ9OSDoYshetIIFDSCu/s/3M4mM27hr/p9WiJqeiTuGc6aewYFQMulHh5gbeSKur0LfX+Pb8VjeTdvHzdwjmq3Fp8WTtgY1LzW7GGueNx0/NPzBoSh8Kvj54riVk0DVN0dRZKYO6fdmLdVb6f8gEZ70+a2PP1DsZe4kX1Kekd9U+nbnM0HcLRhl/27ceW2RcrtsrMB/AzZcUsffIHp7YNuCTSxwXLidCqHat9fYujOAL4IFDftP614Ayl19KfhY03kvoyCaVHriDLPn6cASnRaO5CjXYocPlXFT7vFOOtw7U79b81LzonGWGvlswyvhzsXVzE38RjIuUyy+luxaeUN8n5DizK3HZc8nj8eOCOd/fNfdUd3DXxQVI5bLL0XyjUc7BE5cSNd/T5trjWNObvcZx18Ti+rfPiY9bB2p9a35qXnQ3ZYa+WzDK+HOzdWMj43fmg2QscvmhcN/HjbWVVXrkZSVJaPgGX5DcVFujfY9HhrB6GSneqvF5JFiA98S3t4Ycrr/g+vRPV71iTOYja033U2bouwWjjD83W7cVm//OfJRHbnxsuimHKZCbLylO1FPy5DnXznG+IXN2NTo5+1V73nB6w2NdB8rPzXB4j99e/9bau+qXVvAF/UfWuvBWuvZxTL1wUzPLu/Oj1/nmx8adHzfVNVehp+SZ4wB7uLwhsV4je2xq/FrreMO5FM/KO2xlrNom4Zgwr7WdpLe0/pNysHRLfNw6HllrOmeZoe8WjDL+3G3d0tC4LyHdEb0I0JMO8ZNynd0+J9wD3uq9DA8uNS5nNQSPgfmsWC1+gYXLFvtJuiecm0mpf7kNLr4oOXuBzlpm6LsFo4w/d1vLLvgFmePeXBDKbYib6llDclzINSyVdU7g0RvGZWcNFxuX5ZL2afAYmPd5srcCHpIOxrL6O8i1BoK381mDOXQyDBTOmX4KC0aZcC63oqldluUbVMWPw9Mu7Kfl+90UNisn3AHeMFb3XsW5zVaR22OeNejb/OEX/rnsc7fOyhBri6tS/Vt8rSNrXiRv53Nepg/xTA2cGfpuwSjjz+1WNLbb0vwDxm9azBXIpQtbMTl+KXp3vIQncOgNY9VZw1nlsqdco/aFmB+5TI5VgNK2zbFi3ubhrQ1zLt+byuSDM7HPfWAuVK779HY+ryN4dULUuJmh7xaMMv7cbuUOulvQtcBwO51cN54D5kr+T72gnpq30gJdS038of9mnyfEeWXUhLGLhTYjwpPD9EMPcuCyLcwSbZ6Lc6iffHCwmH9qVH/BnMucMedM6nEfmEud275zZ+G2XB+RDzVuZui7BaOMP9dbVzY3biYuXVchA64ihytrmKEEW7kfKuiETDNQzR/vQczTbvt34BvS4b9dJ8cZYJP09u/nTRWF8uG4MU/pu1kH0B+yx1C1uMrVn1C0+BpD7cOa+IhxEQOF8/SoxzGV9bQGxwWVkh831Ou2Oi3HluN2c24lHp6ce4mb0j7OT0lPO09Fmx4F/rJ4XdLe6pvjTMJ/pdDDxDIbyudE3MsIEoFy9SdVzqUwvfLT2/m8kuSVSRUurcc9jon7E5ocF1MVVnZLcTvMV/bb7FhVfMwGscn/jfVcRWUTd+w8TcWHOK8g3nq7xBngkzxlUE4n4t7Bb67+nEPMd2BcGdPb+VyZ+5WxCheXfq0VjE4nynOT5y6kXt7hsyZvrmsx78WcsqvJIWV7w/rT8++tIXq5136FnZvavl47X5y1voKg7+z3xIRnnhvmK5pkNAawVtQkxxN3g/koNO/2OT68Yw98CgOFM/DIxzHR5K3RCc8KTIhTkkorNS2V/I/uN4G5SBm8XZTSklSCt0qa8dJ5SeLtZ4j1ojepT99OxnAvaLlhzUmOKgxg5FJV/Lf4rn1Cp9JNwvq85RIf52X0cMTUwJmh7xaMMv6O2trd7Likd+NYWTSes4f5ytxrYrVwUuMvdP4xAF6X8+H4BQFOuPz4Zw7+/Pn9D+w8j5rfB6lfY7OwOJRz99Byw1q30wWGwMhlJuwQRxm/p24FH6dWLoGbzkFm6LsFo4y/o7Z2NjvF3hn/qEIxsL2cgW9LyWCp055YqiNlsZcHxdUjllCLpcnyRwjmSwH8+2/IkLuUKhTgfMl3n4l11ZYvSn36djTARRckLTesdTmcb/RTR2BkEjykJCHje/OR+o3ww6FfeIGslQE6B5mh7xaMMv6O21rZ8J4uGdyPpxVsZb0kN7x+NXNpn/1GQSrPHuJnfcbmm4EtfPGaYv5GZDNBXjnZHIlhJb/vwdbfa7kJ9Ek6HOCsCxrPDfMuR7//2ge4AV38G/PaEMhNyo//ZkA4k7q5b2H6iE/iI8ZFDOCgJVLSb62CUcLXscuzm55fMh5IwkUL6QFTDQbwWKN7lA4KwWVFArP7tgLCMSrbeqejpsDaKmcU4+YeA78zeKv2+eoP3ialueYbuXCp6bWs3Vz7Fh6gezMfN+eG+n1JOmiZoe8WjDL+jtzChWINHn69NZ68fK3znuUPfM7yv82vLEjl+buWjwmF2MEVYlrICZRUuSTstw1+3FCbGTkiTtb3Swm6NRL+gJ1L7FnIG2s/wsvNfNycW7LmdNgyQ98tGGX8Hbtl2RzkC388EiIvYI8YNUyeOdXwVq/JgjScP8u+rcbrWBE90iu11Hp9STvNt/c1yuGmoR21GTnKOEkOX4pSP/fN+yrpd3ADMQbdXGU+o0+8EHRzbkmO6ZBlhr5bMMr4O3qr1CC4MFJ6pX1P5ODy9YSphCXFe8ludB9cTT0WnUHQc6M5erZHjj0SecEW3z+ScY79Gvnh4/IP4qM0GI0l1e37HCvmqHkWHJSzSr+bUIf83VFmLyXokqTBvzGvqYcSoXmpipOMV+DNqBy3tYr7HcTcnFuSTxy0hEI8jhkx2oWAtRrJXMV0AgM7DjAueS4npNbtEn3Z7cCZIfJJyRG4H/3DC4r5iPNLbT84U3IEdVwqam6WOE7MCRz6TQUKRUhV6XMRqpCfu+kv4JAybTFnB/F7vCNnyB4fHm2Ik1vHzbkla0YNmhn6bsEo4+/4LTTJyOVwPAlOE0BtVsLDBc/lyvilWKf2KXBrspRz7/5H//CCYt7r+GI7zpmkCd9SrqYD8WvjQp8kH5Qr9vj6e1Hd/ND8+KhV184A5/3D6aIPYMqFQ34k+eDrco/rfcy50ceGn48aTvygbUOyu9/a0P7THsZcaE7R1i+IBaOeRE6xwQEYJv6UhA/CuaMm/M7G3BNl6FdPmAgLcJXkStwf/YNicrkSzCGxUD9OU2m+MjWJZSR20ldyoz8aeJWy36OtJXClvEpK6BtD7mE9KaUBd5Y0Wr9R4mQ9IruIlNtpYxhzoc9YSzNqCkZM86rpzc1/Q6GGD0MnCfzu7nQxzWxlzyJWi5yWeIfjr/7xXNjW/JBLwa5S7e0FtYZdSb4NacKVPzbsPngImo8MzRfW3rkMBNC4HHA31fTrrIho4IVLroJ1vpacQ5nLpPK+DdRvH4J5kUv1nhe53/MwZuq3zNB3C0YZf0du3dz0RxYkAXr4MCT8nryM3uXc8LWZ89N44xydhj2Llz8qMnd3pdpXKOJN2mrfH4ZFhQ/t7g8ZptuReMtLv/TdOrSzZ+G3FUePfumsmOZh6qwn2zob1LNO+yytE3Mr9WixAoVDrR/5glEx6EEKJzbFQfSaQh0+DKZofDhD/5akD7R7UVzbP/JxkaC5Uu3LGr0Feyjgm+TX4JuYfynZLFi6hy/KGXPIGrTgSkrYwheX2PMigb2ExzQHU2cl5H37tbz0ed9rdWJuhHloUM9lhr5bMMr4O2brxGY4htxJQIcPwyRcO91GH9ezf23/8IdF5u6uVPsi9N1jcPCloSxAl0tFzeMS8uXQaZ4a0JdS05c+c341+xVryGNFrJNi3MzLibkR5qFROHz6kS8YDQFyYDxMqoMcnggh6vZd9RMvte8s1qxc3T94dRWorFT79gJDyG+N7xXokjxs4FwhBQkf+1xKndQ3fHqlBTml8D91/WZeTsyNMA+NwgHUb62C0RCgzcbDhG7G/+TwUbvv6muXmvcf3+8s1qwc2z8eCsoxXPz7wDvxp19eeeOcScn1u+ec224nlYa5WCLXSo+PUUPtb0z4xNwI89Cgfs8MfbdglPHnemuYTNfZ3Q8u6vddY3mp8d8+zL+tnrlyZP+giFzuKh8w7Iq/Oi7yfUl51kzgiBg//6CziWPFSS6W2DvyrCgpWy5Nqb8lwAFfJ+Y23KPU85mh7g4HzQTctXVi8Xdx5TXujX05yrXsa/EbN/W3dhT7avsj+8dRQWWv/f3f//19/1ldzEnxkONPr0juZ8SUMeh71sjFEntHnpVZvL38ojcmh9ni/sTchnu0cNbeJxHkQG6p0MSgw0ROxBau6xiIGn7zpJ1X/jv3bfHclWP7x0lBP3qNP4wxP7C1kJOUlMpPv4D7mbkhBsnZIxfrtQcuZkM5zf/NvJyY28/5HGmiwnn7A1IQCN8jMb3ZIjdvuAJPPQM39mV99nnN6O88P9jd0kO5xwiAHSTfHOJBzOUheSAHOfng3wAAIABJREFUKTl87NEazZMjU19sJW3FBvRJzhq1MXj+s7Cc5vdmTk7MLXsua5qrcNDUYzgctAbYIp2bcllEmcswJx7eVURGj9cxvbyH+EsE8zqobrU+ODzkYQzMmkwRTboYsMP3W6KmXL42+RLNS0Pq19iUfMr91hicA+nrid/JPriAjBNzG+7PwiFTj+2JRKX6c5jAlONYX8pA1DFN903nNZ3l+M5ynlpfI6UUub9a3ZJe4/5yDhvxSXXg5VLqyG/o8nVa+xq8Hpi/lPAJ+WUrFqDHpVAZ+uR++TznVOMhp3/73s18nJibeiZbmpAOQmaouycSpeU4TJ7mNNa2MBC1zNMe/OT5od0t91rtS6QEn/vBPGWDfciUXuf6Fh4bsAIfZIPpjyrZyZH0BY5JioEtsZz8hL7iKmlTs8H98nmNrcZFjd2NOskeuCDZE3Mb7s3CQfs+0VToP3/y/5zVIc0wTN4heT4BZtQyX+XgJ88P7RJHx/LEXzWYp1LGPmRKb2DdE4+oK+RAWskesfA9gmvEFm3AZa2/k/OuzbFW72YuTsyNMA8NOhCZoe++HsfDwTOBZ2+djH02Nyf6j3qWqxYc5TkifvAnr+lwl79sME/BxD5kSm9gfTePiA85kMqHKflLjdxeysbDOtqAyxZc1hy3xPakezMPJ+Y2fB7pQGSGvhuP4wxlsbWDgeGDsAP04phTOer9ZV3MQS4cfgB6eOLpF+7UHISxPQ6i5Am6Jb3OfXDZad5shnhcNjspGMB3Sq20n7LzsI526O3dk3O34j84sGLSxg/VY2gUDkPycUxBT26GYeKGWA9jawainnWMTuGJ/7JiXgfHnVbPnYaUpXSX3GJAU3rtlQPqpMlZadbkU6MzC1+3X9m49N04UIdGs6vUgwNf5Rw+i4VzoJ+Sl9GpzTBMmq8eCDSlf9doMPRmYErvG/y4vgEOTjgU6Qp7cp1/99xp8Csl92s6RyBTpw3OKuP3cKmhgJ+U1Gws15AuydIAxpIe7cNvje5UHQDhsiPgO/dBPx2hXZi883eBJkBQPYYG9XFm6LvMaBhAJvisLTSxhZyFMfy2MXBiH7ZlaKdtzhX/McTcDm61J4TmEsZ8jeapgTshta+tS9/4hq+c1Pxl1+AcMqs8YRNxIQshenvNlLMCxtw20uQyp097NTlzfzTfOiSYTkA/eRv52spHZ3D0bKd5mA0wAO5rZVWowjnQjy0z+jkQVZHWK9Vg42e5B6FWjB4/YdPPAGrQ7+FZllP4Gj1IgyXg4fkcbvkazVOjhxuykf5pLTUQQ8qU/se6DPSx2f4Bd9WWMIAsGCLHnBp0UjJnO3sPaXJZiok8cnrcH823Dw5oBAz3g/mIv4Nsa+p+UDpfUCm/HQO81kiOL4WX++H6X/PCwdSPLTNCoC/HmxdSxHBYOLtc8v2eOfiA7PERNm0M1NS6zeP92jdxxs+vnKOSqXXsc1k6u9iXkvuonUsf9J0dLYlkHf3+1/pwWVD/tw1lyAojLSctb02vwv1UFaTJZU3AUi7cH82vGTKxq5LLVwk9ndc6c3dmbvBdkq3Mkb/SQExVr9C7+rFlRlnnasT5izWkEIoV5xj8QM7P/nkRauv9PGbyGd/Cm3aO2RX1JgF674XEhJ9VzDWZMO9ero5Rm0gBCdxAFtR/txsNtLyw9uvU54xwIl2StaMmP/it9XmMHhJrIeyY5NJAa2qetva905sb7GqkNQMUs3YA34d+oX/160AYqY4/oqz5aMXBzzDms5ECI+TseE/wT1zGaGdgGW+TDxfcQ6aYKO2THc6lJlN+rddlbGv/8Ac+ILFuKWUu9H3SGME7YjuLI9Sa5MyBus+M4c33zTnX5AYdKXfViXC0DOB+2xQOiX6EhNGX07f3dZNeDKsuixQTwA2Z0ov1NAPEXYw+BqZzxw+YuDf6EOtWCKPvfv+3RDhvOZnytXI9hc8KQ4m33jga7l5fu+woh5Exaj8SW7NFrbnU9CzWUH8LX6f4uDlnmRu+pfRUK8LWM5DTz39llHFwxOO4l4RM3lu2UBQutwA5LOgt9e+lHT92PfbotR7bKhuAg6wysldCeEjkrfUO9uxR9HsEJk32e7WxTHEKrBSFzxEVdiRrB2xq9Uf0CPPI0HIe8TdqC+64HPWZtV8WKIuiuIk6PUUWCVEUNG4UNVdLhLl3IN+cvX5tUdOLUeNMmAx/7og5DLrBAfLjssH8MarEz1MH//1RjmUVLdP5A8gqNONK/LzweQsM2I2jmeMB+KScE+3bK+KCU0isk5SDr0GfS6kvv7kuzWcOjnUkjpWfEQzclnPI183nPBDm5kH6HVJd+J9+T7+W8Pe74msGfJrkSLV9rHE973PCPDQK/5+g9StIuZlWk7c63hDJhsbIG9LQ9bGuiIunDvzuQPbwwHvpz//+/qU/JwzgzsnePOBTswdHXngCVk1q+HvXNP/oO0joaDFo72f8+fPxP3KDrWbD16AHyfcs57kcWuN8+QJ4kjcPnifmDvJFPd69aIgJvg1dLnEF3FLy4Njja97nhHlosDOq5a+fYGbEgw+D4c4y81VxMhBcbKFgkC5AbQDx9H6w+O0hDvmjz8PDD31dI63bDjGlX8mRB54kRmDXpNRNfWu2fI3bof+wz/f4nPb5qxh2iZ8Tbvqew+a9MGHyg9PQ79sfwHNpGMedK5ZnqTdmYkfsdx0mBUOcSe63uj0xt+F6U/+KAR5Ifu+SsmJEyzAU/sw+3/7ZoTNzfrgjcAN5eDpN8CnnGOMMyIffuMd6D+jbWlnvuU8TOKS15Mjj45hjRh6jkvuUc+5b7vFv0uOPY8wTPyfcdNkcuVgGfPvkv1uYWwZy7uvNwwKciEVy1UDMVfFWxjkxt+HaFy4mN4/jd6K4VLhc2SUHxEIjQx4AeQjiuzeGvIQx8YjH30w20JcpOTN2rW+OTdqAI+8PY4mbvnleublmq63Bh7Yn19667O5mU6m+5Zswzhhvv94SnpFsxid64M1HRrd1a6bvGiyIX6N7ms6JuQ33GJ3VzNB3M0bDgBQwHz755YK5YhNLvwygsSF/d+6YffTHHSmNZYFzkTmnqQCWXKLfcjKFw8M6cH9hGeD3y1fPAuL32BZsWlwn+XnFgC+SNLg+38P8ZfYjtDW+P2PO8Vn7n+nbGusKf5Z8wBfJnQM4dmKYFfvE3Ib7ARdXgtSux/EwqBeYZEFwcxbAJ3J69DI4hbyBDKt+u4EL/FfVH7IhsZ6+gE1ONkBwo4p8PgDxuwfzD4XJH4gJaRgOLiFLrlV+XkbwwaXU53s8Fl+n+apB+GaO2f5nYp/hW/ZDSwzYeuIUmFryCN15DAz3RuHy0a+mgtFok4zaz6P7Ls/gGfLU7Ah/jBcD8mWROauou7W8pRbg5SOfBn4/7Kw+ZHwrv6//KQl3n3T9UnqfOxgxAyxxqfLJbDDlNjSvGdymRl/q1GKTdi3fb75ajE7WrSgKeK/hpkV3B23AtyN2xPxmoKanvq3YSuHy0a+mghG572mUHhuWSkwHGAD3kAOulpqehneUHOSbkh9/Y/z6cUrp1q6PYj7VHvx84a/40f+ysVxAfEufL19F11BISYaJq9Bykk9mgyls8S0lfJGELpd8X9pq36Q/ewDT7Dgu/PNiYJ4BJrnBN5cZcxdbwOoCTID4uW+GaKC+zQx9t2AEf2gWkqlRo5OyjfU5DJxSE/QV5Bw29njlNWiZqy+FjhQQs8O03wQ/opX3S3+gT0uE/Vz993Vjb2l5Vq+BrJTMOKrpKbh997HiT/qBDZfQkVJxV360c8eag4Y1wuNxGKb4Lz3uEPNC4jW1KrjYug38W0FE8DcDw2eN+jYz9N2CkfSHpuFgtTVpF997GECdeI2wtgdROiowpjXO3OnOCz9EXHZSsLTmHC/mnbhbzBAKUtou5UAG9/gNolIyg7nEJVy+H8bvhX9OU2cCalxqMGAPCZ0sLu4Ucxh2SBm7w4W5CdLicjgId4Z5xil4gcyout06GbtbUgeAUT2GBvVtZui7BaOUPzTPMOhUgFivYwCXVUMdee081Q+46hI/Q2s4p476aswM49CcptY4ZsxTuobrCAUpXS/lQAZ3+E18vB+vwMfI+9nHupC5PVJ9u8HkJVGDnD03EWHVT+4z5/cNqjXAKyo34zFVUJaLCJzyyfYx5VI1g4K6qSxCn2RmgBeoyG+se5en4vbOay8+qsfQKPSt3tUFoxIgNNEw+FKg2P9mgF9YmH9rZVd4/XbXEFiygA/a9JbPMjzoRS4X1I2Ho7kcy/KXgZ1+g48ZErWQD1KKNWvIPL7iABSXX0r6AjfBnMfTrQxWEQxSusT6S4rPH/qliazJ137HAriQpql1qeft+1Tc3ni0wkP1GBp0MDJD3y0YZfx9bKGZhpP48BofWQaqbsKsh4/N3TVE/A9QB39MPQu89pUczeA3CSO5UQm2R+3Pn/fvvvYqmJF/D0wPNqNc1PQ2WuC3KPMy1/LB2gdWgCKZGNwOc26GOcw//GOxIOEjA+OfB66oKSv7fEmFwRWkT+ypht+L4CfHAXS+rf2unIjZL5vjyHL9VeVd9rkw0m+DgpHwkf1EQ0FmlWNznAFcZFyOe/3xMNyMHTh2xOyAWWUy9QzwemNehart3zJQconQXJZspu5zIDQXY2pNRCzvn6NceDurJTzIF5LXB2tc8n2ay9bi7QU7aZP6zvn6spHKUqG0L/XpO2WTWtd8NPwbS1r5SYRbunwi5qUELQ5G9Rga1NuZoe8WjDL+kltorOGEkhFi480Av9Dei+OTHbXbEXOcqW8P6P/vHaMVXnPMG1xb8YzQXDbAmKMKMIr36XVRYnpdGu2BUXtLXlrrCn0ua/CgtUjK0cIH94O59PfxnVPCHuSHYeZD08caZMIcvCW2v5bBDeSXgsOF1hwdpnAVpOHeoZ7ODH23YJTxV9yKBitS5FZhuBk7MtsRswNm0WR6Hvjx4rKI6lfB6lzy8Jj/RvE5m14bn2l/oRrlYdT+C1DlgtZnOSzQJzlz5DDIuBwT5lKn+hsOIKsNFUX4gBQqlCP+iK3iZ69d0fEkhdPwTqLBjVuqx9Cgns4MfbdglPFX3IoGK1I0TQH3W295h5uxI7MdMTtgZk2W9fxggTWue1z22GQJnLyp5T055D/3IGpJsHwQix7dwSMohKQskQtfQ/ZY4xJ7FpL7BY5av9yW26TWuc7XHEZfGx0LCV+t+cnIo/bS3+zv0/C28HFiboR5aFBfZ4a+WzDK+KvaOrEQVYk5VsL9xmUr3OFmbA34+qHrMHNjclqv8xrzXsHcDbFGQLbVB4RCGuXT68aCB947vTha7UAfJNkTDnxDwi++ucTeqOQ+MR/lBH64HMU5am/RK4TBys9oPrX2p+GtzevEWgBzS45funSoMkPfLRhl/FVt3dxkVQRsUOKXK+atMKhuq8eOmJY5noafn030CZeW3HjwhXyX14mTSvPNAzyMwFjO4QssqKRPYMAa5Dsv9m8v+aH95/+8d4cmiMXlKK/cF+ZDIAeNR/OR4a39Sf+W3ydhbc37xNwI89CgA5UZ+m7BKOOvems4sepIoUgM4GLlspWZ1TU78cByTpvwjxSGBzWYo84cEuZd7mFM0uH4qtMKvDyGA16+OOioE/qmw9TMBBiS9MoNQ+5TroGpJ8mUz6QvbpBUat+w6A8t6iy/WqzRtZOwtuZ6Ym6EeWgUzr7+a1UwGgL0Mh5OzALEw3yM3pura7Y6nmU7EPZq/LwwmFuCafTFsQMOya7BHWDe5WieEc/X5D9F1kJ1xMcHB7X4hV51vws7q08ZP0kvNkgaD831KLeaTxU2V8RcVaxfBHbJbb2HvCb857V87J6EtZWxE3Mb7kk6I5mh7xaMMv6qt4YTq44UilYMrK7Z6nhWPJGfJuz4IePSEkyHryb8Of88J8xz+hv2KNd3vsDI5QZMq0N+cNAZ/M1hp/2ImQX+kfgl2x9u0FMl5ZZ97hNzLlt8Cd03p/An9q0+P/oGsUg6G28+nOGygHNibh9900NCocf0DiwY9eCQNsOJSYfxPZ2B1TVbHc+KQMLdjN3hj0JzDikCHebGofJ6/Vx9DO/PN1cenPNYg65MzS1wmfVLR2Y7Y1fBZT31899OVBkVlDSffK1gntr+6AXuj+YTxjuejDUpXm8Kb5y9DhzbnZgbYR4ahf76A1Igf4IVjIYAHfi/Uh3Nd7o9v1QmBhtuxkZsq+M1wlPVP86RqnHO4nAui/oSjCIcvmslzxM+uKz1w/Xgc0Ryf7PnhHN0WPjowQCOe2yX2fCGornFMPYJHj/qaBxDSxtxl/4jTRqQwtobZ0HvxO0Tc/vo0x7SC+fw45SCIMieeDU2s/3XYLhGR15ehYKP5D3cjI3BV8drhKeqn4hZTeS12H1WF/YlQZXhanJCblJyX3Kv9TuHI7cn4+R0R/cQy8LPqI8ee8J/xEBjWYI18In6J3k0iFFK+R0bsUg6G+DJGSwTOCfm9u6ZXgYKPaZ34J8/P/+1MAgbBiHAW/sT7p/1yS8TzCcxsLJu6L1JqUxxeyLmGiK68kIvclkTrFOHh6E5MFvLTnhDZjKHIWeKMfkfHcA46qfV3iQuax5MW3HU6JtgrQnUoANMJHcO4NiJoRT7BIylHFL7J+Y23LN02DND3xVGIG4YTPwjFZlS9G39lAo3+uvf4dnnqWxlUf9ylH8a6Lla/d16p+Ft5asrP9aXrfFq9IGJJA/1cyZqHLx04KfBZJsqsEKOALHwgfiWvuCzRlLcocEah03N/rFgiW0Yr3TY+Y16ecHTmcZSM3C2NOiiYCfmNty7hR+Kqscxrw9I7AUGe+4z5v0MyAu9UO/+QK3/BoahSI3/tofBWBbmvefBIvYqHx7OLjBAInd5DrBeI6Wvj5d2jYPZOjw5Fgu4IdlWdgp9klYDPq381fgxicm4ZdP34xhrNXhKOvBlyXspJt8HX5B8b/cc3JD0OnbVbQUfHnuilPdwPQrNprdiwYhA95LZa1ci6qn7/FLBfBYXw83YAGxlrAZYqurTenpHbcBxKjZ6H1ItVGbx7RcOuMzYTd/iODBXgoIfZeu9BJ13ru+d8Ql8j3uq92CSBzgV/5/z2PL7PyvVI/vWlP5MsH+H+VhBTaT8UHLwIbmhb49jRc125Y0e2RW/J+5wPQqNprdhwQiJ9BA6nBCCh3wzwC+X9+KEycrarYw1QlXPGVDjrSqiGrx9cVV9wC/i5WjCXns27D/swwmX5BDfPc5HbBCXy4w/8CVVUutSr/fbzD/yLAAxi0dxEJM9kMXy+2+SC7CS2yzEj68W/Nz2HQCL74XfHoZvSKbicopUuPQG9BQue3k7MT/CPDSo4TJD3y0YcX8tpLbo8hgx98HAcDM2pLEyVgOsL1UTnPxXAfOvSP4WTHJPpEW+8QcqoIZL7I3KdyzuPDUfDdZir2Eo2CMXkhh8jrUWyX3OmvNHau41ivgt+Ht0JfU9PmAjfSEHkrkh7ehb8sR9lfzlYu3aU3PcBSYR90ReE6lcszxck5/DlKZj+HFMrnE402H+7dTqlfzE/h4GhpuxEvYpfWKG84Rfh0TtrHsCnGp+Z9KEuD9p8kC0wL9pvnrw+A2xkZPGZa2bWh/QS/nFfk7W8Az7VBzrdVBv4VfzVcoHNlzW8GSBd6WPj/xWBq6MRXWK4YuB4ZpQ02WGvlsw0vyVDjnZ1OhovmPNBwPDzViZxgl9YoqR/zJgXsmVBzWLvgCfOV+ghkvL/IHhyycPSPPDBvLKcStTgo1cT3236qt+BM/Sp/xWfRy4KPPCN0lByc/31+KBOZ8EGfU4CfMTsFJdhkbhLtdv+oJRClCpiYaTSQWO9WUMrKjhihijhJlj5L+Co+A22PfyQXb4U4LNKcK8ZNOyn8UxI2ALuE5dnhPmXMItX8McezWyx0b1K3iGX0jV5oJF5AeJlEAHlz97WIBiyGkMUE1i+GNguC50hjJD3y0YZfwlf+jkoc/5iD3fDAw3ZSG92f4L4Yvb0cs6RS11A4ctNngPcKkj6V8Frn4PvixT+WBdyl708NNrn7Ob6TsXd9Ue8oPkcXmvY873Yz6fAarL7UPrPe85D9eFDlRm6LsFo4y/95YkW36/FWNyJAPDjZnJeqbvTNiqraV9POPXcIbPF3O13NTqyYIAOpdSZ/S7F9to3Fn2lI/VAO8pf1+xYECyc/B6fPnv9PnxjyX0+jCwQ24yL6wjhAGNcBWykQFZm0bzY9Rlz50AfLg2hXtJv7UKRrXEgXAua21Dzz8DqKs10uGmtwbE/C3Dxn8Rjc7jx6PAyifjhqa5nsjtCTfqp6RkUgrZHFRgThdH+eZpSe75HuYf8aRBR7E+/L2CaGuIXyUNcFXFySghB5KpAZ3UfqyvYSBXozUI1kQ5sd+Ga1O4k6Y+jlFWEF8jYRPyHAZQVwvElr4s8HAfS7HJH3EOpHc+w6eChXjiw5I3ngKPYT23xGyNrdafZQ6cd5qnxrv20iBnpDh7+0ns5fYVk9+lQVy/jtpnqEctdui3RwoLCwZq62QRa7ePE3ttuD6FO0m/5gpGLYWsJR16JdkSO3TXMoDajUS18DESP2W7HJf8EU8Ba1nP+ORbLS5TusQXDZLWvlMxLdeX1BvEWAJnvlADtlQ11WBhDfLHET5IsvETl+9hznRSU/Behf3lt8H997+Wj4wtB8AIv8irJdTbRvGJpffhanE8qIvYIsVBr/7Mq3rQH+wuRO9e67LeYzRcn0ID6zdDwaiFCivS4ackW7CF7hwGeI1aI5Ctx7EFF36FLAlRfGKJy9GQ6AHuE/NR36vskcOUeCAD0jhIL3bAgeSwPtbwweVL+X1WlD3uT86bML988xA0rxrcqMqgUon7fc2bctLCKD6x9H4Yvxc0B7ZrCMWlbQQ/3t597AfSNCTDfToNWdrxcH2oiTND3y0YZfx9bK0k/M+fP+9/VhBxU/IDZHxMYyDFv1znAGjP2wBeb7is8PAfOsxHfaOO8MflqO+V9tNqzwmhufEA/61uq2FJRZEDxecqNTiaML+c8xgCQk3IcR0JQH6PRpD++P+La7k3Gith/+d/f//SHxoyJH3fOpr68XASKNfT8h3GW2hevbULRrV9MAy+NtDPof3zlx7I/A+Z0zcG4al9REtb+AhpxwDVI/fHLlK/J+Dr93CGJR0T/LFATLxhwC87itg6QvJcTAGDGFOn+f9RZE2oalhQVArLtzBPxe4+Yy/H8D+tTingCJySKbuGdXL9PpivhzGZI+TvpMFpgyoexpA89g+2Bl+nqS7vp40EdZ/BzZiHwhca+PflyKMUjLhqar6abP4ITs0JK+3l9oGbJOnxb22eyj/W+xggjmloXGOvz3Of1Y6YfUj9WKU44zX1g7aMBLjLmvs1vGDF441LjR0TvAjyujdmPBhZiN80sMgk5YOBZXz3SPjgssfP26bRER7FkG8/l09M+vIgjk7Ml5+1LqrpLGSGvlswyvj72dpBtHzw4hHM14FbrnHd3Bz2JJFjreS2MdcZAJf6bp7zlM3IegnPiO+bbYm33ACvJb2cj9V7wLw6bms8T5yW3mEmnPIg2ryVQEVfuv1Q4Ztsgy/TfGRwX0P15Y4wrwD2tIcxUTLEcwWn3lRMzuLipIZrVDiY+rEtGOU42EUyHryQhDH30MVeLhfuS/MHW/jiUu6BFy6hE/IfA+CmlQ/YcdnqQ+rDl1wf/saP0sAZK2JYESMDgrirGdM4rgneqHMCVo8YU5hS641l+f3nC3jP83mNw4I+36Y5Ri6HlA1seyXF7B4SFE+m2+ldhrma3pXpZzYn5j10Fij9Qv+zo87IKhgxza/pLpLxkIUEMHzj4Yp1LrHHJe3Dlutqc6nHv7lPzMkHeOJS8/2kteFmf5HFOeXzFi6tsHzEXPHjtCLGR1LfH63coUbfnnyteMbpHRuvZGt/cFt1jp7H3/ixb1WfL0KXS77/mmObPmu55jaKy66l2thJ5wBFMsYHA8Pcfng76+PE3Anz0CicAf2EFIxSgHYSjAcpJDDiGxLrXMo9+i79KdnTPnxIXRmP9sHdcMF5sMPmudxxp/emxPndNX//s5BIpuKfaQfW6ryZ73e8auNxxWa8r5CwgxxHMsfDF77//d/fv/gzJ2TR6xemosV6BcJIA3IWgmb/jefFA9ceMMyq3y6/T+f0xPwJ89Cgs58Z+m7BSPO3m1w8OPmDFGuENzXX9riuti/zR0wppa32LX3RN7gcLr7m3PFaKl/5+2WVAucZc86/VZy3H5lI5TlL8fL2yyedMbiLkXkT1kQg1AIyobZlGZh+8sSjmMvFqIBncdjmcKtw/tSlBV3DeVmVQw385jxrnD5UJ7j8fXOc1ALDdSv8/l7xOE49Zvk65njA8ibAHtb4t9Tne1Kf78m59APbnMRlPNwEuSBO9pCrBkf+fmk6lms5LMNxeDLDzhIOVsRIhLbuVdQCMhF26fIbC38UYz4BiVZOYCBpMrQgJo7bfngBozd0lg84J8lHap3pgG+2tH2azVWgq0hRWPz7RzJh97GJRZKHjxYOD081C99jf2cBW/y3UIX+1bu7YCRB7yaWPzzloxRYocP3+R7NuY42hw7s5LfmGzqpPe4rN9/NcQ6bxV4pP9zHFrFKPghLjD4GZnKHHpkZozZrYHn/IxX0OJ4w0PdcvmNbxePOMTfy3YIVoSF7ICR7A065rAzQkkOlSxO1Wlw8ZcxLAKDH5Y8NX8C85Mzhfi13DqFPgXQiH4R5aFD/Zoa+WzDi/jyQiocnHrSED2vAyvewBil1NfsaXekHMbmEn14JvocboxfAJDvkNcl9k1vJLX4DGo5FU7xblFfWUNbIlMOKgq/KlUPB3Dx3OJZykNRWjizCJ7mRzum7YrTmUOHSVKUGX0/qSZvkhmlaU50le2RqVN/Oa/rIWwbDdSzcAfoNUTDiJHkgNfUoBU48TvFNEjbY45LvcxttHX5TuS8QAAAgAElEQVSwJ/1o9txG7td+g/fhBqkNOFnPUx4cywW/BZMr9+ue8/a7Om82JV5DwafEF3Q1wBGWDZ9aEKw1uOGqxE0rPwgJyf3VzpMx4ZTLgtOeHAoup2wnc35F4yljXgICPS7f/wNfvkjzg0aJq4NSMYV6Sq/zpIdrWehdvbMLRgDohVD52MQ3HqqEF2vAjm+uw/ewzmXSD78sXk64HebcP+YWEnUYbhYLMJ0+PGHnWHhpMe9M8Xoz9OGqREfjoZ4k34MvYv7e/JyMxv/09nNJ0UWVXFa2vnS7F5CrlB0O+flpNUf4LztskMyMbGzmA9MfV/hgvs1rm8FssfXOW8mF/CeWs6E/bPDR6ywbac0mavrmak3YI6KAmyPAvkAO15F6OjP03YIR+fNEJj0+MbR57nHK9eGDZPU6Lg0uE/YSB49nNUddIK38zvYz3OiGADkWXlbMDUNd54pztyK53j5HLbn8wcsXMM8kYpYvYkGymL05Mhf1U8SHrLd8a5pxAo/AwiX2hCxxxV3Q/OPV+Nos+RAhXXz+cC6T+0lwEJ70Oehuh7msp/zegclbzBM5+en5ESIL5+P3VcmDFIxOJBIPU0ikW/0Ifj14v/Tl5fHi7kvvFTC1DjyWEnWS0jKGla/hRrcCovyvYHmJDcNc6WpHHXti8ppi/i4IFkgWBs5WQa28zWOyuGb+ywh+NYDld6V61lOLonPg4TJjlMPAXdBcexxnXPveksn9JGgAGX4NXK12kTo/qfXV+LzEO5GP3Dmv4rVwPvTbv2B0IpFVZClK9Jjlf7jKz0MXFweXk/7mGCE4htY5asdlq48Z+sONbgjKExbDtJa42sVdU9yfM/39LuohiOI2xU4FweF+SRJmvlMxJ6ybcCFxCW60f/TkwwT6H4v/PrAFueNxjNgkP0Zy40Pr3wd0+RbWuOT7D5uXzk9p/0l0TTm3kwhE3VqkCoXOSWbouxkjAMr4fN6WchnxBzWf95LDQ2TK0+we9dRks7MBA4rvZXjC4oWTWhxZ7ngT1zps0MvGhh+GgU2x2yUpblXskvcXICtcpXDW+yYcpEDVksL1aM6G3Hpv8w2mP2PKQ2H+EwcfXKYAcB2a88H3+PrD5rVnslbvdvqmnt1G8lCT3VKcrFcW8sCx5DyRyGC5m/78rbJApa0JleQnv/My5Unat2zUNGWLv5Iu4pX0Vu1Hj/cznaylbOAJTZyMzdOROPhe57wqbqXvCfAqI4+ruTg3CQLlMn2jbitxazh+mE9uKHWRukIFeYnlx3y21jP4MvoP950dBv65rHHVWucvn3SOMkPfTRgNg8kAia0yA7gTy5pzNXgTy3lPZG995Q1PD6c7bVT+0LxcTgCpxmZxfq62F4afOdsbmVLcUuycf9hzeizx5WJb7AG/ha9hHy8SOSbJ605uOZaPXJMbH1r/PqCrbNHSSC8mXB6x3Js375UjEjUEuSN3xITsSYdsh0bhEqh+HI8kMZRAGB/DAHpEylICw01eCtC47w1PI/zt6ip/+DHnchJSNf4rFg9fuBub0FHMXFzNGWwgSWcWPi2+5Vpr7paxc77AreTVsva5+Dv3vNZkFicj+aJPZmHz7neEu9rcwDFkrV1Kbxhz4RKoehxbJZNKMtbvZQC9o0lkPdzkcGQkveExSmuZmyR//IUyGU0SA3uAWkKgeLmYPBZ0U/qgidt4niMfTxiBiUvwWvhN9JTGEBbkPuTkEGPKdXQ8ia9RrlrswatFjXjcYX+FiyAex5ztmC9hgB8WOV8CoBBk+NAJ/zxHsXXlpzV/PSSB8x7bXptcTOxBdsVw+rqjnLSxA26KX1oHnvek8OOo5TRlDcAm4EnVpiaPibBqwlfrjOQog6T6R+rFd5oBcAiZ1hzbGa574bwVH8ezExyjJ6xPZ4D3F+ZSrs6R4o8OLQesjfr2bm/Bn0WOO/iWMfE9zAl/qWBuQZKBDy03QOTSIFTWBbjWlIDj42H8XtQsFq0BA5eGoXOc5MJwOJjn9Hfs9eaWwzrDZy7eLXvgDXJFXhRraFBjZ4a+y4yGAWSCx1YwUOovHDZNzmAPcXp8wxZS85Hb0/RPXKMczUfnL/QULJnkUF8uM+r1W8ify3rraZopfjlMzD9AqIsfGtUfNVy/w2HCZXWkRkXEEGZYJqk91n/WhY38hA+5rn2DH20vtQb/XKZ0d6z35FSLc6bvWgwr9SjfngGeIHt8jNj04n7HLBy07ON4V9Jv8DG5noGeBkdfanKUMPis8QNdyBob0iH9m4d5fvwXunChabya4xFBUH9NCtX+T8lBBw/9wdOWOW455A8PfGMwD3D+4T/xgbAfD9KE7vAygkG+HOKTS47nYz0BguvQvGbk6pSy53FSOqvXW+o9gm1VnBGMVrYtvQFeIK0w9Phpwa36Lxwe/Wi9jDwQoCYVi2czgFvX8KGIXq2VKQJhz/expkmuVzsnPzePd36oc+ESKnLB/XT4Qt2KcaDA42GNSfiTkqm8/wPQmwu+2TPnmDCv8dOiW+OP6XTnBkyQzGfLFPy32EC31rYbIgwhX4HxWSOBVUppK/dT3931SjlcvF5bMytYiHc6byU+avLzyEUN7mzudJAyQ999GQ0HzwSOrYcyIG72VT3GD3fP3LJaiG/p05Ovn5qKOv/87dgISPjr9FHNOeIwCVspS1CgX9Kr3meYqmy4Ps2NB+XXPYCt08FQ7FfMUn0AEbIZasIQyyRp8G/MS7Fq9bifUr5c19N8J270GaQnXiywlLjFvsf8hzHhACaI1G/MP39+/uZjOHgiaCw/mAHc6i/prccIz0xMPP1bugA5IZ8f/rDIJRQ2yaq6cryv+UhPjNgO0yRzGXb46aCKz0+T4S/Op0V63J8EZ+Ff+vTwvaNuvXnn6tPrs9UOGE7irTZH5Kbp5/Y0/dVrw/WgA54Z+m48jjOUxdYwA69fHY+HbyYm+WNbOJvDNK9wIHOimO9Li2+uAFMRA9hQZ01+/FVehc+cCvzndKbuoQYTgoDLCa5Vl5xLpCWlalhY5H6lKvzL9fiey0CuJnMjp717xJRGW7ej5YQ1kp7HMD463Jmh78bjOEOZ0RZu3UKBjKK5dDPc3BOywsVQ7Rp1rDCAKpcVZq5VeC40p+G5rqgv5Ae5PJmPjfYP7kqN1e7SncXKOstYnF8+7yWpt0YWsd+YU85S6+wfyXj7eE1gIte9f6MOst5ecAOfFzwjOMAxlyflB9zdHNAhyQx9Nx7HGcoMtnBzcWng9jQXw809IeGmy4HXr3DQCKpUrzCZkKGtS5kTed9ZV9QvJZP4ZCIDxdFc7eTEtuL/vIHfGb6lT407jeOBkv2E1OJILPxbw8D3m+YpZ6l15T5BPGmCde9yZU+NcAGcrf0yEnOGLc+Dz2fEmuFzmH86KJmh774exxm72BphQN5ehSK9Q8HuvXDuBIfRWwZNBw71gKxIBqokm2JV+N6lgpwQf3Ve6CVNApOUXxiRBJfSqPKbu8D8K16lr1o1xKnVH9WryQeYSPYM1DNly/33xpC+a/KCjYw/hCHlLLV+0eO4VGfw7U0Cd0vPeMlBYj81hyE+CwdWv7bicTzEedE4c+ElbaVNUvGMDa+HsQnXYE2aYp1R1p8H/4q8KIb800IRbN82spb03Tk0VzM5kfE6YVebfXGnWEpMrXTWxFDCmizV1mo0xw+wKWep9Qsex6hxLd8ffDn64Hlg7gjeFxRg5PJL6YAFwj80CpeS/gsQj+MhzquM+aVXY8D1C0WtcbdTB4dyJ4ZU7OYDh7qkHGbWizwM+M6EnbpVzGkgOnxzOeDu/bh++wDfg+eLu8GcMM8aiAFpHkc4rskFJlyWcFnVtRSntA8cJT3ab8mv6C/lLLXO4kvfMJHr2e8uo6zH5GYLx0knzjaQk5TOYL7vPcJ58hjGT/2eGfpuPI4zlG3awsUFuQmGRdjhprYAofjApaZsTVtKcoE6Q05DYOt4BofwCWmJeIZPlIxLijNr8Dg0Nx3CeS1fwuznEZnDVes358Nyzxsey9xUX7JgqpLN4lO4RZ6QNuyNeSEsNDxh6s0IufTaly4l/SqNx3E331MNcYFNDTLf+XBTT4LYdWEM1iTJBfxCTsrZ2m0XhwkQ8AWpqYEekr0j57/Xp8Q1IwbHhnh8zWQOxy9JedQObpqyefNSo5xyMmm9JVcTCDs54LFpPmm86z3Jv1e3u/NGfCm98lWDi3IZGoU+10/B63E8HHwIeRjfyIDnnsLFUc27wQ9KMqaB7+o8jBVHagw+IHPQJEWFuy7navreCCfTweUCCJIt83jXWMQo/Y1ODq7l3hufpdOUr90cyPgpnAPrS/kcwDnLFPmTXDlScVfjsM55GD/1fGbou/E4zlAWWyMMDDf0SPCCbTM2ox+UZFz4L+D2tp3MJwOUbPifjOp7C/Rw+d50NunhxE0KL4Itc0Ctf3LkBcTcSfIfOGdiQt5czoyn+UZsbW9wbRmPgzhnm4MHkrNHKdYKDDNzHMZP/Z4Z+m48jjOUNW5NvHBSSBCyUPuU+dT14YaehA4XSZN7TvQA2V45aeKCKbdwCd0eDiT9PyUYqANLwXzak585iEGH4LvFDepLNphDvv3AMZfvzf2TL7wzIPHcMZ8RZ4PPJfxtyGsk5GxO4J9kauT2Ujae1ofx0znLDH03HscZyhq2cMlBNpj2qiIUl72+rO2Gm9kaEPNH2FrxEcf4n6v/zJm/lmlP7Bb/O3RruLTI+6PPPz52ZJ2OWcNH2nr/Dqc21+uoaU6q2fAAqsK+ReQyHYFjDnpzX8ZdL8CNdjO4gU+SpVGjU/Kxc38Yf+4io592Nbl4HKu0NC/yy65QiGbfCQMZclHYBJrP5eZm5sl8ujL/Imyt+Di8UZ5bY5sTYOzwJx9OkPDfwze5SLrkG6PFEFgtPk+vb4le1PP0PFO1Rn6p/Vj/ZiA4++ZErlhyBF8ka0atXo2vHTrD+Au/E/E4nl1V/KrMjsP8I2Sh9sxi/hQHtzoSTwLzauN2xWZ8rxBW0IYPenvKcy1ADJeviKNcKy7/ecbG3My6vJ9eX1ALiXxQS3x3kXOI0RNytCoF+sLK381+wFVvf/Xa98bzUoth/HSZZYa+G39znKEstnoYaG5k/Apz2RO40qYZX6XfWrVcfFBQ66tLD0FIWgzuD/OXX8o1l28qPNxwmdKtWjdzVI7Wk2/Z6zoNThXNe2u4DnE6Es8lraXvnF5HPSvb1ZN7w5aJNm89vMGmtS9h14bQl3Zrzl/o6SLIDH33ZTQcPBM4tp7FQFcvjfyKNdDr4aJIYeAUFM5yQ8ZCVQaxCsT9vkKm8hSIkp+Ky6RudoM7wjxrMLbZ1f9jIU2tQRHkaB1NwTU4A34uG8xDtcDAqX1RSGvZdi1/0CPZM2DfY+vFpjf3N366BDJD330ZDQfPBI6t5zBQPIibf6mK+BaVSjtvnJrCWe5HKYN0BoIbDoTn5IXnH3wAyyUHbjg3y3sB1lTaPDTNaZjllQo6YV3mgVwmhHqkS37eH0mAQdKlc4X9Ea7hwwDuNhcj+f+ALhz+eBxvK+1zAmebePOvladLIsUTKJraMQhSuDBSGLi5dAGOU/mlfE5f56AnBkP+QyE4VsyHHNYbA78W1l1NK9JCHiRj2DGAPjmxJ+xYsPEELrk3rFnwa+GDY9sxH86hcAHo18PLaDj4DsacxcRFXIIFvUK9Sm7c7VMPZfuIJ475wiw+8CH+piJ8YFnIgUUoTh2n7+ScLHghH6Mc/PApCeYkdwDl7lLmNbhJ52vUOP8y6l9AuH4PYTnKAO8D9A1fG/X/RHvOI+ZWPNxQm+EcCndo8XE8DMCqmgf6waUNmUoB+1ymdE9brzrUmxL/wMYxYL6B7JPPm6Ttg98NXHoJOcIDOCWZ/vfYtWXKfWIuPdT24VducMildG74zcPQPMZ6BlK9gt5I7a9Hel7EWRzeUJPhHAoXhn6dvIxQmPNaygfi2otb6hVq5iO5ShTDDVwZp0fto7+dFMEzXy0cf3BbYQj6K1SPU2nlgicIXrjk+z1z7gtz7qe1Bz/04ZBL7tx4zsPQPMY6Bmr7GnoffbIO5pGROGeYWyZyQy2GcyhcGPp18jKaURTLAp/gC5d3CSv0CvUquXG177l/VGwOijB84B10gMptBhen/ab+p5RbudBo4vxo+z1rms9erF89qznvAVlpg3CV6qFmwEBPr8Dmq18M8NzkAvxAUm7gzipP7tvK52o/wznQxZEZ+u7LyLogGRyxdSEDw807kRPPve2Zt1JJWnnFw4bLUgyz/QVBW/kwy63CEbBBVpioKmQf4xkMoFdGag4fz2CsLUtwo/GLvTaP39pWfr49r1sxyeH1zk2hjsdxiplYH2ZAO+DDTg0cmBwsAxwpF155S+HFeiuv/G3K5/A3VfKAmE8I2MrJBAhfLoEJ8kuhcYH8pEZuL2UT6z4ZsOoXZGftD35PlOCidF6gN5KjhY+R+Ba2JjnQvZ8Z+u7LyARAJrjXrYm/lcWUEbtQt6Kf3Qpeewe4SM4cqGNPjNnYejCVbMBrSY/vgyMu+b42b9HV7N9r3BHm7027CVyTxMAavldJ1Miqv5AHSc2ntmaZK+Jb+gxf3wygb753xldm+h5HN98D8m85K7DpRdcSqzfGbLtRDn7w0QWSGfruy8gEQCa4xy1cuJArMSImlyvjW8byeADRz1Ja5k2+eP1o3jM88qflwbnU9nNrkid8p2ywz2VKt7jOnWBeNGpTgNucbPPYps1rg3mbh7S2lhPXnt2/Mj6PHXMbBtAzs2uJODaoz/GCvHv4hW1Ptj3xeuLMtBnJ/42LLpHM0HdfRiYAMsHdbf35Y/Kw6c1LXviF2vWGWWLn8QCin3PSghxZxxqf3Ib0PfIn8+A8yr3ab5435ilb7HOZ0q1ar3TE88zNZUzuPjWXNqPfGr5Rn5q9lg+PrdlYrsn4lr6f7mtlHcE1YuL7dmmRb68Psjt99Ob+kTddIpmh776MTABkgrvaet22Oy9dGftVBlc01YDx2Dc5TNjTZE2+UkfWUe7Lb6lP3xoWviZ9rPrmGGhuMWT+KZ9Sj75Hh8zH6ptwaXjl2gz8oz5r7GUe9A3uauxHdWT8UX9Pt0ftSO4awLAr/oq4yNGKZ/hrwW4VuyWmtW5P3l8Y6BLJDH33ZWQCIBPc1Ra7bTHdgQ+xXyXYAWE4psfD19LL0E3JGoJQxxZd2JBEbM0ee1xqepZrs2Mh9xJm6JGsHRx7bl7rL6cn/Wt4sZbzo+1J3/jWdFesIQ/UgvCsHIi/MuZtsdBDq2uX4hF4UvunriOvGTzDdy03MzDUxrbSa81ZjYuLS938+1f/iXkZmQBIBHa3jJsW0h3AcwB5O3yjfQz7Gom/LqzRhQ5ajkuqNu3XDPip1a/xCR0T3zIx+Y1gRpJjTs1bQwFyi91o7FH7FqwWuoQ3hn8GZF95Qwx83nD14lmRT0sM0j19tOSbzJUu9czQd19GJgAywd1t9fwCuktiL6Cqg7eCZ8T48yf7t7AWbL3PCYtJj2SsQ+ZicVPoVXEJ5Zf8sdGcCb3SJzD3YPjwzbGk5h8GbR8cpzZv86ZrS9i61ucqsHyu/v43AtgvSWnv+Zty4YPzxtdjvocB3mt7ENRHBdZ6i4zmpkZEDvJcZJB2byEGZMoRMKX2T1k3yYP6IjP+qEFeRupexllsBQPUM9nBL6pCc2b95DZljFlxJAYZV+43fnedP4mhMXfELNaxNhcNj1yr9cX0OE4zrMw/n/bABT7u5+a5rIHkjL5jrGUAPcjlWgRj0YB7yMuGRgRukisH4uZirsaUwzKyV5Nr0X/hUvq5shDoTdzLCOvFIKEQDNT+v7iUl9UM5mSMwiEwhYDYRk7fZ7LWH+JzWWmL894cM+f/f//3+b9Mk985W7E3BZ+IkfoEnal9ub4Tq8Sy4lv2DPjicgWOp8fgfYf5yZwM58AbEPNJhAAryV0DGFLxd2JLYepZL+VZ5ZP6ITM+dhGQE8jnGT+xZcAA5390bgCn2UVVr+CCgmyOUmEA31xWmJmoIKaJs/p/7vgdDvGZLNWF99rbj9WEHsPyT6PvqfgasdSqg3PIWjuXeuilDDiZJ0y4zJjH1gAD/HzIOgy4XWJa0x/IrwsQD4B5l6O0EfBBpjXX7KRwpNbXoLKNYpIL9UNmqLsIDJmxj61KBsBli6x0/aGm+f9QmPhBsavGpEvqIzZiFA7Ah83oB49pGBc1rYbHcbyMNB9Yq65bNQChyB/HYqv0CYwlPY/7J2N/88l7KdHTqTy56dtfTIYZAN9cDjvd4ID3B+YpGEO5wjlJwzGEyRCH5grY+B6t3TK0/JpzK/SD3i0vIwC4idRmAhsNOGdy3ujKRF1imFVLxKkCjcuqSrlPqQlPX4hvK+QF+a0xtDKaE9kD2qivn0TgbCirtLEJxrT7qTughiTlcezgidA8MY7OMZGTp2WcBUhP2HqxyNbKtNdPCPQYZG/cETvwDznia7Ytx8jns+Ou8G+ST6Hh9NtOGAFIjVxBDMXIYZmNIReb9rwODbcV1uq85Y1oBYD5QZ5sad0U+U2KOJIboEEOQYQTyCFn38YjeX57W7sCSrhci8A4GhLJuK0+/xkfsfXLAPqfy9/de2ZoLZKlwXuMz0t2Vvun1QJ4Kf8dfFnxrvnhuWn7VWuFptNbUhhpQLD2ZFlVAMdKWu164ZKvqsFvQ9FnVfYVStVYKnx5VUHtavBBV1I/xJN0VgOkUgd4K9V/1YDpd+XfLLUu9Ua+WQxMuRziegTXItvb86ulEb1rIWtjPkmP87oq7x0xrXI7GXuOA+SV0ynu0QWdGfquYmQCJgMktvYzgBqTbBmwq7bBq6HaoF6xGUu9a3eaNbmilpCc+hr7bNLcWVaxbhN4gLXO6qUFLJAwxjck1i0lfEOK/9fRyMsypDdfXTXzlkQlHtSzRVa6DrVKBsB9pXqX2ooYXcAajW7Jg6dtkhPd15mh7yaMCFCMbwbwm5ig7dvA+Upr43npi1bczstQhMf7TqsB+ND24Bw6+N4lh3FwMvhBTK1bJlqIMZybJdZJvnI9NinkUreoIZdLAUSwDwbQb5Afm50fvLaWfjvhmJjdmBMRg7yGSOK/E4qj5sfxLU2jcNG1JH8XC3x3xdhlVNOANTqr8HvCMjtnre94/nxewtKiW/LVs28WH6RIEKl1qTfyXYhBOd48bsoP/SjlzfU7MTf0HGRvDjfXmXPD571cebFDzYbw0J2dGfpuxsgEVAbQUVt//rz/1//4bcxQd1RqHGyu5l4OXA4jz+WWOe83zCk38NBTF9iu5Kg6Jk9yJUCjWNV5GsVb7aan31ZjLMVDjbgs2TTtH97DTbkuUh7pO17nET+LUm0Og/xgKL+xfqI0yYXOY2bouxkjE1AZQMdsvS463HdcHpNDA1DUnSQf8pvvrZwD38qYO2PxfsOc8IAHyFaMvXatcTjWoi0ShCwa+FNYyeuO7Cm/0wZqwuW0HNC7kNMCPctxT98tqbeDMmjcIHcH8IYgmORBZzEz9N2CkQmwDKgjtnDJib89PgL7AEheez4fcDls6gXHcCKNDlgL/lhKHuR3rfteu1b/FKdq8EQLd1OVv01Ks3ndlNZP2OpadoAEb1YxuD8rn8W0LunhYp7OFVB75zCH4eXyzO0NB17kwCSHwm9JPI57iykvuwLRvWG82pk0p1FynrAYpdTsJsdBbi8XqNdO8wlfkJpOck2etaSi742u3H2n9EZHua0Y4LAnHrftsR/K75IeHuJgs/Hymm/Mt5QrPwsbYXaHBv5uB2RYeLPF43iEXX7hjfg51BYNWjqIM9MDhlKM20tVU4NarjiXPTaafQ0+bvc1RwG/Ns5aGOVzNNtZNPbUt8cG+YNHSKxrEjo8Hp9rNlPWZpE/Bew9TlH/ezIqZ1Lb36dyY4KbzmNm6LsFIxNgGVCx5Z8B2QPye1UGNXHxm8TlKnwr4tRwABwtuiM2ZNsTCzFvlsTLjsH7v3DFN8PblRN6rEbKpHZhljjiew4D6Ik53n17belt8NRiszt7YB7CUbgEux7HBOgkIocIDGOVgVT9TZpWjagv1sSTj4LCmdADOV2tyV9C77EhH2RXO3pj1PrfpYdeGom/ixtgh+Q5YI1kz9iVE8cKDCnJdWkOPbke32cz8PS69uQPG0jvHWCCs3DZ6VdhwYiIMwHnvQKBL8kA1T830B8lvZyP0h5ilPT4Dz/mJZtT9nv5reVO8lBjV6Mj/Z7wjd6BHMHcW7eRmMANCV/45hJ7tdJbzYGHSy2XHXXQcMRaMGDFAHq+xx9suezxM9sG+Ibi0IWXGfpuwcgEWAZUbPlmoKX+0CVpPeC7xu/ID3+N/x06o5z22pd4L+3v4MoiJu+hwhVZDLeDoxR+ud6bW28/FckaVADXkNKdV9wSZ3wHAzUMpPq8xhY68KFJ6OyUwDWEoXDRxeN4iN1nGlNj1ow///v7l/7QQDPX2pb8w19J79Z9q/xH6pGyTa2fXgv5iOT5YI+vleZWNSzFwT4wQqbWab93eK89OIekPPm8N++wCwa8MDCjn+FTyl05A8dQ/MJFp1+DBSMTYENZhfFOBqj+pYGHMST00Ts1PmCjSfjR9m5fs8zdug6j/rzXTj4sCS/WIGtzsKxjbcwURqyTHBk7curFC6xc9voKu2DACwPo55l4EEPKmTG5b8Tla83zwmWnX4UFIxNgzZmEgQcGqPY1A49iSM2mt4967TQMp63NyL22pimugAkypXfrOn9YFq7ODwpu5Wu0nz5I+v/buxYkyVIcWaft0+6dZk2R6ZEKgj8CSTxhVise6ONyCYKp6e058MHrh5p4y+EATaohUBdVEE6Ca3CFmKncRRniLPlvXNbDj2MCRQNyCVwYu2NgpO61hzFPHI3e4xu63P5J8x359/De4ngHrlZMS/t4YI1ikuB+NOZufU+9gLpxSfwgB8jdnIX/bwbAPckY/e4rnuAAACAASURBVAyAt34LeU1gSKVUJPhd8rfjcUzAYjyTgZ215z9QuebPrXGb2yuSy18q51Jde/kt2UvhO+qnN2kGCiZs6WeKDZKZsbOmmXBbl5AL5NZgQs55eTBPXSMfkjH2MxB8r3EM/ta8yFkDTypXIsDXig/R/4U8AkQDcglYGLtjYGfd8cPEJQ5ASXJdzN2ROgB4J/853+CUyxzcnG1Oz8UaTxbzBnCoQb7VscDle/Nngt5Oll19Ioe0D7BuPRlenhpm7EFaz8sbPvBKMsY8A+Bx3sNeS+DjcjQibEftPvTp4FdGfrdgJAKoAia2bDNA9d81+A8U5oiV9h2+occl9mArKZE/YkjKFk7Eaumt7CM/+OC8Yo49yNQG624lEuWykQxXpfl7pBsfmz9aJ+r6xiM4AW7IkuvWfslOc50wtwbygmzpx36eAfAHmdeK1REGvHEJvJA9uY7oFv1l7mOuy6/yv/WMEYGhAfmnHLMnMCDSjA2i+FsCqug3SKxDlmyAV1oirqRsYaRY0JGMm/qiGOnI8QudnD72XMta0oXEYPK1jQ2SmXGirpmw1SVgSiWM+DrWahL6NR1Le6N4oQ9pKRfLWMAXyRhyDIBXOY/nPAF7qyegt4SscCfD57///vvvf+mf9J/FAFBIGId8DgNatRc5BKxMM/4a7xvmXXYKrJCy3vPeKFbv6NXV4q83jxE95DJik+pyHydrm+LANzD0StgVJRIk+TvgG9/WJeGdGcgTcsbH7TbgZpbj2/lZzQ/8rvrRtEcOpR7B/hJGdj/l/PzdXnw3MRIBwv3H3BUDWvXXisuLw3/nMef7p+bExYnRG6dXD5xxeSKPHTF4DjSfGTkfWn2OuFzO5PRhkybIiEKcD32jHxJY4QPSaKrHYIEHkjH2MQCe90U44xl55PoFe0tI2N2U85O/4pkRgEHmnMTa3Qxo1b56APAjvJl6hOHyIyQ2PhZlP6o8yIZ6eeupd48OOQM9XG6AfMQlz4HmMyPnQ6O+iNlbx+5c0wQTohC325+ioiQ3yFvSpyI1Q6GfnPsQUULK4FvInbqbXD65tWGgyd2U2ueveGYkAiKNGt9uGKD6awzEhfzAkP4Af2zKfqSh2NH4fvnJhn57O30Gs5y/0fxMenRIs8pf4tP6Z5rLDN6cj5P1Raze+g3nmCZI38kAhmTZ3OcunLv8miMwAKkwcGN/pTml31NEZ+4m7uf75qLdXyMAIBnjmQyg9vw37wQTiJuNxcE0GjxrP7jIw32Y8o2NOKpcfACS+2jFzO2DjhQF1jdSlIbc9o1cmgGgmEkaW/BBXOb4xL6ERIzdcV5YkWAmd+QCFXxblbv4OloPq+QGri0MoLe2OFd0yvPi82lIlfuJfMbjeJrZ+w2pAV9N8u/7bwB3Zo+41RhWfl0P4Ojio0rW+Gbr8kkxgQbI8YgXWYAELivptbiumFa34Beyqnxwk9NCc8sj7XNprNZqM5MfctjN1Qy2J9qgHrflzvPi8+k8G5dP/mr6NRIBMI08DGcZ4D8+sz547bk/zGf99thR7Bh/DPBa/K1+/gcWvi41r9Uh3UNfQEphcOkHJDBJ09Io1bek37MOn2mdemx36zBaXv8lJbDujjvj/xS2U3FmOMjZAC+XOb1YO88AanI+8v6IyA1yKWLtUu79m+MlAGF8lIH0h6dR/yI2aj4MKZ/wF3KMgdxFcKImubhAzvuD1lI80HukTMn49+/NT46PGs85/daatL9WvNH9lB6yt4w57fXRfEf0rfMAfJAjuYXuOQZO9uy5rP7uCZH+o4uoMvK7v0YiACrBY0uegfSHp1H/LIDcweJ+s0axuJWBtCa8HpjvAJDGRYzc+k4ciOtGggz2MKal3CAuc3zmdGtr8CPhqxZHYg/0cF/Az9cszE/jQjwLdeRY+NxCXWYwWOB0Bveozc15ivVh6UL+JTt/Xf8aAcRoYUJfjwH86HA5iubmgzXKhRX99Czy+mK+A2saFzGiR8BEWaIuXOa0SxzndNM12HKZ6nj6Rh7WMBOu0wNcaMSmXHl8LQySnCMfSZ9Wfd1QrxK3qONyjnQxV0Z+99cIICr2sWWQgdaPcQ3ycsPVnMfeNAO5s7hS5xEguZ7I4Rnx+QRdXh/MS3mP8gl9Lku+va0jJ0u4CZPW0OBDI+Zufm/MqcSZZr+WMEmto47LOdKlXBn53V8jgKjYx9ZlDCw33GV8WEpHqza5eyC3ZokrC1jwIOayhKuHT+hwWfLnfR05WsnDAh4LGKzUYwbHk/ijXG8eIrWMx/HNLSKb2+0HSpat894065OLnVs7z4rtiD0PY2RAfOY4xTok9G+XOS40c7aABz1gAYtmLWZjP4W32/PEOZjtg5ddPI6X6HuU8e0HynsxtevDLyQ+986rJfzgNSct4TyFhXiwMqxhQY+s8GMpp5U8em0lOOuNpal3e11F6vj7OIavVMY/VrGpgznRm0KIuyXMMewyYKU+Hntbu6o9nHEdPtfGrh2fuLAwUBMLWIBhFtOsHeJ6lU/Jm/K8eczUETY1yTmLxzFnI5nXSLx1D/81cC2/hKb4PMQA1cTKQH9YwVPDgZ6u6eT2kKO2zGF72pqV3reCI60/ejRdT7+hZzWPFK/0N/KX9mvN3+317akjdHLyVa/4xyr62zZHYm2t3/O3Zs3vqb0UFR4RkOl+DleqE9/7GCD+LQyOg88tYEsxoJch0/30O+3xdF/qO42T4xE6UjG9+8lxdDonCxhKOaNfchj5Xm6/5PPG9Sfkj3rfWD/KqZQf1rksckA/CpWR3/01ogC3Dk5eaa6dO3CdwoEHBGQtLrBB1nRjT4YB4lp75DDk1rRxIj56GRLrXKKHIfme9twiJk1OtPnQjt/DfYoR3yRj/DysbucBNb81zzQ/fEN25U0/CpWR3/01okDeB8hqSYt5gn/IExhrj4hc/BKvOd1Ym2cAPM97WLes9WFtbz3ymodST4NTy9gpc+BcY+Eea+16acfvrST6xgve3rxW9cDLqh/r9jfXHTXkcrgeT3gcc4J65sMkKhlQLjQglWA0wwIfuAdmrDcdhEKTAc5tU3mDQk8te3Q2QBtyCR4hh4wVlb3h3U2VZq9pxh7hNXomz9ZTePHSp/kqfa+ibqn81uxcueVxnBLS851SBJt03eo34cXgc6xZkSk2znO6ZwWzNxyc09PYe2uoibHECTBxWdK1vA78ljGexKbJh2bsXo49YOzNZYce8XP7sJAj+nCXXKqh58dxL6G9BMFfr762HuHF4HOsWZElbFiHtILXIw7iUIPH0Zij+lK1AD8lKRVHyw/y0opvMa4WJ1pxe2tgHV9vHjv1iKPbx8kc0XMtWeK8ZZfmAv2Sv651j49jJA7ZlWiHkrS/jpDLKoQZg8+xZkHWcHnk3AKnKYbTPM7Gq/VCmpPEN3ByKeHXog/kaBGbBiZNPii2xaHJiUU+SpiewNOuHgV3JVniXHIdsZd8enkcI1nIpaQLxjt9F0KKLBNuGpAiTgWdtHB55V2QororOqSNg5rjEGYN03rsZBdxWjVNzN6fsH8vbJwg1izWjdC2uEa+W5w7darFidWes4rLWntp9c1JHiR6ATzV5MmcEAt48D0lGz+czX9bhQTBNeBIErKmu7p3IsYqRrJPOcc3pEQMSR89uEhn1x/JXI774i/cymEFd8CXmlVMYVKV8E9ydUj4SDFwfHye6t38jbxvznEmtx391sJhsRYWMbV41NzX6JuT+Y72A/Rr8iT+WixgrOk09xo/miqPYyQG2UxCSOF0vBnYwJiT5C+3Tmua4ys+Xm4ZUCn+jMrHUqrf8/3hYNNHJcWxiHAEWbBG3tiGOpfY65XwSVJyfPlbAMkx8rkkXi++vnhdAT5TE9isxN1gqwELvbghnWmXov0xjcKP4e181XoUezVpuZLAvYSRLo7KyO/+GokAYMHhD5JtHZlqxZ1NDnghyQ/mkFibjSFhR1jeA79UkO+NMxPwwqV0ZKQGueQfTiALzpAPtqHOJfZyEvapzOmuriHGyw8HiHlngA8/nTa3qolygTpw2SKO69LcyNCCJVoPIS4JU4x+BizWsB99WxP59ci2N1sayGkJVeMey95yCJyTo2BSH6P2kvrAIulT2xflxH8gNPAQhvfgYBrN97bZOEHNJWUpxdEY77Th8L3wPYFvvgOzlGboppLb7p5T7NfgIDHPBWd7wJ1Te+qaKCfgmssWsVyX5kaGFizRerS45EkWdI/iKWDwtnwrZ8irJL3VKYcXueX2utca99jHLYeAO2Q34I2KlNdtg9+bmJ/O8YNXgIA8DeZAPKQGyc9Lb3hu88FfwQH0022s52Sqe/L7nRNI4jIFwvf+/fv6Z+5T9Sd+o74iuSd8t/6fQV8xUxsRIOtOtGCJ1qNGQ5ogfSfjGJYkrvfPm3hDLjnpvU45/Mgzt9e9ljlL3PYfgpB8j18j7L3XnU8+cnSeC+B33J1Q3Sa/eAWobRH1HUumiHM2Kqf+KwNJ4I0yvPsCMUmmg+9hnupc+t2bLvpClAYEJ9k7YNOrf0gPsN79diDulprkcCM5LhO9Y1iSuDd8nuwZab5Qdy7TGJ7zS3Ph38iZrw3P6UxVxutx/LX/ayQC4Mu53sKNjcLvTMxPMyzFq5Sf0/lLx8O5y8l3LBSby/dmYcJ1ab55NOuZ4sH3ZlwW3CNVyBom9EFNJ/a+/y0/Ozk5VhM0CJdJYsewJHFv+PTGHfByWasD6d04kP9SbnSmKiO/+2skAqAS/PTWbfmAv8q9CZV52eF89QCiLqt+5pP0YfnBD68L5oU03tuYQBb0pZZR16I/4OCyqHzXBk+Z5rXR5LFm/KC9kzydjFX7b4iO4riwlzzwB4xc9paCbG4c4GIpt8bFm7+WmdFN5IoQulQNZ8bpLzjrC56JRI9I+OCYbpx/9G9nbbjax49soZbSvJXq+lrn4A7hkc5v1t9I6iUOZ2PfbHeKq1NxWrUiHFawtLBa3LfMH7BBzvB3a2+scPLmsfGbE4/jN1Mx+WIg/QXPNJPU4ZPy85XDRQtfFwKvTyFPrvIqHxYK+tLLX5jZv47wFeswHun8Vvz1pJ7jbyXm7ban+KI4FoYVHBa4mMFwql9GsAGTRG0lfIxgP6ULjpbivX4Qyx7icVzmJnbw681lwsrQ4ZPyk2B40ucQ3//7+V+l5rTTnA/s8TXpOTDjQsO3dJwb/YGzG3MbygmNmjZwxsmJ/joRI5PaxxJhAC3YwHcHTTB5vLR0xoBFqr/g77Yii+TVOCTJT+UvhcxIqkgWiiNCqIVEDmF4tQH9n98/rC0+EHT1CPMDf9xJlw9u8ND5TA9z6jltfL1UW64/OwfmqPE4g+Bu3PIii7RRG816os9OxGhVMEdLutbyEft//8NamlzgnEv3Ffxq5rYjtkhejXskHsc7KneJz/SiLfVS14GuOHs3Ote5hMMdaXTx3RGY012qbYebogrqCglFHhdrIfMMpNzltS5f5Q2DeSHlXXylYSmO5qD4wFSTmhi9xEYtIU/jprj4Ix17l19pnKP+RPKig1MZ+V1mRCBuGSKE3kJGZx784i2ZdPdIwdnLnu9hXgr48HXJPt5FdYoRPYJ4XD68nNX0Ux6rys420RMt2NQr/CX4+i4Y7eCL9ypi92IvwFxeRp7ABof4Bk6shywzAC5P1/REXMQoZ+9zRySvxiHpehyfbppd5RIhdBc4x35F+oPf6pg75mQndOt9nMOHNZSWyxxX2M/tldZmbEq+rKyDNyt4enEAd6+s+UVduczpI1Zub2WNx6U5DYqlObTja+YuHRt9AyntP/WHOJDpvuT3iRiSeHt9ieSFw1wIGo/jAjGx3M8ANerqePngv0KrDi+3F7kcNnBUw4U+aZWZ7zfur3cGMzZvY+OTGqea0IGrV5awwr60T+u8vjm9Hh85u941xCf93bFamLTjt/B53CdOaUBK5oB6pVIyRskXYpb2va6L5NX4cYnHsdfuMISbGnV1iDT7Kghn9hK8S6bcqmFrH1jwEIGkdT6HHpfYh+R73ue9vEnmiZi9cjU24oz6gR3JU+NkrFxO2vFzmLyvgVOSmM/mBB85Oetz1g4YZu2t2onkRT8WlZHfZUYiICoATm7dlMtJ3lqxiNfVEbUZZ1CC9/GoZYueGvZi5o9czCFzCLAHmdPxvNbD7Ux+8FuTM35nbHIYan64fk1Pco9iag7krInhxti8rnzekytqkpM99jt1gGlnDA3fInnRj0Vl5HeZkQiICoCTWzflcpK3aiy8RljPVPUrm1GfCjmZLeLLwkDdevD06KQ58RYrtVmPTurX2zd4lsANXzP1kIjf8tHC19pv+Z/ZR8wZWykbCxikcrHiJ+WUvmsD+jlZs9Paa+UjggsXsIizthNw39asaJR+TH5N4nFc4S62GgzgQHDZMGltizR9K8gF+5o8IXYqe2glm9HB26t0n/XojMa1pg++V3DBx0wdVuLO2gIv7PENifXdEvFIag7t+Jq574qd47S0hnWSmO/CJeV3O06Fy1eE/9KPyS/x8TiW6sAn+kkPRaPZeijCQYbssXmijsjl0CAOMVqy4ea9vVJTtNrbWWbSo5Mxc7WEWoyAhg3kiK0FXfQN8OP7JDbE1MYAHCdzvz1WjlNeZ8yJBz73wksuP1HsuHghRZ3nnYnUgfBWRn6XGYmAqAA4uXVTLid5K8bCYeCyqNy/gcMM2W/5HE1pbnA2SnKVWWm8q3i82vP61HLgepjX9C3vAT/kaawUNx0aWDRipnnf9l3jNN2jb49jO27++8/ejju5SmszFauB9XGP4ykSw6jMAD8YZa3hHTT/9oM9jEzfANysIoGfVK76Te3hP13PfqOfspuxSAzk+MQaly7ZSuqPfLRyacXHPuQunLv978Jt3W/KK74hgZ++vY4j2JNzu5urtD5T8QhzZeR3mZEIiAqAk1tHmuRkQsZi7eD3pv6TKtcMJ7ApSSlsOT+Imdv7WMMFC/mxGR9gAHzmJHRcStT9VyI/zVx6MUCPS0nc8Cvp8+m+iFMa4Bbf4KW0jn0vMs3LC+4aTtSmptPco3umMvK7zEgERAXAya0bm+Qkf61Yu/i9qQdbHPbst3gGXyXZE0NSBziaPpPHUVM/UYB5snzVJ7gkiXzZde07V56QgaTAdY1UDpnrwXaH5HFiPscA1YUG6sO9YA06fM/j/JY8OPeoEV8bnjfumHgcDzMaBiUGdh5CkcNQAu5sPeUZ3KTSSlrA1cTDXxqNiyv1tWCaujL7zeue5jtIl80c06SUUbb6NoU7WwPE2SGVKTQZnvMMgKU17HuWyM1zDil2kZwaB7b5OCZQBOSGcUseVmsR/E5WBr+yneacZ5rzP50ujqohvcZd9IMJygWE2E598fV0r+DK7DJySQHyukMnlamNh++P/kVCysA/MBWwACqXBdWlZWAZcQKbnBzxc5Mu5wJ5YY1/05zWbxlpjjfkJZITHdzKyO8mRjc0igiZFSJj64eBG3rlaC35L2ty7ko40MuQJT0L62l6nSlmodd8pXtZBw4WS3mktU71+LeDNN8QkRdJSwO4apg455jX9Gf2enD0+oUvyF4773q5fHNryLO2Bx1P8rZ8iHuRnOjQVkZ+NzEiIN6HCJneSTiA/4ZeOUDTXwj8qkL+7RRnnnoZaXFZTKyxwX1gzk1ya3zfwxw5QAJzeq6wn5OwsSzRw2leFjCPYOP878AOLNK+4dci/1K5IkfyhzlkLUaPTs3e2t5t+fB6LnFNh7cy8ruJEZHrfdzYICZqkvw69PQKTEzg1wYBMn4lidpAH/fwXPNzai9J7/X/RDYbe9oXDGcDH7QDVMhSvbGfk11wuSEZpN9dTuaUkNOc9X4rS/h2n3NLuUpVFjlxOeIbdiM2lnVvy4e4FsmJ7rzKyO8mRgTE+xAh0zsJ0vj5D+rvvNUrqYk0JJf+fknh3KR5oH+5THWsftfyGsU87Isb0Nzo4HUFZKyVIEOPy5Luxzo3KM0/DOQ+WjnJRZr3ZAXjKRyn4sxXpM8SeUD2WX1rkT0NyG8NXyurfFjMViQnuvsqI7+bGN3QJCJkVoh85Fbmh7XVK6nJI3lLkk45SY7f139K9trLrd5IaJH5TMld9Qp/q35+7VFLLlPXCJn2BenBLrV5f8P4vZD8LTH2U8n1BebASdLyAE7LGHdhs16bXN6oF5c5vZE18AA5YmtV96ZciGPUe4nv3IXKHHY/jr2TK0ImIy6mvwzwH9XfpVavwCQ4/GMAnPDzip5N+cT6n7WPmRpukLtKE/xALvgDF5AlVwjFZapb9MGNaP47XlO2l35DT0oW8UkFEPTjCatg2i9Xp3JHHGkpyQewSfrU9EX53DRE6sPuxBw3fzcm302MRIBw/wrz25pDgcLukMF1N1VFxdqZq+0VHc5usEfUrAtut9wbwng4tuacx07uyKbtrwJqB9myS0PmwhZ9pca/wdLlnM8Wrt79IrZeBwf1qlhB2kE8GqGqHCwAgl9JuQCnaQqcTUUnCpTPTUOkPpmLD35JxuP4po4xksttB/E0rTigtbhHOMaDgMsaqI69JdwcB+YdMUVVBuKijqkcxYOQJEujyCuME0Ms13wmJkOfPOchw43KLUzY/4LAydpF2FdQvYViLw1CAp+pHHSjog4OIFVACAa9JQ9Qgp7C95T89+/9j2fAH+cpf90mFwAMpwAYMPKO3wCF3RB4c3UbeVTED6YgdvTpF4eZWF86gjjerhCXy/fm/GQKO8fA5zMwYF+wxTbJ3sFrl5v3+pnWA2g4wDck1g9I5H8gVFcI4CFZG9D70gGHkF8KjhaQA8nKaHFVMf16cNR0Le8V+8Ey6AK2lXoWXKour9QGtpClRPInJDk4LScl55bWKYcYwYAIA/wHJjkro/5xtiC/7AuxjvUzj/8Fbm6hmGvJHcfA5yX92jq3p3ky0u2MytsCeaTyrXBqkgOdWzuAB1wcCFUNARyQVWX2/+ADfS5ftuCz5cjyPnLgsoAX+Re2s8uwgcwqOVq8JQ+inHK5aYzUBrqQbx7oHFRGfjcx+nJacWhxyzt+i5yWMBHX1w/+45KclVbu6MVUFu0KsWBftJPa4PGlfLLHSJdLjmGQ7y//DV/pNg8HzlP5FeP0Qg50bm0jLs7JxjBN17M4YEcBMC/JJgirCoM9Qfn3jJSnHhsPOsjLA9YWxt5atvxY2a/VBntcZnHzyz2jEI/jDCmxNM/AbYcwy0T6I5NV+lvkh5TP/zQqs0Is+KlYrm+lsRuXyWjA7hxSHKOBuH7DV7pN38DJJXepPs+Bzq0JA+V80Fx7zGJAHjX80MnJmp2pvYmeqHGacmEqVwEwyB1SwKWaixty4OSh97CGb0isVyWdh8rI72aMPJM7RFiFrNhqM+C5T9rZMQ380LAlTNFvqcR+KiuuflQLCtu5RlwuU/D0jf3cHtsmtXR059CIkfqtfjd8YZskr2HVp/bmL+g3nzwJmo8M2P7a/Pu///2P/tDgfECt5L61/+teRLzznvCGnEZNYVeSo/6O6A8WBblxbFiD5Hu3zW/JkfJIB1ohXffwjbpATmEuXVy/zvK3ZsZoCUQBOXy2ZMG8uZz6bRqEwjIDxPltI+2j3u8eHnBBQfbYQAc48L1FAljmTnjF4/sZnXQ7VbHUL+CTyy2cbnS6zGdSMDyMIcFNovb1Pwve2pekYDXnVXvKBbzUpGTOJ32VcjqJQSsWcteKLxU3zSM9n1JxdvkBfi6XYxEJlZHfzRgBVMVXcws+RmXTcUaBYvCBmHwt5vIMpLzLRzjnET1Ty4nr8HkvytVLqoatF8OSXiOBdDu9WsDZEoYFY8TncsGduinymAaSFAyPYkj4TdTcPo6X+QIhiYTfkkzUTX+mOZgGKwwOuQu7Pe4uzSM9v8cBNQICL5fchNaXR/pjlDjc/jjmyWGeYDjyqRn7SIJGgog0rWIu6JNWHjU9vtfys3pJIZYaZY0E0u3cfdTiSDo3cMaldAwtf8hpJv6rDknB8CiGhN9ETe1x/MIMUBNy1b43JOpSkr1+TuoBK8Xk85MYtGPdkneaR3p+tXnmPQasJHMD+7m9obXcjxFz8O+///5jn7/TglEJ7LeDv8M0YpPzI7UmRqgUoEv9WKn3CL3oDciaLXR68+T6JRtcVLW4tb2S35qN6F4jAWwXrpXXDy90RHElznpqkZg0P4G7lFvTwYJCKTby7HENXS7Tf4b8/TBGwF/H+Czl3trvwVfTAeaaTm2P7LUHcshJLWzA8u6D3wJb4EuDkzcfGsGFYuZywPkUCjHsBpi47HEC/R7dqk7p4vo1ev3N8dcDuWDUAoV9yCqww5sWMR2m4Eg44tnLQE/0YB7RLeXPffTELPlJ1+E3XffyjUsaUho3+JHknDACL5fS2Ev+eEzMoYt88Z2T0IHM6dDa2zcmkCWDg+sr9Vyx3Z0iapKTu2Knsd6FR73Z/5rYLgxW/YIbq/h6cVEeNJCPBdmLnesBN1+bmlNvV8bQ45j8gGDuE2Bze1xPcw6MmhieENtyDxD/6INenKP6vTXmfnux1HzDX03H6h77/X39JkvgBB+QQz45oIohV8O8oi66hXhcIkApZ6xDQr8m4f/rsVQzOrA3kkMKZ8U29XXiG3hrchRH0xcKz2Xh9380tjd9cOUFN/BakdK8Ia9lv9TblfHe/fjb44oRgKWyEsPEFvCaAHM5COLawkDNU9mDjdv06K/oSMWCnxUsGrb897dy9XRBAweQXUZcKQVTATSgyiOIzFuxkX9OjgBAHIuP45E8uC5x4nmkNaVc0rXR7y8+UHguH/w4BsdfPCkutGqcQiP9GwbyXs6FersyPnbfD+SKEYB5JNoj5krtzG5p8sz7k897yeI2GnmsxIftV67JD9zX/sCCoKuPqPD7sTjwgdwhB0w/VQGEy0+Nj69OtQ8bqY9SbHBA8v2oRVBuhDn2CvKt9p4UFA8tv/KajLViOxlyvsjv6gAAIABJREFUuxmvd8+8GxDqTfJ3wD++nyDRM5AaOYP3nOzFo4m/F2OPnlgerK9zcf+6/nf39UBOjHIFEQOYQ7VpzSPmTVRsd3uaa96jaXK9WGo+Up+7vzmWdF6LDd23Dv+Bw/y9OTaBOZdjHurahH10IN8Z22wsnhzmWUVbi5wHzN8PY+RRk7bSKaJ551bUKG+I9Ug5xCN2nsYj8oXcWWSKUfqzGvcE/lWMLXtw09Lr2qf7sDK+dvnjGEAguR+PRHvEzDn3ND/FNXqzFg86Jf6wX/NRsj25znH2zrMPpEnQubfVpKusGXLKbiaL0CUpPnii4s7lHHIOMP/wzvNozT8M7X7M1jvLj900TSN7Ipe7coZfLncVn2J4H+BJJA+6EysjuwsANTKhU/FtbquWjzmwFwDazfdID+awwB7SO+XIg8vc45jv07x35N5XL1ts9Dqq6PXg4fgrrt5bJXhYJ/kxihsfWiofPHfMi0B4Hq150YmdjZ7eyKFt8pQzirUqA7O1qDo1vIl8IWehohe5nPU1areKfTTeDn3wJuL76+L/9Pr+WUBQyE+1/Jc3sr3hzbPua3UH5yM9CrZSG3zvwIeYmhL5vTDwh9EvKOzXZA7/lyu+0Lhscv7StVo9ONbUrvRdgpeuv6EXN0oR9q/zvDHvjop8YIBvLrFnWA7nzXIhW4vDKq4erlbq0ePfmg5qBdmLDzxx2WsrrTeKXTq+hD/wKOHr9RdHFUf/EOyDOLo4OwZsO1RNqHzkaAJRHgR49YI3n8XfqlQeq7xweylMf1namyHfUWSw47Logz+yOu+Noi/2/3XPdbpwcAM2L8FL19/QixvMaceUu+lQ/1CBLc+b5k8es/nP2u3mGrXdHWenf6vc7soZ+ULm4qCuXOb0NNaASSO2VEzRHN6Xfh7d63H8tdUw4vqiYLnjDXPCan2Az5y0jr2Gb5V78FGLUduD/SqOWgyLe8h7BRt8cPnhD6+5j8X5D16jYswB9yV4WP+47vgi5gOxSBVmXPa64DY0j5H/d+v38ILe6dE9rWMZWy8XN+TQmyvpIV+SfPD1dI/rac+BUxvHbHxx/I0LNn/9NozS5Cw3BMfqAScagGPla3yd5+ZhPoMduc/mB3suZ32Zt+MvKwZ2hne4+njpJT8Q4JSFWp7CJ5fLTkccIHEuR+wXHseUMw9L86cP4mR2rNjOxuy1244NjdQLaFJvex6TuHaYIVcuaY7vHTElfXrCmstbHH/jgs1fvw2jFLg46DSA0LeHJgaXPVKIlqNuRmoADmYBwp7HxNqsT7N2+DHk8hfsaM5w8fVSy9wL8A05wg9sanLEn5guCMjk2xtjxAXPnziH7WvSG/BCPeJldqzYzsbstUO9e/WH9dBAkMMO+g0s89yfRb8maucxb2Dvz9aWpjh+Oh+Vkd9tGOX8iQPPBVlc89LQ4DIniQK+vkiJinmrDshvFhzsS3GwP+vfpB1+CLlkQEdyhov3Kw0LJCsDMUq8k+lrr+GvZl8J726L8/XOmXPT4Ntdwp2AwUun+pfaqv2XQ+GF7fgO99C7d4V5suIO9eLSCrYRHMA/YmNJVxx/437N/9o1jHKEiQPPBVlcI4w3DQ+cl/jO1WI1H9hD1mLn4pf03azzH8UM6BYv3ASu+AO591pAnJzk/t5zFhg2bOnKKfIk+TXe5H/tXL8AXlYSzXK64lDQViK/LjgHe8gy311cZZRQpzQ3rGdMXCyl+bgA/QtSnPvGD5rY45jwi4MXrpznxihRYZ3zGm7sreSA3wCSI35GdIHzBkl59w7OLebcNrfG98HxR0wYccmMYIOlghq2t8idMZHfixMEQhbpN9YnpKCriehzJuBmzvrHSsLHSvyWrXV8Lfyl/Vc/lzadrKM2kCXYrf2SnYV1z3US550uycrI7zaMKv6GHig1Pzv2PDdGjQ+PeaHRIWv5lfbwAOCypJtbX4md8+dlbaRfStzydZoPDW6cGHJsXA3zRF38E3G4lAry0W88QG6+EDR1t+DqmCmv+0pQKT8rGGq21vHVsNf2POZFmNM/tRyxBxt8e5Ie6wR+xbHTRVkZ+d2GUcXfu9lqOlp74uRqJZLE9XRYgRW1gExSKn5y+/QRMNq28FUMdumGRN4p911UcaOCAe8Hro55wey13KNDijU97HFZi9m798U5D5Cb9zqGHnyw/NgStExKXvMVgF8crzjbYGsd32rKUnVcxZGzB/epzOm21uCjpWdx33KNanxt4ZwuyMrI7zaMKv5eW1sSaQXt2PfaGB2pmf8PJbWeaNUFtlwSJ/jx57KHK64Dn3ztCfPVvDnnXddFapAxSjF1mLxLleq+N5JJSy/dp++VgZxIfoxcIL72odz44Hbs33aB5Ya16vYXLwtoJH0twCiaoheKCs43NPND7JqUohcxpPyd9EPYPY4tnNMFWRn53YZRxd97y2IRLGJ6EyYw2dJADBf8z0jm5muaq0suxpdh8kDO7fesIVaP7k06q3kPPb6gzGVCZq4PKuof1lyP5qXRo8d1Sn5a6+A2lxPZvjD+BnrNsfj+aEVg+79+8J8Wk0+maGta4mYGpaSvmfgtG/RDS8/7/o46gLseeYo/YDkVTyrOjvpIYav52cJ3467N/4w0jGpJYG9LMnA+Kb02xki6u3jf5Re5wX9OQmeXRMxd/q36PZ43f7VlSCE8KwPuWz569Vp+SvvgtZWPKI7EWfJZgqq23uJmBBj4HrE5resBowQnM3nCpkdKYJTwAawSvk76INwexxa+6ZKsjPxuw6ji72NrS0IfEcY+rOEZQ9+vXcqT1kdHydeon5I+/KeypL9rHfF3+bfq10reVnCs1Ak5kJwa1l+0U0l9Gy3zlLic5jvxs/PTA0ap/JErr3PPXCr+CT/I50QsyRiojaTPE7628N145x55HCMxC4WxgEGjmVCDkdgzNj3+4ZdLssN3jw9pHc3Y0rmM+rOQuwUMo7xx/WX8eBhDcucXzYknPlZ5W7XnWHbNPWBcyR35leSKb6u2lCsNSKs4U1ze8AL/Ftyaj2M0D0+Mz5H4KUmxNeOfyrPEe2/uO3iCTy5zfPRizNmurgHbqh/L9rm3l4W8Nes+VK+EQHBXxA/9xkWMf174LTtA9brucHVEpcQROJwBUfI542vGBthLknxib8a/JRvkUZIcK3T42m1zjzkGZtaFjTt5698cAwYvCM01BsegEV8jJs+Zz0tYoENydXBffN7yKxG7FaO0D5ylfe/r/DGV3gvauWvWvbuuCYFNzhL9n/8vvEK0VLeghuVUnb6tjiZPv8B79ZDnqD7sViXicsl98vXb5jzP1pxyv3mgtp5yDMysWsmlCW4g81dqYsTcTU0RjIxprjU0Y2vmDP5z+df2RjFzX3w+42fURkofuKX8WfKTPqhSbFq5a8VN829+JwQS7upI9KuPY3IE/arTn02octlhdlxltLbQb3K74beEx27Ne4mEn5w+9rjM6XldQ15e8bdwe8wvMP/9NzngoiSPPo4JhOYACZoYNGIj75xcxZPzSWsrY9V+NbZm/BXsLVv+kKJ5bqCeub1da8djgoiOhIDt1ROwg2zZQ4/Llk3nPneJeafpdrUPziajwUfJvLVfskvX4acmU5uRb/gdsblJl/K/dSA3SA95euzHVcywL8lS3fI/kXTbLowSiHR9IcSUKeJPGV9ktMoD7FMpRRH8Svkb8aMZewTnrG7rIaWR/9GYIAAyIRJYUvlWK9i999MJ9EkKj42uh5EW+Rr29GfAff6t/sxob3Zwvyt+WvERp6V38/5Ofi3w5rHG3moyyzHsIL/6pXEn52/sjBECjEoOCLZYo++TI41/MrbFWOADsoQR+zlZslldp1haA3lqxVeJy15ap/M/Go/liX/MAfH5lkoNDAQFFzNyF3xggf/0G+s1CRvImq7U3slYK5jR9ys+SrZeOCjhb617zI8wexqjHEO/mSc1fmVkd7nz2rzit7gFf1BoJgBFIXk6nhDs7W5Qlx65HcyGf55wBDM4GLFxrYtfRyZPckCxjo7fPJEjSZb6e34U08ZgPE+p+Ua4Rdcce1GJbXB9mp8eGjFHc0z7ftS+R98DDz155HTQY7k9q2ve6tGLF7Xo1cdfjpTq9H4cc8eYl4xW17n/7kRWg/7a89hCLq9zA45O14YTCQx87eR8Nj5+bE5iXY4F0EzO5j+D5XSfITcel6VefxxDcSbRQzY8P8wPhd4eBvnw2vGgfL+kw/V3zkfjo7VInho85q64ozycyl0iDnKDlPC524cnrMQF4S1hxh7kEHeNhv8Hpx/BG0ZDADLK2ZgZvV1LH7nuCuLML6+JFX40cYCPkTKe+KEZwTOky8H/Gs5wMBSTxZmxm7Ep5cTTx/zLPzYgvxR0F5AbyRsH8qPcMM9Jj7mjpbg8lQdi7oqHGu3yr+3XW36E19Mo8Yv16Xyo8Ssjv9swqvjr3ppOqDtCWRGkljWeswMuTtaj9zIGNo1qzMRGXpAauKVjzvAwgmG3f46lFgs14/Lrv3bjmzQ3MJATyZsH8rw1x7S1jLSXGN0396e33vRWi5RffC/n0Thk+Ru+YSR1YpaTWwCiGXsBtoipWHNNoEl/BFouNOsEnloY+T7y42ve5zM89Oa80zcw9MZA7V7X38cHPI39u4iZlfgUOZF8wnhCnqWWu6G+N9cPuUFar5cXnOAReEniD/aW5OuiL3tQfxwj8TLEPTuiJO+BuM2rFueUEP8BaPTmK39NrOo9ArK2dUK/411c7PLLe22oh8A5l/00HdHcydmRBAaDDNVv0PcOdW94d3CQ+ry9Zz3l560/wa047sYDRPVxTAdIPOH0VFa+NWNXYF2/hXdHT6I4GD260jqasYf/U4R08hl/4AMyozK8JOmLB0ePQfK95hxGJI0N4utJw1u+u/r5hpp7q+UI557q7qkO4HUL5sb9nr/9G0YjTdOjuyXxjsAgvkM1VBQZ0OoPSlmtR/gD7fB5bJUanKSyZZfbh4/c3sca+PhYLH9AHbKs6WOnmycf6XShpJy9DY+Y3xxvPiw397Cn3DxgBUbId49KTqjfKyO/2zCq+Jva2kpAA5Fm7Aa02P5lgGqkNVT7Y/OPlQSn4Ccne/zDrqoLHiAryvBHskO94snOFnKyg2g/EsrZ23BdJxwWyE3ke6xrDxXIC7LHRkvHcp8CG3jE9xauqNcrI7/bMKr4m94CGdMOFgy3FmABV5j+MKBZH83YXuqf+z0Fb6lMc6L95kAAyIIBYhW23S53ceQ2u2/gXutoCnfjrHyxDn3ILwWZhZt72VT9K+WyhhN4uAR8Wts2qNcrI7/bMKr4m94CMdMOFgw1Yy/AfpTp1kPSYDL6o0wQfkshS5rgMCdLNu91OId8b/xN4Pdv5Y4Z5fWk4bmOZmqFcwLZ00DQheyxmdDxXN9Wul5ys4ITOCBz/NLetkG9Xhn53YZRxd/SVo2kJccdxpqxO+A9XmX4kOCSF+jl6I1y+3GaU6r5XuoBnEKm+1/fcJZswJ7kbQO53ZZXKR/P+VrB/jqDOCuQJcLT9VH91L7z+8azSqlb6YGeMmjWADxBlvC29kt23euvw1LWNvU4JpjaRStTFTuaDAz1BS55LhfAIzbkgqvrTDnF/K5J1/keSCA+0z/Y65Gw7dH1qPOkfvNeSwu1wpl7/8P27wVb3e+91iU20QOQJT0L6xoYUXfIFg+9ei0/xf3cjxJTNvk41igcONGMDQyPlbjMM007VBfuB/NFUrcf1EV8L3PkmuFPwn3JB8LyfaxxyfdpnnKafqf6/HtEl9t5mlOONw/U8IY8LeTwcdbwYbSBLPC1gxr09A7fkj5P8g9OIHvz2I6Rzkhl5HcbRhV/IlvbSWmg1I7fgHfnNi5zLlmmQzXhPjBnvmamFH8Iw0yQFRvkyeWKv0VbDgPz1GWJ09I62WPPdC3SRCe+keeEqUkT5JNKk2AHQSGnQTNxdZwzLsWDCDkkzm4cVnqhxe0J/sEFZAtTur8dIx2UysjvNowq/sS2thNTQTpbzIrL2GoxwG90zJnNcE3gQ6iXh+Mz7EemPF/MjwQuBwGMUglqnGKPJAbW8H2z5Hl7yxN1Kklv+bTwWqpV68y1cjm1j944Fe9UHC957epZ5M/lLPe7ML7xlH6YfhVMP463k/Nm6XuC4n7vxMoWBvitjnkSSLMfCIq5ngBPJZnwZ+2zh0/oQE7lAH6mjHWMKF9vAzWqYa/tecuX8CJnj9i1Md/WC+gHLrU5LsWX5h7ngMtS7J51+OnRndah34XKyO82jCr+RLeOEFRBTPFjHGQAj5hC/2nXQ7sfPyrBucrNP5T3fKRhR6LMcAkbyK54KyC7AuxRohy9jJF6eMqrh//b8unJWUrnVu5GzoMUl6N+JLhHnlyO4ijpw2dpX2SdfhsqI7/bMKr4E9+SKOIKKO34K9hvs9WuxZED21u09NF3+Mzmwo9AWOWy2z4F2suvsp52r/em312HX4de8hrJv1c39D4ZuK0XkN3omYDdSbnCPfLjUho7fEv7/fDX+MEy/zimZFYK+UHG5Id2/EnY15lp1+HIgR2pGn/4jdgJ6PLQfN7rWoLLbh8A2AvOgJ52r/dQ0M0/czZjw8xNTW/KRYPYW/mjvGhAanDbijmCDXVKZSvGyj5irfho2tLvQmXkdxtGFX/bto6QVUCvGbsA6ZHLVAftEb3wUwG8N1PZW58Wj/Db8tfy07K3um+h10vcrHC+YlvCo7VuuUZanIzGvZVD633ewof9VI7Wd1YfcWftu+wa71w3j2NK9ghhBVY1YxcgPW7ZQg0sYLBSeDxgIUdw1XiEP8iWX/J126jxo5WrFKYb6iXFhVYtrcS9oRdyXFrvjxI+rKcyl+PONYq/fdAPTGXkdxtGFX/bt1C07YEyAY4ULBM3lv4Y0K6BZv+BBTwaDR9TQC3KGo88v54ca76KABxsaPc6p0iSY0t58RxH5pJ8jMS9TfdWHtHjkNbqxnnHPJWamI/w1vhxcfc4poKhiKeLpxX3dJ6W4x05NA0CNDGkD8fG+W5korfdOkvIsxehZk16MY7qWcipVafRnEjfQl4zuLnNDl64/yfNb+iHtF7ICTLd1/5G/+akFWzbcTR+PF0+jok0XtTtJLIAiMuWYnqQAQv8a2LAo5HLg/SLhZLmkPzdOLTyQn12xN/h80TtOSdeczjB02iMG7lETpCjnOzQJyy5PztirfgExhUfXba3Po6RPIgkeWog5ql4EeeTgZO1/oz886Vdf+8PY2JRuobS/nJ111g73WuIt5PPnb6lasR5wJz79pADx2t9fiOfyAnyZA0oZuvPSTwjsYB7xGZK9/bHMZECMkmeGoh5Kl7E+WOgh/v0AZl+/3kbn/XEH/eqbCFJUEcq0md1xB9S7YBpQuVEvyHGCI+z5CDWrP2KHWL3ylIs2Jf2Y32MgRv5pJxoQI4xMqYN/mpyzKOeNnLYjoB+CCojv9swqvhT3QKpJE+MU3FO5OItRo17PH5qcjVf9NqqHxP2OaI2A6vVbyZ0r7801ZlYGja7+g1+e/mTyl06Hs9jZD6bD2LM2ofdNwPSPfEd4fwKcoKUQIDeq0mJOFo+kNf2+PRjUBn53YZRxZ+JrWPkHvpPhSZI1QDBXzJJ/FqNuVlpnrgb/qzFH3UGjKN2YvoAwKWY829HVe6A4dusukI+ewbcQ/bYWNGp8jYIEr56eRt031RvxeX4RubNwEIKwCTkLtyw/wb4JjJ4n/P5SI7otZwc8eNFF3lux0s/ApWR320YVfyZ2TpF8Kk4Zog9BQSvFy6T2MR9bnCT0jxnN7ImVfcU3wgGMd0UBH1vHEXuUhwDGEq9kLpYCJG6UvkucteJBva9fHW67Vbj8Xvm3Y4VFLU4VEj1WMjbOE3z4T1fIpXrpPOSzU3ryHl7To3fufyvYMNoO2jBAET07nGsmLsTseQ/fcVkerJWW25OaaXfq6kiNvzO+oM95KyfZTsAILl5FM8LxzCIg3zCvAW/V6/lR2sfvTcaH7zP2tficd8j85pP63s7eLSe82586J3dcU74b/UH30feqTyB01oMcLAdV+M3Jv9L2DDaDlo4AG9CYddvd8cK+o54+QQvGC4zKZ+obSbsa4lDmz0yEj5K+KyuF8/KJBnkb9LUKkVNXKN9X+S8GelTAX5y8lOz/TWaQ9vjWQ1wcDbq/dG89wUq1JMHeggStk+Wx7ho/Gg/5nHc06irDXmsqKtAvdjzF08B84m6FkKLPciQZinOznWJ2KM+quekwxnsIYkfmEHu5Czr+3Dgkb7nPGWxFxZhl5MFk6HlkRyGHB9SBi+Hwj0mzA281nob+XH5mOJ2JApeOlTXVOjOroz8bsOo4s/s1inCKU6McwycqmsuI7yHIHM6lteAG3IGK2whe3yM1gz6XKZxEB8y3d/6jaCQW4P9OSc+ege469GHLmSPzYzObv8zmEZtKIcY8gx45zWHH/0OCdZyuth7okz52cYB3deVkd9tGFX8md46RXo0+9k20OS7+B4qbuS5gfrJo8djzsad8dGqF84pl3nW/lZJF1j+VidncNRLCtfvtZmExs1aPKa6I/rcdufcIqaRfAm/9xxG8j2l651X9ATygEz5g166/uTvElfinDTu6kc9joncU814Ko54wzh0qMk1YkO+6Bt8LKXqjTMrVqE07ozjGR8fXLF/hROt488MltTvjI/3C5sn1nLEdWl+aIxyJcKPcG4WMY2kOFqDEd9P1/XcG+gLyFItPedYyml1vcXZqv+3feOuzt/kDaO3c6eTEw15rMBOayAN+0RNS5i/aj34WErVTx4/xC7l1lqn3OEDPMzIVpyefYrLB3DxteYcRlw2jdg/9NyjK6iT5lxzjbrUdE7vWcQ0ysENOYzmfELfG6/Ay2WLJ9KN8c0AOPzeEVyhO74y8rsNo4o/N1snmvJIgd0wvhfoiXrWMvioNX9YdZylVL3DpAZFdA95tWRvUPjp1R/RI98YKadYb8rU0FIxMuB5zpntj6Wd3H8EGviwiGkA/kv1hhxGcz6lP9LfpzDxOKg9l6V9vk5z67mleE9+g8+tMRt3+6Mfxyea80SMrQ3kyLkm14gN+f7r1B7+/v17q7/Oa+PQ9rjs1SG8PX96/bX0EKulN7P/5p79RS5ROUwnjIYNZ1Cv2YzyOaq/hq5tbQ1PG/G3xg05fGdlZ4X4tTZQc8gefKmuxbx68jihk3K1JWbjfn/s45jIPlKA3v+E6OgHeUujCjjVvmym+4nXHvMFPuCCJAaw5SR0TkjE3xGL++YccB52xNX2SXn3Ds5Rr81OPWt4ZnMdqcFsjKfaWekR4OBypiboFcgZH7fbgOOteTZ+GNjPJ4PRMGKa7qenGrQaJ/0lfxD/0g1U5Vk6WMbf9KHmPZDx27vE3WA+jak36IDezvqkeSL/AXguVUc5HdXfSUpas52xdvq+JY+dHK341uxZ1BZyJQ+yRS6Qq/5utJfiusoN/UBURn63YVTx53LrRJNWi41fcS5dMqkP+kQta1kiPmRNl+9JlZ77wZzH0Z4TL8BFUnKQ71HeJeNzX7ty5DEwH83ZEk+WsIDPWTlah9k4T7Q7yS16MpWSvCMfSEnfN/gC91tzafwA5X+eGkZbASs5P9Gk1Rgnf02VOD4R9sihaiQyioGXHvNGiOo2fJC0Njg2zCUxVs+YZKCKL+TFZUV9eWs059H+XAZYcWAJSwVm19ZoHbqchtKLgZ19At+p3Ek9egVyZyyPvsEL5JYc6IKujPxuw6jiz+3W1iIwVk7FYSEfN9XmGPEhWwXgjyjMuU1uje/TnGLhT7pn5ZvwIRcuJfFZ4IDnhrlkjqmvmZxnbNK4Ut+E5YZhidMb+ExzkOwT1CqVacyd38gHcmcsj75Rm23Y6XKujPxuw6jiz/XWiSbdXnDXFZABf6KOLaSjdcYjKj16fB178M1lC4+FfeDlOe3ARXG0x+4ceX7gla+15jM2LZ+z+xbqNYs9tbsplzQ37e/ZnoVdTmrmhF6B1MRiMTbqtQ0bflALAeJxzIjZXozfWHEYGOkbpqfq2IIugYM/smgu4bOFe9f+Keyn4uziacYv5Tw6rPA0g30011P6Vjg9le/JOC1usV+TJ/H2xALWHt2n6WznJh7HYy1FBdk9thd9dwIO/J+oY4sGYICs6aMnchIP5Jq9h70eHqTyOBlLCvOKn5l80WsrcSVsZ7BLxN3hwwqnO3Kz4BP8jkgLuEsY0PuQJb2nrm/lJR7HY22FQzdmNa69tejjcK6zsMJvqZ+wThKPXyuYZ5sBeZTsT+YHfktYbluf5XbWTpI/CxgiH0kG5nzhzK7Iuci6VshXF4XN6Fu5icfxeNGpILvH1qLvBu/A/4ka9tAAHKg3JGzxoITEujcJ/JAp/jTvdH/HN7jf4duaz9lcNeqScjeLPfVj5dsCp1a4yOEAP6OSfMEm59frGuWE3LzmsAv31nrTj1Vl5HcbRhV/12yhYXcmtLXwO4E78X2ihi0qUOMSFjwmIbm/3Brff/+VM84rDPD9obz3g4fOhQcPW1EAxG+QIzFLCQFLjoySzcL6bK6zdgtQv0wtYPgCtbhAOcX4e8yixi3Z4gz2LT1v+7fmtVqHrbw07uZ4HBeqR0U5MU7FOZGLtRia3OJQQxI3JTx4R3H+sAbJ915zbNTkl9HeBUDJRSnlntOdWkNwyF8nnP8pvzNGwMDljJ8Bm5U8V2wHIBZVteMXgS1sUE5PG6hjSUrxcSO3yAlSiqsb/GzjhO7nysjvNowq/q7a2lYUxhLFOBGHhXzM9DSvFA/voZTk0TrDD2Tq7x0ICjn5ZaSzUM0duFehwQ8k83e6D7K1YXh2TWfzrNZnF9jE7yz2xI2pzxtz4gSjb0qS60rOb+UVPEpydYOvbbzQb0Vl5HcbRhV/V21tK0rC0q2HPUnz+OcJXtEjJPEug+QJQ4+v1ebwAfmli42a/DI6v1DNO8W+Aq+3gZzZAAAgAElEQVTiq4phJWbJNsVC3wcG5Tk7VmxnY3K74zXiwTfNtTndkRbqlModsUo+b+SVcgWnpbyfur6Nl8a9nL+1G0ZPKtKJg7it+E8qVCFX6fqhVlwidPomwjokbPBdlf/+vR/br0lOmQek/fQ7Z3Nw7SvfFB//pvnqgL+MH8JydACLRF6dwFdy/KpVZ0xJtRX8kjgkfXnPCX2RSkmORn1557SWL3iu6Txxb0vNG3dz/hepYfSk4pxq1i3Ff1KhCrmu8or6c1kI9fE2zR0h+CjZf6yTA/7nY9P+B3Il+Ro8l9J8Y1rAszGEuus31xNILPCzgn8i5SMmFngdTRSYUznqZ5f+jX0CrsA5vkP+MLCl5vQ7VBn53YZRxd+VW1sKkzAVhyIhROhzpnaoBeQIFLz7cjbAApnT+VirOftQtPUB3j7yRC5cEmx8H0jhA8+BeKdDrOaHup3GjXja8YFDUiKn1dpIYsr54jj5PKervQZ82jh2xEduJGP8MQBe/lYEZvTbUxn53YZRxd+1Wyea9USMawtUSGyE0y0HMMF1IkYS8ugn8vviHY9gLo8iu/+f6QP3s7Su2s/G5XZffcM3nc4t8JqjDrhSmdO1tAa8ljBJYrk9vxmutnDSeOfG47izUlScE+NUnN5c0JS7ZC+OFb0apzyvlRi9tojXq+9JD7kV+VZ8GIPHIjYoOJer+a3ar9JH8bUxrOaQs7eSF3BwmcNrfe3GHgHn3muDPKSleM3jcSxXIvHiZKDhYGS2ti0h5i6ZAz4SK2c/skax+Ehj870Tc8Q/EetUDOSUcn0qfm8c4OzV96a3yr8FfixgkK47clqtzwwuHhvzGT+WbDR4PJn/LXWS5Ey85vE4liuPeHEK0HbEwWGryQIcteUaVuz1gIMulz12u3SAY5f/03695UN4bx2ruVmppRUckn1yMifE4lIyF21flNfNA3W7OcfR3MQ5icfxaAnq+icO5UwTwKYl69n52m3lyvetZQZs1nCN4vGYB2G+dUjkZqWmVnBI9srOnOCbS0nslnxRjjcP5Ad5c64juYnyEY/jEerbulQc0QIVQtZiAENOFtw9ehk8WSLBIqZRfrzmQLhvHRK5WaqrRD7Wai3JL3yl0lrO0nhu7IuUI9Q0XX/yt2jd43Es30qiBSrAyx0MrJ2IX4DldtkaZ8AD6Y1Ywu0Ze41vujPxp6ZncU+iJtZqK5GTtVqt5IT6pNJajjvxIPedMbR9r/SINvZd8UU5GXkc//fff/+jP69fhl3ZXeJXtEgFThCDJP4UVGO5wQC4bKgd3fZaU6+4UdxaL+BRzCXsrEvJukj6WuXNEpbVXGA/mhP0Uwl/T5Pg4fa8n5Jnbx1F+Wg9jvEgfj2KgbBhBLUnS9EiFYhEDJIxCgx0vmIscoj6FjKztcx4tsjlCFk13lma2//2GLFGsNd0JetS46iGYdeeZG67MI74Bb+1vLgOn4/EuVm3xt1NeT8lz96aifFBF3Bl5HcbRhV/j9oSK1KGNfKNP5ntWCIG8LrgssCMVS6t4vqgkfOL+YeCr48q5//+fbTVrv8WDTRCSjBIeUmOKk+SgTp8WcLSAbdLBTnxuvE1Pu9y+DAlztvNqT8lz94aivFBl29l5HcbRhV/j9sSK9Qvc+Qv9Zl+P47kUsJ4WXBZ0v3fz/9CWmVbZStXbxUgtaCcX8xr+sb3qpwjPy435MPd01xiSN8TVZ4kAA/6kM5vMPwWdXCck1sCXuQUnF2UUjaVp+SZTT6zSHyIjMbFm7+WG0YiwC5xItW4NT+1vUtonE+DvzIaXsQOVSPO6Lbl+r6xDfA8mv9p/XdOpcCHckWYEoyR9WZOI85+dXf4nIDxYUKYbhjgNpU35HYyh1v6ocYZeqSm86Q9MT7oAq6M/G7DqOLvkVsrBxSFbvnI7Uv+uF5XOJDDejnHoYW80QMWsHAMwDXKW4Z67lZ9jrzUgQgC2JXTLr8rqVvE1JMPcKeSbLHW4yd0/hgg3p4woj8+qyxSd/Y2+PT+8xWP4xwrE2ujxUKzj9hxXf4AadR4IhvnJik5vwSBc2vZWcQFTLznengrUN9jekwHuR0LeCDQaJ16IVnlyiqulFfg5DLVwTfpxBhjALyOWfnTfkqevZUROSuNh1M8jnur0aHXW7DZRud26SOkA95zVFJy2CHordFpsnhtt8YGN5UgwDLDFdxzWQmltjWTmxrYjsC78kEvdEA4rmIVG3Bx2UMO9Ht0Q+ePAeLtCeMpefbUUoQL9i7IxYzHcY6VybXW5dba7wkLH/zx0ahxj9u7dFJyGEEih2oDW6jrBtd/LlNe/nbes1UcaQhG/TuGhYnVPpjlZmc+qz0xm1Ov3c7cRzCAJ8heW663Ysv9PGluof4n+I7e+GNZhIvGj1M8jv/4FpnlDqpIIRk6+MNDhG3FFAyAnOQA5OoDE22Jum7DwTlJeKGYiL/KEQ/TygW6Lb2e/RFfqzn24DmpszMf9MXJfEZj7cy/hAW8cFnSHVnXyGUEnzVd8G8NlzQe5Bn98cPsMg+Z30Bes3gcczaE5ijazmaGbyHIj3Fjmbft2PB6hGRVR2ySpwZgQK7EhQ/Ilq+TebawSOzvzAe9IYFzp4+dHAA3uEgl9iUkfEv4eoqPE7W3wOVT8uzhepkL+rGojPxuw6jiL7YE/wauRWZcoi2G8vvLhyrvVmR1e03T1+Pv9/a4GXYABTKj0r0EH5AtQ8s90MKe29+dj0Z/5PKsre3gAHmnsoZDYg/xJHw9wcdT+HpKnj09u8wF/VhURn63YVTx9/gtFIzkiXEqzolcTsWwzBn65wgXeElCHgn6FwRhIf92xmfwAdnyYLkHWthz+7v7Zrf/XE4za6N1RV49cgbPis1oLiuxvNuift7z6MEfffHD0nLN6ceiMvK7DaOKv8du5Qp1qolPxbmluJb5yvXRNt7xkoTcFujTMcJx+f7fbP5UHfqCvx4jyz3Qgz/V2d034Asyja/xjZx3SY2c0piW+E6xWft+CldPybPVXzj3Lb3iPv1gVEZ+t2FU8fe4rVqBTjbxyVjei1yrmYXcTuB79Qtek5AHkkcoLt8PYywewHHjedmd086+hO/T8kCrLYUAH0tOHmL8FK6ekmdP2xIX04N+byojv9swqvh7xBaas6cwPTpSpJ2MJYVZy49lrgjbTnwf/g8+SKnWCMfl1+KBptjJ7wH42RC7c/rom+T/twJ7p2SWgN/F3TzUYu/Yuy2fHRyRT/TeLv+W/EZP/FRjqeaNd248jjs7HkWA7DQ7fmDj0PRVxjpPo33Wl7X+Dwh/FGMej+Pe6tX1JHsa/Sch66jld4FZ3rOOx9vy2ckicfWE8ZQ8W7VcOhvxOG7RW98H+SvNuGJbR5ffPR0vj8L2qnWOCJ80xh0+Z6qMR/HH3YTFGYcTNla4mIBeNBnNCfq9kgJDtwjCyIYXnL103ZZPb96jek/hifKMsXgfffwAfbMZf3P8zclrRfqQoZlPvQEQr5De45el6ytNqDQ+aX/S+Z72dyMfpZyw3itbtSA/HoYXnL1c3pZPb94jeujxERuPuk/Js6c20+ciHsc99P7ooOGmya6EIp94GENW1EW2duQhAsyIE+v8ED4JjFJ+jJRNBMZtnCCfXrlCImKs+DhlS1hvGZ541+L8SRzd1Nsr/TJd83gc99E+TXCf+5cWHsWQA6bTqnGAytRZ52a1J2F/PE80eOPyKVdm/w642R9JLgIw90q5yJ+eEP9z1eaXJ6w9DFI+McoM3FbvcqY//0hBbf8pe9M1b/w+Pf4fqwCxJy4dioF3w6nGRX6n4nmKc6Lmq3zM1g92x3NEg3O5SsIGe/CzwfWSS+AakUsBJ42P99UkTjIDlwsuzJjelMsOUp/Ej6czuKPW3OcUF/E45hR+zjUO0lQRP2EPf2nkOQxSwcADLzMYYUPy+OCPYsyPg2gHBEdtTXkNxB6V8kjmPQL7vIezlt7w1tihXGLkGbipzvkM/1aflOtf1vnZFBfxOP4mc4rIbzdTK1qxKW6Mbwas84J+6cU5qv/NiMAKHsWNy0cg0pKLXk6XgrC/uURtyB/mqVyNdcoeuE/Fk4hDmG8YHrk/yfstdW5xFn3wx9AUF43fp0f9YxUgUPvwaMXXivvXwvZmHjghjD04e/XsVUEHUQ+nEshQFy4l/Gr7OMWfZJ4eMefyRy/l9p6+dkuNe+r4pFxrfEydh3gc/1A6RV6tGot7Wk2tFXeRrm3mHvhA79awQmcbURc6rvF5YbriKXntuRvq7pV78SbMOLyhvpm0skvRB3+0DNf96Y9jq82jhUsr7l8L25p54aOGs7Zni21baIi3GPMMeO67G2p/Qw7z3Ve2fBovT8u3VHniYYiLpz6OQdQQWSXWN61rYdOKu4nGZbce+CCM+MMTzq3x/ZiXGfBQ9zJ6Gzte+88rbl716F/Oxt88ePnj4kmz4TP9tMcxCPJwQIBVo4E98HOKl6Nc0IHEn8EE035JvwfdPV79aN0vZdtzD3rGfmk7LacVNV2m0LWDoTv9SY9jjwdjqJiCbeuRK8H0P1wdqwEexVx+IKl/oGZc1i1it8bAsbrXQFyw55lHz9gvaB3xFHA3ijsOhy4YGKr/0x7HLiqYgPy4oCcfTonLrs+PuF0Wdyod44HXFvMapYkODj5kzTT22gwcq3sbimsN7/0YfeC6/T7Ae+/Fj2TiY5iBofrT72tl5HcbRhV/alueL7h3QfEY4nIzo555k6TmCA+8rpiXksA+5K/eu1dKdrHezUBw2U1VVdE7j97xV4vzsM2o5cMKnkm3uwfot7Uy8rsNo4o/la1uMlTQ9QWlHN7/LCoeRAfq8IrbB/FqrWM89NaW6/3792oN9HkLKze9umgCybW4FAjxCBfeefSO/xFN1plk1LKTqEvVqP5dPdB4X7l/HHcT4aER+KsG8wO4uxrpAA7NEOY4QP1/JT6Jo1rPQ49LTV6txzZXd+uEFfDVerJgYmrZO35TZCqDiTOtXAAD4bt6gH4kKyO/2zCq+Du6dduF9iqowqvmNh5nmrDrMM04XrH57YVcS5Twcl3MVyDcbhu9L1PhG3gsnSkZhsLLKQaijqeYthun6z6iH8jKyO82jCr+jm11JX8MjVwgrYOtFVeOuXVPFjnAAxeSZ5nDCz0uuc0j5yCjkHyOx4JqLFcYuIHHG3KolOgRW1HDR5S5mWSzD+h3oTLyuw2jir/tW5Qw/mwPphBAKzetuAoUF0MSB5YGalJ622H/A/PvP5/8tjF8lj9w7/oAEZCZOFkeM3qxVGfgBh5vyKFepft3qYYxgoHmWW78Nrp4HCNJyNvLrnW4teJaqael/Ht7/QszHoFcWiFYAwfnoXIZfvGogdV5zN6etZ5m9IL1CtXxRf3q/Dxpt9oLld8D4sjs4xgXLeSTCkq5Vou6iYyncg06NThHbC5H6/CFmz8IueOnzsFHJf9RziuuHr311YtO2bglD6f0L8GO2i3Rd5Vx9V739DhGIlxeVamBZMDBgImIKsV96tDinPM9g2HGhseM+Q8DT+59qR64pRejF6Q64ryfqN15zq1GrN5HHh7HSADSKtGncWkc8qfXQINz9NUK9yu2iP90qVn7W7i/qQ+jH3x2ZdTNZ912oS7eSVYfxwAMuYsYz361uKG4Tx1auUvUWgv7Lb0iUYNbuFjJ4xYeb8ljpZbebKNm3iq2H2+xJyw9jgEScj8t/iMQVxpDK65GrjymRt5S50HKD+fjaXON+t/G8U19eFMut/VZLp+oV46VWMve69qPYzQrZJRpnIFsYcfdDFloxBwCuEn5dJ9K83wa/6YyvN3S/YU/78WNE+l6bIRq2vVNPN6Ui+mmEQB32/0nQEm4KP2vymo8jtGgkFGdNQa0eKS4Txyn8t4VR6tfpHsFj2IupWOk/m7hLs3r9HfweJrxiEcMRN9FH5QYoN74GLsfx2jGVH6AiI9lBsDvsqMBB1/NNGDrWfVE3iMx8Dgc4ZT3C+wbd8GI+yO6HDfmJwKP1OYEHo8xeP95xH8L5qfV4Wn53tKnJ/L46o3GD+LUv+cYQSBPJBYx9P7dx0/jnvp65xjxj0ch5AguigM7Lkd8aOtq4B6pjzY/luMHjzaqQ3V4Si2elKuN7vKD4qs36MelMvK7FaOnHLIKZ6pbp/k/HU+V3N/gX4dIENQon/xxWDmWRYSp/YyPovPSBg9a0jG8vrP+htMWhxY8ilM65fBJdXhSrlPN8HAj6o/3aPwYDj2OPxy/I8TkJAMah/+JdZfOebZu/J3ZOMvZNkztZ3xkHZcWjwcsAVlbl67/Ghqf1rM97zNb26ifUoun5Gm72+yi++iPxo9h9+OYnMawwcBHgQ9AOh3vQErNEJL9vsof3ptN0AUF2DfugoL14DIPhvmgi2PqwJchZrVmx3IwHkjyHBlP1TS8p/Rz9JvpNjQB7t0jmXufA+x6HL+dccuYqzJwuian46mS+/v/9SyBgXizwN0xHPzBibkEkdI+gI3LJIaFuiWQzH2ir1rSHPAHAkKNbk49zuzN1ZXJ7X0O6O6vjPwuM4pmq7CnvHWyNu+GUs75VHiJfCV8UL54v63mLoWniQOA2T3StDmpwPHxeYKB+IpRZwA91ZJ1L7F7ggHU6EQsrRhxZrWY9xX31SeN36fq4zgazX7BT9boZCwLzK/kS7Yr9sifv90aZxkmVSmBqRrA+mZKKP9OsEvVMHH7uM/H95yhit/e09FrhprNMJSec1B8HEeTGa5sAu1UrXoaKoHm+nOWV0me+NtN6nE8m5fJYjKCMK3ihFIqC0ZXcVXIcfey5HnYjfV2/+hnyNvyvTWv2+qknU/PnZR9HEeDaZduPP6pmp2KM86AvMVMrmQzY1dC3/mGK5ln16UxZoOcWGTksOnrH0Mphu9W/PEgWcsipss3rum3S+p0cz3ivF7SpAfSaJ2Dr8fxq7noBySGOwZOXAythnJHmiDgXdzgPScIVfQBL4lryBeI+ffv/c9lY6nqp0vpx8OumlbxXbh54m66kLYtKaEWkFuCKDiNs6pAuuOQrX75eAW/Dwv9eMRwyUCr4BJJvftEwtklPpZ4Tx53Jyj5wosHo6ezzzCzaf1vjifIjX6fIC0x+eq3ZD8+zzJwYz1uzOlsVzws2r9/r78kKt3v71fwh4KnH8iH1bMn3d2XxG7/PTla0lniI3kY45F3Ir83bgTl8gQAiRgMM6YSbrkP4inGOgPB4zqHUh7eZ1/KoQE/0V8GiuAJQs/j+Kup6FcmhmsGdl9+Xz3jmq158Ms81x7Hu157LN1XHRGHS6bz9Gn0ukwHLJ8VGRjh5ZeB2+oR5zRae4iB33duqW/+ZTd+jYYChbI5BnZfftneMcfCPkBi/CYP5Bdi/lDdfB5fdeTx9lHm0rNYnV1mLwc6eJTjMjx9M/C6x76XYyUYyDPw+7taupfyf0W8+cc4jzRWdzBQKrxErJ2+JfDt9LE9d/5Y3Xwet+eysxCHfBNHMdYZCB7XOZT0cFM9bspFssbhq8BAPI4LxDxomS6NXRfHLr+Wy7OTz4+88UD+WNzz8cQ6jjAZ/IywVdY9dnbKEGKHMXBTPeKMssLGtM0A+0un3DmIvzluU3iFRq74Uok96VLayaNUPap+Kg/uJ9WxylFmM7jJkDKx5P78TORs2eSmesQZtdxpBrHF49hgURQh7bhAbrpga6VxnycexpBJsu7zS/KR/Axu5NgkLmPYYOCmvo6+stFTblCwxzFhTs9C/M2xm0rKAE0bQMbrT2NJ+bLo54qLF49iyAzRu/ojE8rd0hU9YID16DEDRWAQbqlHnE9W1Ji2GYjHcZujp2nsugxvvZyuyqvyMMY5uCpfJCUggxcBEjN/QyPjNbzMMkB9fUNv35DDbA3DboKB5HFMHngPxd8cT3B6gwlvAql8yOcOv1L4Zvzclk8PBzfW8SPvjv+A8KH/+/HEXsjxILF2fY9JkHTIxy21iPN5qGFuCVN4HKOP4nF8S6En8kATTJgWTXb4LAbbuEF53JLLDE3X5o+HMeQAOU/uhwGaulSv7a+u7G0p3VKLOJ+2+so8mngcmy+RGsBdl6L3S2oXL2qFngzsvY7ZtPEohswq5Rev5COf6pHV4PMIzc0gt9x30U/NUocCZyDzOKZtnIf4m2NO1gPnOy4UNJdHOj1jl+b7Wi4mHsbE7bV8SDdOpz/iM4YNBm7o7RtysNEND0ERj+OHFHoyzR0XyuTbYzIDObMdXMih0/EUnPzxHlz8cSExCz4lWJTxcUMtbshBpprhpYuBwuOYbKmX4m+Ou1i8W4kaQWrgYQwp5Xe3n7hYywxL9kc5iv2d6BH5GkVvyXM64/GW3o5+mqn+Q23icfzQwg+kLXkx4lEM6eGyksx/gHZbqihY5sIIfn5KFTzIt2xwKs/pjMdb6kB5xAgGuhjI/NbBjvoo/uYYbDxcSl0q/I1Fcym/u8pD+Kxj3JX7229atOTSCI5+mAoe3h0jNglOxahccnRLHSiPGMFAFwPJ71xqE4/jlJEHfP/79+9/9IcPyUsFby34l/QNn6sSPwYWsa3mNmyPgnGZOAFfyfKjPoODPeWOM7iH11GvN/R39NJo1R+sn7yBUiY+X0jYbRhBLaQfBvAg5o9iPqdMdl0sli5djmVXvn664hcpfxRjniTBeUu2HvUZPSNf7ugteU5nPN5QhzifM5V/qE3jnRuP4wf0BR7GaaqnHscU18KlxTHwecrLI7/xKK5cGMGZjT6+rT+pr6K39Kt6Qx2ij/T7yA2Cym8d5RCPYzeVXAOq/UDWvnj5pcnna6w+y1q7hhbYjt7ZU4XorT28jni9oQZxPkcq/nDdeBw/vAFY+unfFNMW1vB4xjczE5tqXb78wuRzscQe4kirfpbojf7ZU43orT28jni9oQY35DBSs9BdYCAexwvkXWaaPnz5gxh7kpcLfKXyJK0UmwYwnIx9YyzweWNurZyih1oMre0/ubfWmJOz9t7j3vHLVTI8NRmIx3GTokcp5B7EeBiDiJUfKVxO8MG/+Rpi7ZSn4+3MxYpv1NMKnpM4npz7CZ6D3xMs12PcUAPKIUYw0GQgHsdNih6jwB/GPOnVxzEu1JzkcTCHHr53yVNxduG36PfJnD459xO9GPyeYLke44YaUA4xgoEmA/E4blJ0tUL6IMZ3mvToAxmXaCpTv6Xv3RcYcJXix/o8A7trN49sr+VT897L6qf34PiTj9NfN9yb0UOnu8ZpvHgcOy2cAOzehzCF6nkc4+JM5SzUXZcY8M3iCrs6A+75pUuxcTHmGNjVr7lYT11z31sXFM57n3vHf0EL+Uih8RsQ/yo3H2UURZl7NOfW8EOVSkkwOy6yHT4lc/buC/3gMg88jCEHkoi+GiBrUtV1b03mbM3Me597x2+tH67FE4/ja0u7lBj+phiPYnzjxymVS8EqxohTURnaiotxiK5pZbc841EM2cmAdJ92hn2kmtveuqRa3vn3jv+SNrKfRjyO7ddIAyF/FOOHH5L2MD9x0UjFkPKjUQ9vMdEf3nC/8A4+jMkmeutcpV331jmatkXy3uve8W8rbDj+ZCAex598xNcPA/gBIonHMLjB3yLT96mLZjXOqj1yD9nHAPH9JM6flGtfB+zTelpv7WNyzrN3/r3jn6taWA0zEI/jYcquNsDFAUnJ8scw5pCkd2JwPCPxZu1GYoRunoFTvZGPfnb1SbmeZTYfLfjO83Jq1Tv/3vGfqvOj48Tj+NHlfyVPFwX/Q4v0+MUDGN85SWunLprROMiJMMY4z8AO/if+iYftie/Iczto5wGCc90CEv+eh3f8nrl3gz0ex25KJQ4UPzCliwIPZEgCkHswl+zFAQ88xJHbDgzhs48B6RrgYQzZh2K/1sn+35+NnwjBu16tvHPvHb9e5R8UOR7HDyr27+OSLgb8KWWPB3GvPHXZtHBTPj06pbxjXZYByb7AoxhSFum8N8kc51E8zzJ416u5d+4Jv/cc9Kr/kMjxOH5GoXEZQJay5o9h0sn9TXFu7eRFU4vVyq+Ud6zvYUCyHngUQ+5BPOZVMr+xyKEd3Ov1wA3cUw4xgoEiA/E4LlJzzQYustZlgIcxJZ57ANfWEOMUablcTmM4lavnONI1sfQwprrk+tBzvbxhD/51KiZ9rjWyiN7RYN1RzHgcOyrWIFRcYCOXQO0BTOGxn0raG4kzmMqXehor/f4yiAU1Bm6uzc25qTXMQODgf4CsRVXiOv2z6FLVPHpHlX77weNxbL9Gowj5BTZqS/q5h2+6Rt/p2unLBvEgZ3INm/0MoB/3RzofIXrvPOc84s29xfM8PQevqeQ4vPc+cuM5xTwYeDMQj+M3Fe4nOOyrl1b66CVico/hnN5q7JEiIN8Rm9A9z8Ctdbo1r/Mdshbx5J2zhtSuNXo5lTXE0K3pWN+L3rFeIUV88ThWJF8wtORFhUcvwcO89jjmaZy6bJDvqXg8x5iPM3BjnW7Mabyy+hZRh7kaEG/pnxFPsB2xsaYbvWOtIobwxOPYUDEmoOCCkj7keAxDEjT+UC5BBZ7SvsQ6jyGdtwS+8PHNAK/Z967Pleg9G3W7sbd2MQuuIFfjeD8D3vGv1i/sKwzE47hCjvEtqQsuTRMPYjyGsc+/+Rz7kLsunFy+uTXgCGmHgRvrtKvP7VTND5KoRb1WOH/SPEn7q2chvwte5D2HR/cMxOPYXwlxoE9fTLUHMe3hjzQu5FuqlHS8rzh0SBoH5csmFr4Y2F6nr4j7Flo9uS9yeM4xEPX4ZgWc7Dx3iPEd3c/KTn78sBBIvxho/Ob/+zKghYZR1iYWRRiwdhnhQYzk8ICWunB6/fTqAWe3xMMYstswFFMGrPVuim/ke1u/jYAI3Q8GoiZ//+ugJ8+ad9694/84BPEhx0DjnRuPYzmqlz2dvPBqYEsPYrKRehyP5jqqX8vvYw+PYsiPzfgYYWBbjUZACOlSLjFsMfDkmuBsaXQ/uEcAAA/qSURBVHCgEVOy87zjl+QifDEG4nHMyDA61bz4OCXpo5j20jX+PXPpIFcet3c+E6/LdzyMu2jqUdpWo57ggjq35CFIibqrlbtDHfwEAOQLOeFCxEQ7/moS3vGv5h/2BQbicVwgxsiyhYPLH7ygBWs5CR3C3jsk8pTw0Ys39OYYuKVGI709x1RYzTDwhLrgDFnK1RKW6JsZBsLmi4F4HH9RYmYBl6A2IHoAY/DHcLqGb8he/JIXq6Qv5BFSjoHenpCLuMdT9NkeXle93loXnBur+VnF1dtP3vH35hl6Awywd0/O6u9VxHcbRlw15nMM4DKcs5a3wqMYntNvWscal7VLZ0eOO3wi55AyDNR6QibCfi835LCfpfMRbjr/yAXyPJv9ET1grGXjHX8tt9ibZKDxzo3H8SSvK2YWDyoevDyv0hrp0B4NyiUdu/PLxUwxxLceA7vrfyKz6LETLM/F8FwbnA3IOQZ0rDzzTox5x69T9YujxuPYVnEtX4p48BJjmPMHMtb4Ps35pcPnO5k/FWdnDrf6ttzjvZxHf/UydV7PY21wJjxiR4WRA769Sc/ce+PaBd54HNspk4fLBY9hSGIPc/44xjpJ5HXy8jkZy04H+UGCnvCD+BNp9NcnH5a+vPQWcEJa4nAWi+dz4Rn7bL3CrsJAPI4r5Bzcsn5B4gHMKeGPYexDkh7NkZfGxaMRk/MzMqdziD8jdl510Ree8XvF/gTcVs8++h7ytlp4zssz9tv6yEQ+8TjWL4OXQ8kfw2ANa5B8na9RjqeHRsyZHPEo5nLGjzcbL/XJ8eoZey6f29Ys1Yew8D+3cZ3mY4n7FFvtGzWq6cTegxiIx7Fusb0dSP7gJebwDVnKp7S+m32Ka33wRzHm1jFL4NPqCSnsEn7Cxz4GtM8++lsbxz6G856Rd37X9urTamW7Gsro4nGsVwCPlwgewWCNvvGndbG09uFTUnrgGA9iLiU5sOrLQ21K3HnGXsrptnXN+0YjtqX6ec3fK25Ltb8GSzyOdUpJh9DjQcRDGBI50HdrQLelJ72vFXckj6c9jMGNh9oAayo9Y09zufGb6nOqRoh1Kp71eoEP6zhTfF5xp3nEtwADjTdN/sXTMBKAdbULrweQcKeP4tFCkY/Twyvfp3nSiOe5Nhq9rFEjzzF31wj9uzuOxxp45cQrbo89Yhpz450bj2Ph6uEyFXYr7g44U7kaSOvi0Yq7ytft9ugvj3l6xu6R7xnMu2oEvyRj5Bnwyo1X3PkqxOo0A/E4nqZu2BAX6rDhAQNg43JHWPjf4bvmUytuDVPs/TBAtfE6PGP3yvkI7h3nfofPkZw86Xo8H1FfTx22EWs8jjeSy1xbPHDABMngbp1SPI2hFVcjV08xT/efJDfRU5JsyvuS7C1JX/KZ2vTo9Xx4xW2zC5yiisfx/sJZulSBBXJ/9t8RtGJrxf1mIFY4A57r4hk7r8HN89UawZ5kjHEGPPLmEfN4ZcKiykA8jqv0LG/iYl12tOgAOKwcei0cWnEXy3e9ude6EG6v2K9vqt8EV2q0YvsUflt5ej0fXnG36hH7nQzE47iTqAk17YsV8S0ecmCboHXZxCIfy0k5d6DZD6vURT+tMrjXfqa3Zmz2ZuHbu8czEj3gu+eW0cfjeJnCrAOtg4W4kFlwRhYJo8bQiquRq5eYHvq1xGX0U4kZO+u9/QW9qKls7bzy6RW3bPUe6i0ex/KFxwUr77nsETE9HWZNrJqxy1V89g562BsLXnF743kFb0+NenRWMDzZ1jO3hD3GAxmIx7Fs0U9eAojl+fBqYdeKK9ttd3lDP3vMKvrJdtVqvVXbs52VL3Sez4hn7L66xBDaeBzLFePEJYsYtxxWzTw0Y8t13V2evNbEK+67uqeeDdWI1wnffK3uIXZXGADfKz40bb3j1+TOZex4HMuUbefBgW+Stw3kppHXjXxq8CgZU7MfVvLwinslZ2+2qBGX3nLwjpe49zzQO55zCOydDMTjuJOoitqOAwOfkJXw7rcoR62hGVsrZ8txPfd79JLlzvrf62+NPfeXbXb70N3Cf5z1vnq71orH8Vr5cEgg17w98wLXvDCl6rZa97D/Y8BrTbzi/mP+7pnmPXM3s2PZ3XJOop/G6u5OOx7HayWTOCDwcculMcOoZu6asWe4ut0G58Fbnl5xe+N5BW/UaIU9GdubanBTLjLVvchL63GM4ufkRTRMpQJOZoxhSzLGz9+Ya/EQNdBiPh8XZyO/a3s1esl+faJG+jW6rQae7yz9bjCKYOVxjIYoSaMpi8BCziPOYAM5YvsEXeJFa2jG1srZclyvZyT6yHJX/f1ja7ZR3o/O6/muVebGnGr5Xr/XehxnCWgYoUlqMuvXySLy6oULfZIxygxo8oMaldHFzkkGvNbDK+6TtdWMFfXRZP8zNtXixhE9dklVG+/cf9k0G0ZZm99FNI53WcuR9nh+Ld3Y/2EAnGnxQfFj2GHAaz284rZT+b1Ioj57+e31TnW4tRY359ZbX/d6jXeu+OO4hzA0Vip7bKV00tgz31JYnuSHeNYaqLFW/Ij7yYDXemj28CeD8ZVjwGtf5XLxvnbzWYk+c96dFh/HFinNNTrWIC3i9oiJ+NQamrG1crYa1+u58orbah9I44r6SDM67+8JtaAcYzhkIB7H7aI94QC3WTinocm3ZuxzDPuJ5PWHxStuP50xjzTO+Dx3OyyfcFaekOOO3lD1GY/jOv1xkdb52bWreZloxt7Fp1e/Xs9f9JDdjvPaU3YZXUP2lHrEnbDWJ8et43Fcpvwph7bMgN6ONvdxkenVnkfW7gOOZWTuFfdIjp5143zbqt5T6vGUPG111ySaeBzniYsftzwvJ1c1LxLN2Cc59hDL41n0iNlDL0hhjPMtxaSMnyedl+g9mZ7Z7iUex98UP+mgfmdvZ0W7DnGJ2egF7T6YZSH6Z5a5/XZRm/0cj0Z4Sk283mej9XSvH4/jzxJG437yof2leWFqxtbm3Vp8j7XwiNla3XfhodpEfXaxO+f3STWJ3pvrkaNW8Tj+o/tJh/Mva/szzYtEM7b9ypxD6PFsesR8rqK6kaI2uvznoj+pJk/KNVdrF2vxOP4pUzSr3Xal2mgNzdhaOVuM6/V8Rv9Y7KYfTFEbe7Xxes5nmIz+m2HtoE08jv/+p54P0h6hBhnQvEg0Yw/SdLW6xzp4xHx1E7HkojaMDCNTqslT6vKUPI201jiMpz+On3QYx7vDjoVmneISs9EHmj0wy0D0zixz++2iNvs5nong8ZxHnjMMGLd58uP4KYfQeAt2w9P8MdOM3U3Q5Yoez6tHzJe30Tu9ONNvKkxNnnRmogdNtd4nmKc+jp90AD8r7vdLs2aasf1WTB65xzoQ5hj2GPDYS/ZY3IPoKWfmKXnu6ZLNXp/4OI5LcXNTbXSveZloxt5IqSvXHs9u9I3NFvPYSzaZlEf1lNrE3SDfO2Ien/Y4fsqhE2sQY44066cZ21gZVOF4+0Hxhle1uIeDR20OEz4Q7gm1oRyfkOdA2e2oPulxHI1op+9WkGheJpqxVzi7ydbbOfaG96ZeaeUS57nFkN7+U85N9KBej1UjP+Vx/JSDVi32JZual0n0kX4TeayBZs/qV8wugqiL3doQsifU5wk52u6yAronPI6p+aIBCw3gcFm7ntFL+k3jrQbe8OpX+AyCqMsZnmejUH1ur9Ht+c3WXt3u9sfxEw6XehMpANC+ULTjK1BuKqS3cx39Yqp93mC89dEb+IMmt5+d2/Nz26o3P47j4nPblk3g2heKdvwmQZcreDvb3vBe3j4f6cVZ/qDD3MftZ+f2/Mw1VC+gWx/H0XC9HeBTz0J9CUMMPQYs9MBI9tEvI2yd0426nON6NtLtNbo9v9m6q9rd+DhGo0GqEhzBtzGgXV/t+NuIdeKY+PdUA09YnbSACMyoiwiNW514O+ujZEQPjjJ2QP+2xzGaDPIAhRFCiQELF2b0mVLxf/8/2T3x7wmrXlXPR466nOd8JuLNdbo5t5lam7C57XFMpEajmWitIyC0a60d/wjJxoIQ5+Cdz43B/IIDzF8bsaDKgKceUiVKOfjNdYq7Qbm5cuFvfBzn8oy1OxmwcKlYwHBndb+zSrmm73Tt28rGihecNtg6h8JTD51jxWakW8/QrXnZ7KJOVPE47iQq1EwyYOGHLS62va2BGpd4Lq3vRTXu3QvO8cx8W6C/fGfxDPS31iruBoP9G49jg0UJSEMMWLhYLGAYIs2Bcu8PYa+edsrRI9oVKMeP2pS5sbZzY6283GHWemErnngcb6U3nB9gwMJlGZfbfKHBXSp7PcKuV19Lj3DGsMlA1MZmXXKovJz3HPbS2o05lXJ1sx6PYzelCqAFBqxcLPED+1kg1KUlP63mvhBjzvqMVfTHGZ5nonjon5m8brW58SzdmJPr/ovHsevyBfhfBixcLE//gUX+kCebUyPmaH6EMYZNBjz0j03mdFDdeJZuzEmnO4SixuNYiMhwo8qAlR+3p11w4N1C3hYw1A6BdXw17LfvoY9vz/Om/G47T7fl477X4nHsvoSRwC8DFi6XJ/zIIkcLfPPmBy6+ZmlujS9L3Ghjsd472vxYjH/bebotH4s9M4QpHsdDdIWyYQasXC5WcEiWinLCH0m/kr4s47uxJyRrZ8FX1MhCFcYw3FSzm3IZq6JR7XgcGy1MwBpmgC4XCxeMFRzDBGYMvOViof4ZGk30ZQ5XrP0x4K3X/5A/d2b1vM9U5KZcZvI3ZzP9OCbD+BMcGOuB1wVjAJMVHDNnlLDjz4y9po1V3J77QbOeJ2Nb7Z2THHiMdcvZuiUPjz1UxFx5sf+r7MVWMPBi4L///jPDxOuCMYDm/UNrAEsPBOC1wl8P5pKOxRwsYirx99R1nIGn5u81b6ob/QZZ+h2a4TL6b4Y1PZt4HOtx7yaytUvJykPECo5aI914IVvMyUMv1PrkCXsW++YJvI/kiEcwl2R/w/mK/hvpBH3deBzr18A0AlxSlkBauigtYUGNcAlbxAaMKxL5rfiQtr2Va2meNP1Z7BtNPizExu8LZAnTLefrljxKdbppPR7HN1VTMJfWZSUYatiVpR85K5cdOLGCZ7iogwbW8rSGZ5DOx6hHneyVuue3hup2Q+1uyMFeB+1BFI/jPby69kqXlfVh6ZLRxEKxNeNr9Ym1vJ9YA63ar8S11jcrudxm2/rdueGM3ZDDbX1XyicexyVmHrzeuqQsUGPpkjmNheLhj4VaaGCwlv/pHtDg/IaY1vrmBk5Hc8DfFOdkzdcNtYt7olZhW3vxOLZVDzNorD+QrV2UJy49azlrN6slPk7UX5vvG+Jb6pkb+BzJAY/hEZtU1/s5844/rcfN3/E4vrm6i7l5eCAvpihmvuvSw4/5Lv9iBCg4AjcKob9CRn2+KDG7ELU6Xxqp3xJLZ36Gxei9GdZ0bP4fOZhNxC0h8wAAAAAASUVORK5CYII=;" vertex="1" parent="wv0-XXs7hmUBtiv9ncpi-7">
          <mxGeometry y="-150" width="711" height="725" as="geometry" />
        </mxCell>
        <mxCell id="RUXYSGpX76x2whFEvcpd-14" value="" style="group" parent="wv0-XXs7hmUBtiv9ncpi-7" vertex="1" connectable="0">
          <mxGeometry x="451" y="510" width="260" height="47" as="geometry" />
        </mxCell>
        <mxCell id="RUXYSGpX76x2whFEvcpd-11" value="" style="shape=image;verticalLabelPosition=bottom;labelBackgroundColor=default;verticalAlign=top;aspect=fixed;imageAspect=0;image=data:image/png,iVBORw0KGgoAAAANSUhEUgAAAMcAAAARCAYAAABpYrj0AAABuUlEQVRoBe3aIbBxURTF8e261z1eEUVRE0VRE0VNFEVNFEVNFDVRFDVRFDXx/8a567WvfH0xvxmjuWPPOXvvFfjlJ+An8M8nEN9vIyASRE/6EAMZQoxkDDGRKcRM5hALWUKsZA2xkS3ETvYQBzlCnOQMcZErxA3iLg+Ip7wg3vKB749ofAje8iJ4yoPgLjeCq1wIznIiOMqBYC87gq1sCNayIlgSLGROMJMpwUTGBCMZEgykT9CTROj9/dSjlfVpMZAhBSMZUzCRKW1mMqfNgjJbUrKiZE2VbajYyo6KPZ3sQIejnKg5y4WaKym7kbjLg8STbvaiy1s+/MCfzw+8u41XF57ySHCXW4JrgkvdONdwkmMHDrLvwK5qbCvYyLqCVdlYlrCQeRtmMm3DpGiMCxjJsIBBq9FvQU/StxBE/ykXRy4QF4eLw8Xhk8Mnh08OX6t8rfK1yj1H7jvcc5TgnsMNuRtyN+SeVnla5WlVHud6lItHuTV4lOs9h/cc3nM0i0AvAQm8BPQS0Btyb8i9IXd8xPGRJkLi+IizVc5WOVvl4KGDhw4eOpXrVK5TuU7lOrLuyPr/RdZ/AV15V1PgtFpXAAAAAElFTkSuQmCC;" parent="RUXYSGpX76x2whFEvcpd-14" vertex="1">
          <mxGeometry x="30" width="199" height="17" as="geometry" />
        </mxCell>
        <mxCell id="RUXYSGpX76x2whFEvcpd-12" value="&lt;font style=&quot;font-size: 20px;&quot;&gt;&lt;b&gt;低&lt;/b&gt;&lt;/font&gt;" style="text;html=1;align=center;verticalAlign=middle;whiteSpace=wrap;rounded=0;" parent="RUXYSGpX76x2whFEvcpd-14" vertex="1">
          <mxGeometry y="17" width="60" height="30" as="geometry" />
        </mxCell>
        <mxCell id="RUXYSGpX76x2whFEvcpd-13" value="&lt;font style=&quot;font-size: 20px;&quot;&gt;&lt;b&gt;高&lt;/b&gt;&lt;/font&gt;" style="text;html=1;align=center;verticalAlign=middle;whiteSpace=wrap;rounded=0;" parent="RUXYSGpX76x2whFEvcpd-14" vertex="1">
          <mxGeometry x="200" y="17" width="60" height="30" as="geometry" />
        </mxCell>
        <mxCell id="wv0-XXs7hmUBtiv9ncpi-5" value="&lt;font face=&quot;Times New Roman&quot; style=&quot;font-size: 20px;&quot;&gt;&lt;b&gt;1：200,000&lt;/b&gt;&lt;/font&gt;" style="rounded=0;whiteSpace=wrap;html=1;strokeWidth=1;" vertex="1" parent="1">
          <mxGeometry x="353" y="710" width="120" height="60" as="geometry" />
        </mxCell>
        <mxCell id="wv0-XXs7hmUBtiv9ncpi-12" value="" style="endArrow=none;html=1;rounded=0;strokeColor=#FF3333;entryX=0;entryY=0;entryDx=0;entryDy=0;" edge="1" parent="1" target="wv0-XXs7hmUBtiv9ncpi-5">
          <mxGeometry width="50" height="50" relative="1" as="geometry">
            <mxPoint x="80" y="1120" as="sourcePoint" />
            <mxPoint x="463" y="690" as="targetPoint" />
          </mxGeometry>
        </mxCell>
      </root>
    </mxGraphModel>
  </diagram>
</mxfile>
